<svg width="409" height="453" viewBox="0 0 409 453" fill="none" xmlns="http://www.w3.org/2000/svg">
<g clip-path="url(#clip0_1115_177)">
<path d="M269.188 0.916626L150.463 0.916626C131.998 0.916626 117.029 20.8085 117.029 45.3465V405.866C117.029 430.404 131.998 450.296 150.463 450.296H269.188C287.653 450.296 302.622 430.404 302.622 405.866V45.3465C302.622 20.8085 287.653 0.916626 269.188 0.916626Z" fill="#3F3D56"/>
<path d="M299.492 45.3495V405.867C299.482 416.543 296.286 426.779 290.605 434.329C284.924 441.878 277.222 446.125 269.187 446.137H150.465C142.43 446.125 134.728 441.878 129.047 434.329C123.366 426.779 120.17 416.543 120.161 405.867V45.3495C120.17 34.6729 123.366 24.4373 129.047 16.8878C134.728 9.33838 142.43 5.09166 150.465 5.0793H165.99V12.2058C165.99 15.4321 166.954 18.5262 168.671 20.8076C170.388 23.0889 172.716 24.3707 175.144 24.3708L244.508 24.3708C246.936 24.3707 249.264 23.0889 250.981 20.8076C252.698 18.5262 253.662 15.4321 253.663 12.2058V5.0793L269.187 5.0793C277.222 5.09166 284.924 9.33838 290.605 16.8878C296.286 24.4373 299.482 34.6729 299.492 45.3495Z" fill="white"/>
<path d="M116.175 92.0787C115.571 92.0777 114.993 91.7586 114.566 91.1913C114.139 90.624 113.899 89.8548 113.898 89.0525V83.0003C113.898 82.1977 114.138 81.428 114.565 80.8605C114.992 80.293 115.571 79.9742 116.175 79.9742C116.779 79.9742 117.358 80.293 117.785 80.8605C118.212 81.428 118.452 82.1977 118.452 83.0003V89.0525C118.452 89.8548 118.212 90.624 117.785 91.1913C117.358 91.7586 116.779 92.0777 116.175 92.0787Z" fill="#3F3D56"/>
<path d="M116.175 123.113C115.571 123.112 114.993 122.793 114.566 122.225C114.139 121.658 113.899 120.889 113.898 120.087V103.427C113.898 102.624 114.138 101.854 114.565 101.287C114.992 100.719 115.571 100.4 116.175 100.4C116.779 100.4 117.358 100.719 117.785 101.287C118.212 101.854 118.452 102.624 118.452 103.427V120.087C118.452 120.889 118.212 121.658 117.785 122.225C117.358 122.793 116.779 123.112 116.175 123.113Z" fill="#3F3D56"/>
<path d="M116.175 148.062C115.571 148.061 114.993 147.742 114.566 147.175C114.139 146.607 113.899 145.838 113.898 145.036V128.376C113.898 127.573 114.138 126.804 114.565 126.236C114.992 125.669 115.571 125.35 116.175 125.35C116.779 125.35 117.358 125.669 117.785 126.236C118.212 126.804 118.452 127.573 118.452 128.376V145.036C118.452 145.838 118.212 146.607 117.785 147.175C117.358 147.742 116.779 148.061 116.175 148.062Z" fill="#3F3D56"/>
<path d="M302.907 134.444C302.303 134.443 301.724 134.124 301.297 133.557C300.87 132.99 300.63 132.221 300.629 131.418V90.7672C300.629 89.9647 300.869 89.195 301.296 88.6274C301.723 88.0599 302.303 87.7411 302.907 87.7411C303.511 87.7411 304.09 88.0599 304.517 88.6274C304.944 89.195 305.184 89.9647 305.184 90.7672V131.418C305.183 132.221 304.943 132.99 304.516 133.557C304.089 134.124 303.51 134.443 302.907 134.444Z" fill="#3F3D56"/>
<path d="M214.717 14.7958H197.069C196.691 14.7958 196.329 14.5965 196.062 14.2418C195.795 13.8871 195.646 13.4061 195.646 12.9045C195.646 12.4029 195.795 11.9218 196.062 11.5671C196.329 11.2124 196.691 11.0131 197.069 11.0131H214.717C215.095 11.0131 215.457 11.2124 215.724 11.5671C215.991 11.9218 216.14 12.4029 216.14 12.9045C216.14 13.4061 215.991 13.8871 215.724 14.2418C215.457 14.5965 215.095 14.7958 214.717 14.7958Z" fill="white"/>
<path d="M223.826 14.4175C224.455 14.4175 224.965 13.7401 224.965 12.9045C224.965 12.0688 224.455 11.3914 223.826 11.3914C223.197 11.3914 222.688 12.0688 222.688 12.9045C222.688 13.7401 223.197 14.4175 223.826 14.4175Z" fill="white"/>
<path d="M360.633 431.396C361.049 431.416 361.459 431.266 361.808 430.966C362.158 430.666 362.429 430.23 362.586 429.718C362.743 429.206 362.777 428.642 362.685 428.103C362.593 427.564 362.378 427.076 362.07 426.704C362.017 426.435 361.979 426.241 361.926 425.972C362.314 424.624 362.996 423.461 363.884 422.632C364.773 421.803 365.828 421.346 366.913 421.318C367.999 421.291 369.066 421.695 369.977 422.479C370.889 423.262 371.604 424.39 372.03 425.717C374.488 433.166 377.655 440.869 376.167 449.126C386.183 420.206 382.45 384.437 367.166 360.007C362.968 357.003 359.545 351.614 358.618 345.319C360.692 346.224 363.252 343.957 361.678 341.084C360.996 339.987 360.308 338.898 359.627 337.801C367.398 326.591 376.877 343.935 368.343 359.04C371.204 363.714 373.689 368.773 375.758 374.133C375.248 368.42 375.766 362.627 377.27 357.231C378.797 352.201 381.696 347.944 384.245 343.58C387.343 338.263 393.816 340.616 394.286 347.308C391.401 348.609 391.064 354.17 394.381 354.889C393.603 367.359 387.56 378.887 379.163 384.458C382.361 396.035 383.666 408.385 382.991 420.684C384.377 406.302 395.955 402.669 404.024 396.858C404.537 396.412 405.136 396.173 405.749 396.172C406.363 396.171 406.963 396.407 407.477 396.851C407.991 397.295 408.396 397.929 408.644 398.674C408.892 399.42 408.971 400.245 408.872 401.049C407.757 401.668 406.691 402.433 405.69 403.332C405.221 403.759 404.863 404.37 404.665 405.078C404.467 405.787 404.439 406.56 404.584 407.291C404.73 408.022 405.042 408.675 405.478 409.161C405.914 409.647 406.452 409.942 407.019 410.005C403.027 423.501 392.523 432.663 381.668 432.749C380.668 438.786 379.199 444.668 377.284 450.302L361.174 450.505C361.114 450.268 361.06 450.023 361.007 449.786C362.499 449.892 363.995 449.754 365.462 449.377C361.472 443.219 358.398 440.091 360.632 431.396L360.633 431.396Z" fill="#F2F2F2"/>
<path d="M48.7931 431.396C48.3774 431.416 47.967 431.266 47.6177 430.966C47.2683 430.666 46.9968 430.23 46.84 429.718C46.6832 429.206 46.6486 428.642 46.7409 428.103C46.8333 427.564 47.0481 427.076 47.3562 426.704C47.4093 426.435 47.4474 426.241 47.5005 425.972C47.1124 424.624 46.4304 423.461 45.5418 422.632C44.6531 421.803 43.5985 421.346 42.5129 421.318C41.4273 421.291 40.3603 421.695 39.4487 422.479C38.5371 423.262 37.8224 424.39 37.3962 425.717C34.9381 433.166 31.7706 440.869 33.2593 449.126C23.2429 420.206 26.976 384.437 42.2601 360.007C46.458 357.003 49.8816 351.614 50.8079 345.319C48.7345 346.224 46.1738 343.957 47.7484 341.084C48.4299 339.987 49.1178 338.898 49.7992 337.801C42.0282 326.591 32.549 343.935 41.0829 359.04C38.2224 363.714 35.7373 368.773 33.6683 374.133C34.1782 368.42 33.66 362.627 32.1564 357.231C30.6294 352.201 27.7303 347.944 25.1816 343.58C22.0829 338.263 15.6098 340.616 15.1398 347.308C18.0254 348.609 18.3616 354.17 15.045 354.889C15.823 367.359 21.8663 378.887 30.2635 384.458C27.0648 396.035 25.7597 408.385 26.4351 420.684C25.0488 406.302 13.4713 402.669 5.40248 396.858C4.88948 396.412 4.28981 396.173 3.67661 396.172C3.06341 396.171 2.4632 396.407 1.94919 396.851C1.43518 397.295 1.02959 397.929 0.781895 398.674C0.534203 399.42 0.455115 400.245 0.554281 401.049C1.66925 401.668 2.73518 402.433 3.73639 403.332C4.20549 403.759 4.56354 404.37 4.76147 405.078C4.95939 405.787 4.9875 406.56 4.84194 407.291C4.69638 408.022 4.38428 408.675 3.94842 409.161C3.51255 409.647 2.97426 409.942 2.40733 410.005C6.39879 423.501 16.9027 432.663 27.7576 432.749C28.7576 438.786 30.2269 444.668 32.142 450.302L48.2524 450.505C48.3119 450.268 48.3656 450.023 48.4193 449.786C46.9272 449.892 45.431 449.754 43.964 449.377C47.9538 443.219 51.0277 440.091 48.7936 431.396L48.7931 431.396Z" fill="#F2F2F2"/>
<path d="M159.207 22.9113H143.835C143.08 22.9113 142.356 22.5128 141.823 21.8034C141.289 21.094 140.989 20.1319 140.989 19.1286C140.989 18.1254 141.289 17.1633 141.823 16.4539C142.356 15.7445 143.08 15.346 143.835 15.346H159.207C159.961 15.346 160.685 15.7445 161.219 16.4539C161.753 17.1633 162.053 18.1254 162.053 19.1286C162.053 20.1319 161.753 21.094 161.219 21.8034C160.685 22.5128 159.961 22.9113 159.207 22.9113Z" fill="#E6E6E6"/>
<path d="M259.973 22.533C261.388 22.533 262.535 21.0088 262.535 19.1286C262.535 17.2484 261.388 15.7242 259.973 15.7242C258.559 15.7242 257.412 17.2484 257.412 19.1286C257.412 21.0088 258.559 22.533 259.973 22.533Z" fill="#E6E6E6"/>
<path d="M267.944 22.533C269.359 22.533 270.506 21.0088 270.506 19.1286C270.506 17.2484 269.359 15.7242 267.944 15.7242C266.529 15.7242 265.382 17.2484 265.382 19.1286C265.382 21.0088 266.529 22.533 267.944 22.533Z" fill="#E6E6E6"/>
<path d="M275.914 22.533C277.329 22.533 278.476 21.0088 278.476 19.1286C278.476 17.2484 277.329 15.7242 275.914 15.7242C274.499 15.7242 273.352 17.2484 273.352 19.1286C273.352 21.0088 274.499 22.533 275.914 22.533Z" fill="#E6E6E6"/>
<path d="M258.182 75.7808H161.571C159.7 75.7842 157.906 76.7736 156.582 78.5322C155.259 80.2907 154.514 82.6748 154.512 85.1618V168.615C154.514 171.102 155.259 173.486 156.582 175.244C157.906 177.003 159.7 177.992 161.571 177.996H258.182C260.054 177.994 261.848 177.005 263.172 175.246C264.496 173.487 265.24 171.102 265.241 168.615V85.1618C265.24 82.6744 264.496 80.2896 263.172 78.5308C261.848 76.7719 260.054 75.7829 258.182 75.7808Z" fill="#F2F2F2"/>
<path d="M227.936 111.407C219.206 131.92 209.571 151.73 199.083 170.734H183.933C193.856 154.669 203.787 138.604 213.725 122.538C216.576 117.913 219.67 113.067 223.947 111.187L227.936 111.407Z" fill="#3F3D56"/>
<path d="M207.802 108.118C206.222 110.306 204.708 112.582 203.283 114.946C200.144 119.969 197.05 125.035 193.945 130.086C192.011 133.229 190.077 136.372 188.165 139.514C187.558 138.996 186.982 138.417 186.441 137.781C183.388 134.259 181.494 129.288 181.165 123.933C180.837 118.578 182.1 113.265 184.684 109.132C187.268 104.999 190.967 102.376 194.989 101.824C199.011 101.272 203.035 102.836 206.2 106.179C206.77 106.771 207.306 107.419 207.802 108.118Z" fill="#6C63FF"/>
<path d="M265.241 105.732V108.781L264.217 108.281L249.796 101.276C245.099 98.9987 240.414 96.3962 235.564 94.7545C231.344 93.1503 226.862 93.2266 222.674 94.9739C218.942 96.8091 215.526 99.6267 212.632 103.258C211.351 104.832 210.11 106.443 208.909 108.115C208.516 108.667 208.123 109.219 207.736 109.772C206.575 111.451 205.453 113.168 204.388 114.946C201.252 119.97 198.155 125.038 195.052 130.085C193.116 133.232 191.181 136.371 189.268 139.511C182.88 149.898 176.53 160.305 170.219 170.733C169.369 170.72 168.523 170.578 167.697 170.309C174.136 159.68 180.605 149.079 187.104 138.505C187.252 138.263 187.4 138.021 187.548 137.778C188.311 136.515 189.091 135.244 189.865 133.981C193.105 128.708 196.346 123.44 199.589 118.177C201.946 114.349 204.286 110.505 206.825 106.874C206.979 106.64 207.138 106.413 207.303 106.178C207.548 105.83 207.793 105.49 208.043 105.134C213.56 97.5613 220.443 90.866 228.686 90.6844C233.537 90.586 238.222 92.6287 242.731 94.7848C247.587 97.1225 252.426 99.498 257.277 101.858L265.241 105.732Z" fill="#3F3D56"/>
<path d="M267.513 362.25H152.138C150.267 362.247 148.473 361.258 147.149 359.499C145.826 357.741 145.082 355.356 145.08 352.869V332.206C145.082 329.719 145.826 327.335 147.149 325.577C148.473 323.818 150.267 322.829 152.138 322.826H267.513C269.384 322.829 271.179 323.818 272.502 325.577C273.825 327.335 274.57 329.719 274.572 332.206V352.869C274.57 355.356 273.825 357.741 272.502 359.499C271.179 361.258 269.384 362.247 267.513 362.25Z" fill="#F2F2F2"/>
<path d="M267.513 256.335H152.138C150.267 256.333 148.473 255.343 147.149 253.585C145.826 251.826 145.082 249.442 145.08 246.955V226.292C145.082 223.805 145.826 221.421 147.149 219.662C148.473 217.904 150.267 216.915 152.138 216.912H267.513C269.384 216.915 271.179 217.904 272.502 219.662C273.825 221.421 274.57 223.805 274.572 226.292V246.955C274.57 249.442 273.825 251.826 272.502 253.585C271.179 255.343 269.384 256.333 267.513 256.335Z" fill="#F2F2F2"/>
<path d="M267.513 309.293H152.138C150.267 309.29 148.473 308.3 147.149 306.542C145.826 304.783 145.082 302.399 145.08 299.912V279.249C145.082 276.762 145.826 274.378 147.149 272.619C148.473 270.861 150.267 269.872 152.138 269.869H267.513C269.384 269.872 271.179 270.861 272.502 272.619C273.825 274.378 274.57 276.762 274.572 279.249V299.912C274.57 302.399 273.825 304.783 272.502 306.542C271.179 308.3 269.384 309.29 267.513 309.293Z" fill="#F2F2F2"/>
<path d="M223.843 339.001H189.849C189.446 339.001 189.059 338.789 188.774 338.41C188.488 338.031 188.328 337.517 188.328 336.981C188.328 336.445 188.488 335.931 188.774 335.552C189.059 335.173 189.446 334.96 189.849 334.96H223.843C224.246 334.96 224.633 335.173 224.918 335.552C225.203 335.931 225.364 336.445 225.364 336.981C225.364 337.517 225.203 338.031 224.918 338.41C224.633 338.789 224.246 339.001 223.843 339.001Z" fill="white"/>
<path d="M256.538 350.116H189.468C189.065 350.116 188.678 349.903 188.393 349.524C188.108 349.145 187.948 348.631 187.948 348.095C187.948 347.559 188.108 347.045 188.393 346.666C188.678 346.287 189.065 346.074 189.468 346.074H256.538C256.941 346.074 257.328 346.287 257.613 346.666C257.898 347.045 258.059 347.559 258.059 348.095C258.059 348.631 257.898 349.145 257.613 349.524C257.328 349.903 256.941 350.116 256.538 350.116Z" fill="white"/>
<path d="M171.789 356.087C177.42 356.087 181.985 350.021 181.985 342.538C181.985 335.055 177.42 328.989 171.789 328.989C166.158 328.989 161.593 335.055 161.593 342.538C161.593 350.021 166.158 356.087 171.789 356.087Z" fill="white"/>
<path d="M169.517 360.839C168.476 360.193 167.287 360.112 166.203 360.613C165.118 361.115 164.223 362.158 163.709 363.523C163.607 363.802 163.524 364.093 163.458 364.391L148.105 365.61L145.829 376.18L166.726 371.488C167.676 371.752 168.666 371.591 169.54 371.029C170.414 370.467 171.123 369.536 171.558 368.382C171.8 367.722 171.942 367.005 171.976 366.272C172.01 365.539 171.935 364.805 171.755 364.11C171.575 363.416 171.294 362.776 170.928 362.226C170.562 361.676 170.118 361.227 169.621 360.905C169.587 360.882 169.552 360.861 169.517 360.839Z" fill="#FFB6B6"/>
<path d="M135.627 308.699C134.615 308.149 133.526 307.895 132.434 307.954C131.342 308.013 130.272 308.384 129.297 309.042C128.322 309.7 127.466 310.629 126.785 311.766C126.105 312.903 125.617 314.221 125.354 315.631L121.133 338.284L121.927 377.914C121.927 377.914 143.96 383.532 147.659 379.921C151.358 376.309 151.01 373.621 151.358 376.309C151.705 378.998 153.293 380.126 153.315 379.056C153.337 377.987 153.516 378.17 154.438 377.847C155.36 377.525 159.428 375.533 159.428 375.533L159.61 364.234C159.61 364.234 152.885 360.846 151.253 361.856C149.621 362.867 151.6 364.545 149.621 362.867C147.642 361.19 147.426 355.895 147.088 360.667C146.749 365.439 145.759 366.327 144.275 364.205C142.791 362.084 135.917 363.439 135.917 363.439L140.292 319.386C140.512 317.17 140.173 314.92 139.329 312.987C138.485 311.053 137.184 309.546 135.627 308.699Z" fill="#6C63FF"/>
<path d="M284.007 426.222L284.239 417.877L260.128 412.718L259.786 425.034L284.007 426.222Z" fill="#FFB6B6"/>
<path d="M279.63 428.734L279.402 415.373L283.7 415.584L290.639 403.232C290.982 402.622 291.462 402.174 292.011 401.952C292.559 401.73 293.146 401.748 293.686 402.001C294.226 402.254 294.691 402.73 295.014 403.359C295.336 403.989 295.498 404.739 295.477 405.5L295.037 421.371L290.709 423.899L294.931 425.175L294.765 431.159L279.63 428.734Z" fill="#2F2E41"/>
<path d="M148.308 445.358L224.676 433.557C224.676 433.557 257.655 436.088 265.392 429.399L273.552 428.03L273.994 412.103C273.994 412.103 269.004 412.152 266.136 410.376C263.267 408.6 265.261 406.427 262.526 408.564C259.791 410.701 260.08 410.958 257.965 409.975C255.85 408.993 158.877 403.726 158.877 403.726L148.308 445.358Z" fill="#2F2E41"/>
<path d="M248.942 438.447L253.382 432.538L238.347 406.965L231.793 415.685L248.942 438.447Z" fill="#FFB6B6"/>
<path d="M244.447 436.333L251.117 426.331L254.161 430.371L265.569 427.587C266.133 427.45 266.715 427.555 267.23 427.888C267.745 428.221 268.167 428.764 268.433 429.438C268.7 430.112 268.797 430.881 268.711 431.634C268.625 432.387 268.36 433.083 267.956 433.622L259.509 444.859L255.043 442.801L257.485 447.552L254.3 451.789L244.447 436.333Z" fill="#2F2E41"/>
<path d="M118.179 389.779L118.938 413.231C119.832 440.84 142.712 457.549 160.453 443.134C160.78 442.869 161.108 442.593 161.438 442.309C161.438 442.309 168.164 439.908 167.959 436.107C167.755 432.306 169.398 430.456 170.852 431.493C172.307 432.529 191.345 396.624 191.345 396.624C191.345 396.624 230.901 422.844 239.628 429.017L248.835 425.683C248.835 425.683 252.301 427.858 251.052 424.712C249.804 421.567 249.58 423.073 249.197 419.646C248.813 416.219 247.832 411.97 247.237 412.148C246.643 412.327 198.302 367.366 198.302 367.366C198.302 367.366 190.426 356.774 180.657 363.767C180.454 364.795 180.628 364.83 180.628 364.83L148.357 399.773L143.797 388.266L118.179 389.779Z" fill="#2F2E41"/>
<path d="M139.869 303.608L126.033 294.991L121.89 304.569C121.89 304.569 110.765 325.666 110.604 340.886C110.442 356.106 112.417 360.632 112.417 360.632C112.417 360.632 107.62 365.398 110.018 368.31C112.417 371.223 117.726 372.48 113.648 373.743C109.57 375.006 110.604 387.791 115.158 390.061C119.712 392.33 144.172 392.31 144.172 392.31C143.952 391.319 143.936 390.268 144.125 389.265C144.314 388.263 144.702 387.346 145.248 386.61C147.144 384.084 148.852 385.897 147.144 381.965C145.436 378.032 142.59 380.302 144.867 375.006C147.144 369.71 147.143 368.128 147.143 368.128C147.143 368.128 151.786 356.387 144.793 343.65C144.367 342.874 144.725 342.844 144.725 342.844L139.079 317.7L139.869 303.608Z" fill="#6C63FF"/>
<path d="M117.571 267.375C117.688 271.259 115.846 276.762 114.939 280.079C113.969 283.627 118.172 288.335 120.862 289.367C121.002 288.138 121.464 287.014 122.165 286.192C121.971 287.363 121.954 288.574 122.115 289.753L144.858 296.634C148.949 290.337 153.063 281.286 152.166 270.369C152.381 268.296 152.13 266.185 151.445 264.301C150.76 262.417 149.672 260.843 148.317 259.778L136.819 250.752C131.929 249.273 125.77 248.379 122.238 252.4C120.66 254.266 119.42 256.583 118.612 259.176C117.803 261.77 117.447 264.573 117.571 267.375Z" fill="#2F2E41"/>
<path d="M137.899 293.307C145.131 293.307 150.993 285.517 150.993 275.907C150.993 266.297 145.131 258.507 137.899 258.507C130.668 258.507 124.805 266.297 124.805 275.907C124.805 285.517 130.668 293.307 137.899 293.307Z" fill="#FFB6B6"/>
<path d="M122.56 266.611L121.928 270.299L132.974 273.641C132.984 272.895 133.11 272.16 133.344 271.482C133.577 270.803 133.914 270.197 134.333 269.699C134.094 271.146 134.122 272.647 134.412 274.076C140.369 278.518 145.739 280.092 150.554 278.959C151.206 279.157 151.891 279.002 152.457 278.528C153.023 278.055 153.425 277.302 153.573 276.435C155.511 265.127 150.435 253.569 141.967 250.762C139.909 250.078 137.769 249.947 135.672 250.377C133.575 250.807 131.564 251.789 129.756 253.265C127.949 254.741 126.381 256.682 125.145 258.974C123.909 261.265 123.03 263.862 122.56 266.611V266.611Z" fill="#2F2E41"/>
<path d="M129.018 242.277C130.474 241.857 132.016 241.958 133.333 240.647L132.469 243.282C134.864 242.41 137.416 242.749 139.634 244.233C140.293 244.626 140.856 245.258 141.256 246.058C141.471 246.54 141.602 247.081 141.639 247.64C141.676 248.199 141.618 248.762 141.469 249.287C141.328 249.738 141.117 250.144 140.851 250.481C140.584 250.817 140.268 251.076 139.922 251.24C139.309 251.485 138.667 251.574 138.029 251.504C135.34 251.42 132.652 251.337 129.964 251.254C128.939 251.338 127.915 251.074 126.989 250.486C126.497 250.082 126.104 249.495 125.859 248.799C125.614 248.102 125.527 247.326 125.609 246.565C125.866 244.17 127.561 242.697 129.018 242.277Z" fill="#2F2E41"/>
<path d="M200.047 378.649C200.016 378.6 199.98 378.556 199.94 378.519C199.842 378.368 199.723 378.244 199.589 378.154L198.631 377.472L192.27 368.088C191.902 367.833 191.473 367.778 191.075 367.936L191.059 367.942L188.334 369.062L185.991 370.029L182.717 371.377L160.42 380.552L145.763 386.582C145.367 386.749 145.036 387.116 144.841 387.603C144.646 388.091 144.603 388.661 144.721 389.191C144.79 389.482 144.904 389.751 145.056 389.981L145.522 390.671L146.501 392.119L148.767 398.361L149.396 399.293C149.596 399.59 149.856 399.805 150.145 399.913C150.434 400.02 150.74 400.017 151.028 399.902L199.313 382.059C199.564 381.951 199.791 381.763 199.974 381.511C200.157 381.259 200.291 380.951 200.363 380.614C200.436 380.277 200.445 379.922 200.39 379.579C200.335 379.237 200.217 378.917 200.047 378.649Z" fill="#CCCCCC"/>
<path d="M197.18 285.819L196.245 286.02C195.989 286.077 195.76 286.266 195.608 286.546L195.196 287.311L191.48 299.659C191.329 299.942 191.268 300.292 191.311 300.634L191.747 304.152L190.101 366.949C190.143 367.273 190.274 367.566 190.469 367.769L197.684 380.594L197.852 380.771L198.216 381.149C198.402 381.341 198.633 381.438 198.869 381.425L199.482 381.386C199.621 381.377 199.757 381.329 199.881 381.245C200.005 381.161 200.115 381.043 200.202 380.898C200.29 380.755 200.354 380.589 200.389 380.41C200.425 380.231 200.431 380.044 200.407 379.862L198.314 286.893C198.271 286.552 198.129 286.247 197.917 286.045C197.705 285.843 197.442 285.762 197.185 285.818L197.18 285.819Z" fill="#CCCCCC"/>
<path d="M195.615 290.698L192.323 304.023L191.049 357.248L196.173 363.3L195.615 290.698Z" fill="#6C63FF"/>
<path d="M170.159 371.887C169.119 371.241 167.93 371.159 166.845 371.661C165.76 372.162 164.866 373.206 164.351 374.57C164.25 374.85 164.166 375.14 164.101 375.438L148.747 376.657L146.472 387.228L167.368 382.536C168.319 382.8 169.308 382.638 170.183 382.076C171.057 381.514 171.766 380.583 172.2 379.429C172.69 378.096 172.761 376.56 172.397 375.158C172.034 373.756 171.267 372.602 170.264 371.952C170.229 371.93 170.195 371.908 170.159 371.887Z" fill="#FFB6B6"/>
<path d="M136.269 319.747C135.257 319.197 134.168 318.942 133.076 319.002C131.984 319.061 130.914 319.432 129.939 320.089C128.965 320.747 128.108 321.676 127.427 322.813C126.747 323.95 126.259 325.268 125.996 326.678L121.775 349.331L122.569 388.961C122.569 388.961 144.602 394.579 148.301 390.968C152 387.357 151.653 384.668 152 387.357C152.347 390.045 153.935 391.173 153.957 390.104C153.979 389.034 154.158 389.217 155.08 388.895C156.002 388.572 160.07 386.58 160.07 386.58L160.252 375.281C160.252 375.281 153.527 371.893 151.895 372.904C150.263 373.915 152.242 375.592 150.263 373.915C148.284 372.237 148.068 366.943 147.73 371.714C147.391 376.486 146.401 377.374 144.917 375.253C143.433 373.131 136.559 374.486 136.559 374.486L140.934 330.433C141.154 328.218 140.815 325.967 139.971 324.034C139.128 322.101 137.826 320.593 136.269 319.747Z" fill="#6C63FF"/>
<path d="M0.4043 451.158C0.404035 451.276 0.421381 451.394 0.455335 451.503C0.48929 451.612 0.539187 451.712 0.602153 451.795C0.665118 451.879 0.739908 451.945 0.822226 451.99C0.904545 452.036 0.992764 452.059 1.08181 452.058H408.3C408.479 452.058 408.652 451.963 408.779 451.795C408.906 451.626 408.977 451.397 408.977 451.158C408.977 450.919 408.906 450.69 408.779 450.521C408.652 450.353 408.479 450.258 408.3 450.258H1.08177C0.992733 450.257 0.904522 450.28 0.822209 450.326C0.739896 450.371 0.665105 450.437 0.602144 450.521C0.539183 450.604 0.489289 450.704 0.455335 450.813C0.421382 450.922 0.404038 451.04 0.4043 451.158Z" fill="#CCCCCC"/>
<path d="M359.74 256.335H244.366C242.495 256.333 240.7 255.343 239.377 253.585C238.054 251.826 237.309 249.442 237.307 246.955V226.292C237.309 223.805 238.054 221.421 239.377 219.662C240.7 217.904 242.495 216.915 244.366 216.912H359.74C361.612 216.915 363.406 217.904 364.729 219.662C366.053 221.421 366.797 223.805 366.799 226.292V246.955C366.797 249.442 366.053 251.826 364.729 253.585C363.406 255.343 361.612 256.333 359.74 256.335Z" fill="#E6E6E6"/>
<path d="M316.07 233.087H282.076C281.673 233.087 281.286 232.874 281.001 232.495C280.715 232.116 280.555 231.602 280.555 231.066C280.555 230.53 280.715 230.016 281.001 229.637C281.286 229.258 281.673 229.045 282.076 229.045H316.07C316.473 229.045 316.86 229.258 317.145 229.637C317.43 230.016 317.591 230.53 317.591 231.066C317.591 231.602 317.43 232.116 317.145 232.495C316.86 232.874 316.473 233.087 316.07 233.087Z" fill="white"/>
<path d="M348.766 244.202H281.696C281.293 244.202 280.906 243.989 280.621 243.61C280.335 243.231 280.175 242.717 280.175 242.181C280.175 241.645 280.335 241.131 280.621 240.752C280.906 240.373 281.293 240.16 281.696 240.16H348.766C349.169 240.16 349.556 240.373 349.841 240.752C350.126 241.131 350.286 241.645 350.286 242.181C350.286 242.717 350.126 243.231 349.841 243.61C349.556 243.989 349.169 244.202 348.766 244.202Z" fill="white"/>
<path d="M264.016 250.173C269.647 250.173 274.212 244.106 274.212 236.623C274.212 229.141 269.647 223.074 264.016 223.074C258.385 223.074 253.82 229.141 253.82 236.623C253.82 244.106 258.385 250.173 264.016 250.173Z" fill="white"/>
<path d="M322.736 309.293H207.361C205.49 309.29 203.695 308.3 202.372 306.542C201.049 304.783 200.304 302.399 200.302 299.912V279.249C200.304 276.762 201.049 274.378 202.372 272.619C203.695 270.861 205.49 269.872 207.361 269.869H322.736C324.607 269.872 326.401 270.861 327.725 272.619C329.048 274.378 329.792 276.762 329.794 279.249V299.912C329.792 302.399 329.048 304.783 327.725 306.542C326.401 308.3 324.607 309.29 322.736 309.293Z" fill="#E6E6E6"/>
<path d="M279.066 286.044H245.071C244.668 286.044 244.281 285.831 243.996 285.452C243.711 285.073 243.551 284.559 243.551 284.023C243.551 283.487 243.711 282.973 243.996 282.594C244.281 282.216 244.668 282.003 245.071 282.003H279.066C279.469 282.003 279.856 282.216 280.141 282.594C280.426 282.973 280.586 283.487 280.586 284.023C280.586 284.559 280.426 285.073 280.141 285.452C279.856 285.831 279.469 286.044 279.066 286.044Z" fill="white"/>
<path d="M311.761 297.159H244.691C244.288 297.159 243.901 296.946 243.616 296.567C243.331 296.188 243.17 295.674 243.17 295.138C243.17 294.602 243.331 294.088 243.616 293.709C243.901 293.33 244.288 293.117 244.691 293.117H311.761C312.164 293.117 312.551 293.33 312.836 293.709C313.121 294.088 313.281 294.602 313.281 295.138C313.281 295.674 313.121 296.188 312.836 296.567C312.551 296.946 312.164 297.159 311.761 297.159Z" fill="white"/>
<path d="M227.011 303.13C232.642 303.13 237.207 297.064 237.207 289.581C237.207 282.098 232.642 276.032 227.011 276.032C221.38 276.032 216.815 282.098 216.815 289.581C216.815 297.064 221.38 303.13 227.011 303.13Z" fill="white"/>
</g>
<defs>
<clipPath id="clip0_1115_177">
<rect width="408.573" height="451.142" fill="white" transform="translate(0.404297 0.916626)"/>
</clipPath>
</defs>
</svg>
