<svg width="408" height="464" viewBox="0 0 408 464" fill="none" xmlns="http://www.w3.org/2000/svg">
<g clip-path="url(#clip0_1110_85)">
<path d="M274.674 328.888H128.875C116.62 328.888 106.65 316.712 106.65 301.745V123.69C106.65 108.723 116.62 96.547 128.875 96.547H274.674C286.93 96.547 296.9 108.723 296.9 123.69V301.745C296.9 316.712 286.93 328.888 274.674 328.888ZM128.875 100.89C118.565 100.89 110.206 111.098 110.206 123.69V301.745C110.206 314.337 118.565 324.545 128.875 324.545H231.004C265.433 324.545 293.344 290.46 293.344 248.413V123.69C293.344 111.098 284.985 100.89 274.674 100.89H128.875V100.89Z" fill="#F2F2F2"/>
<path d="M144.594 119.406C137.693 119.406 132.08 126.261 132.08 134.689V158.61C132.08 167.037 137.693 173.892 144.594 173.892H164.181C171.082 173.892 176.695 167.037 176.695 158.61V134.689C176.695 126.261 171.082 119.406 164.181 119.406H144.594Z" fill="#F2F2F2"/>
<path d="M144.594 186.746C137.693 186.746 132.08 193.602 132.08 202.029V225.95C132.08 234.377 137.693 241.233 144.594 241.233H164.181C171.082 241.233 176.695 234.377 176.695 225.95V202.029C176.695 193.602 171.082 186.746 164.181 186.746H144.594Z" fill="#F2F2F2"/>
<path d="M144.594 254.087C137.693 254.087 132.08 260.943 132.08 269.37V293.291C132.08 301.718 137.693 308.574 144.594 308.574H164.181C171.082 308.574 176.695 301.718 176.695 293.291V269.37C176.695 260.943 171.082 254.087 164.181 254.087H144.594Z" fill="#F2F2F2"/>
<path d="M157.583 61.0438C148.888 61.0438 141.815 69.6821 141.815 80.3007V110.442C141.815 121.06 148.888 129.699 157.583 129.699H182.264C190.959 129.699 198.032 121.06 198.032 110.442V80.3007C198.032 69.6821 190.959 61.0438 182.264 61.0438H157.583Z" fill="#D8D7DB"/>
<path d="M238.838 145.276C230.143 145.276 223.07 153.914 223.07 164.533V194.674C223.07 205.292 230.143 213.931 238.838 213.931H263.519C272.214 213.931 279.287 205.292 279.287 194.674V164.533C279.287 153.914 272.214 145.276 263.519 145.276H238.838Z" fill="#D8D7DB"/>
<path d="M203.512 448.658L198.498 448.607L196.279 424.438L203.679 424.514L203.512 448.658Z" fill="#A0616A"/>
<path d="M187.452 458.395C187.441 459.902 188.436 461.143 189.675 461.157L199.644 461.258L201.389 456.938L202.03 461.28L205.791 461.322L204.841 445.835L203.533 445.729L198.195 445.279L196.473 445.139L196.443 449.52L188.435 456.154C187.825 456.659 187.458 457.497 187.452 458.395H187.452Z" fill="#2F2E41"/>
<path d="M229.022 448.658L224.009 448.607L221.789 424.438L229.189 424.514L229.022 448.658Z" fill="#A0616A"/>
<path d="M212.962 458.395C212.952 459.902 213.946 461.143 215.185 461.157L225.154 461.258L226.899 456.938L227.54 461.28L231.302 461.322L230.352 445.835L229.043 445.729L223.705 445.279L221.983 445.139L221.953 449.52L213.945 456.154C213.335 456.659 212.969 457.497 212.962 458.395Z" fill="#2F2E41"/>
<path d="M183.837 253.254L204.161 254.038L223.415 259.263C223.415 259.263 221.49 262.137 227.908 269.975C227.908 269.975 236.466 288.264 230.475 306.03L227.908 377.095C227.908 377.095 235.393 427.191 229.674 443.134L222.116 443.711L209.326 377.673L203.092 306.553L200.096 376.572C200.096 376.572 211.555 424.632 204.319 443.711L196.133 443.134L182.126 376.572C182.126 376.572 176.136 299.76 176.991 285.129C177.847 270.498 183.837 253.254 183.837 253.254H183.837Z" fill="#2F2E41"/>
<path d="M252.09 140.961C249.311 141.839 247.642 145.302 248.362 148.695C248.691 150.25 249.468 151.515 250.477 152.35L250.477 152.359L250.083 164.018L257.388 168.146L257.971 150.206L257.92 150.207C258.554 148.829 258.773 147.164 258.423 145.513C257.703 142.12 254.868 140.082 252.09 140.961V140.961Z" fill="#A0616A"/>
<path d="M211.259 182.57C209.724 180.712 208.834 178.194 208.8 175.455C208.756 171.78 210.263 168.445 212.833 166.534C215.793 164.332 219.494 164.555 222.263 167.101L245.203 188.195L249.291 157.807L258.067 161.257L255.973 200.826C255.827 203.594 254.546 206.033 252.547 207.349C250.547 208.665 248.176 208.632 246.202 207.261L213.049 184.226C212.383 183.763 211.783 183.205 211.259 182.57V182.57Z" fill="#3F3D56"/>
<path d="M176.278 123.963C177.744 126.976 176.933 130.87 174.466 132.661C173.336 133.482 172.055 133.712 170.857 133.438L170.852 133.444L164.411 142.063L156.842 138.713L166.771 125.471L166.806 125.516C167.151 123.993 167.955 122.622 169.156 121.751C171.623 119.96 174.811 120.95 176.278 123.963Z" fill="#A0616A"/>
<path d="M179.06 188.256L142.237 176.109C140.044 175.385 138.341 173.369 137.68 170.716C137.019 168.062 137.515 165.229 139.007 163.137L160.332 133.237L168.553 138.333L153.937 163.427L182.39 168.172C185.823 168.745 188.58 171.769 189.412 175.877C190.136 179.444 189.284 183.109 187.134 185.68C185.531 187.596 183.447 188.62 181.286 188.619C180.547 188.619 179.8 188.5 179.06 188.256H179.06Z" fill="#3F3D56"/>
<path d="M231.558 263.709L180.065 266.593C178.651 263.971 179.034 260.027 181.015 255.088C188.493 236.442 182.813 201.167 178.993 182.799C177.921 177.645 180.799 172.522 185.131 171.993L189.986 171.4L194.474 154.669H210.192L216.713 163.767L227.779 171.977C225.765 197.315 217.182 233.096 229.409 251.039C232.084 254.964 232.842 259.208 231.558 263.709Z" fill="#3F3D56"/>
<path d="M200.334 155.055C208.789 155.055 215.644 146.684 215.644 136.358C215.644 126.032 208.789 117.661 200.334 117.661C191.878 117.661 185.024 126.032 185.024 136.358C185.024 146.684 191.878 155.055 200.334 155.055Z" fill="#A0616A"/>
<path d="M217.658 124.39C219.788 114.906 196.573 106.773 192.061 114.411C191.434 113.325 189.116 112.666 188.052 112.999C186.988 113.332 186.094 114.164 185.221 114.971C184.021 116.096 182.777 117.262 182.041 118.881C181.299 120.493 181.184 122.692 182.182 124.091C182.973 125.203 184.363 131.115 185.553 131.408C186.382 131.615 187.08 131.781 187.68 131.901C188.215 130.948 189.578 129.752 189.48 128.599C190.287 129.252 189.992 130.401 189.829 131.575C189.287 135.484 177.076 165.743 184.07 156.827C184.763 157.326 185.619 157.792 186.606 158.219C188.281 155.134 189.656 151.497 190.561 147.693L190.568 147.763C190.879 151.069 192.858 153.782 195.475 154.708C205.973 158.422 214.465 152.972 217.387 143.143C216.317 140.492 215.851 140.78 215.947 140.701C217.282 139.602 219.117 140.32 219.691 142.157C219.86 142.699 220.013 143.161 220.147 143.509C221.669 136.861 223.479 137.82 217.658 124.39H217.658Z" fill="#2F2E41"/>
<path d="M210.416 117.509L209.343 110.814C209.253 110.251 209.167 109.64 209.375 109.126C209.642 108.465 210.329 108.191 210.926 108.297C211.523 108.402 211.97 109.068 212.564 109.197C214.63 109.643 217.36 107.151 218.1 113.455C218.409 116.083 221.843 116.361 222.99 118.616C224.137 120.872 224.278 124.128 222.713 125.971C221.462 127.443 219.455 127.613 217.831 126.861C216.208 126.109 214.905 124.59 213.766 122.989C212.628 121.387 211.597 119.654 210.284 118.266" fill="#2F2E41"/>
<path d="M218.476 127.693C214.287 126.978 211.431 125.118 209.989 122.163C208.101 118.296 209.365 114.037 209.42 113.858L210.306 114.26C210.294 114.299 209.147 118.197 210.805 121.582C212.095 124.216 214.72 125.887 218.606 126.55L218.476 127.693Z" fill="#D8D7DB"/>
<path d="M238.135 55.3479C225.819 55.3479 215.798 43.1099 215.798 28.0694C215.798 13.0289 225.819 0.790894 238.135 0.790894C250.451 0.790894 260.472 13.0289 260.472 28.0694C260.472 43.1099 250.451 55.3479 238.135 55.3479ZM238.135 11.7023C230.745 11.7023 224.733 19.044 224.733 28.0694C224.733 37.0947 230.745 44.4365 238.135 44.4365C245.525 44.4365 251.537 37.0947 251.537 28.0694C251.537 19.044 245.525 11.7023 238.135 11.7023Z" fill="#D8D7DB"/>
<path d="M272.502 73.8861C271.406 73.8861 270.309 73.3986 269.448 72.4103L248.483 48.4164C246.681 46.3572 246.59 42.9047 248.278 40.707C249.962 38.5013 252.789 38.392 254.591 40.4566L275.555 64.4505C277.357 66.5097 277.449 69.9621 275.76 72.1598C274.881 73.308 273.693 73.8861 272.502 73.8861Z" fill="#D8D7DB"/>
<path d="M367.252 448.046C368.771 448.162 369.61 445.857 368.461 444.514L368.347 443.959C368.362 443.915 368.377 443.87 368.392 443.826C369.928 439.353 375.134 439.384 376.657 443.863C378.009 447.839 379.73 451.822 380.153 456.026C380.343 457.882 380.258 459.772 379.921 461.593C383.088 453.144 384.755 443.917 384.755 434.638C384.755 432.307 384.65 429.976 384.437 427.65C384.261 425.748 384.019 423.858 383.705 421.984C382.01 411.859 378.339 402.215 373.045 394.16C370.499 392.46 368.377 389.804 367.095 386.62C366.634 385.472 366.273 384.237 366.102 382.979C366.392 383.025 367.194 377.637 366.976 377.307C367.379 376.559 368.102 376.187 368.543 375.457C370.735 371.826 373.756 372.46 375.333 377.394C378.702 379.47 378.735 382.914 376.668 386.226C375.353 388.333 375.172 391.185 374.018 393.44C374.137 393.626 374.26 393.806 374.379 393.991C376.556 397.401 378.439 401.067 380.026 404.917C379.578 400.638 380.24 395.482 381.369 392.159C382.654 388.372 385.063 385.183 387.185 381.91C389.733 377.978 394.959 379.694 395.408 384.678C395.412 384.726 395.416 384.774 395.42 384.823C395.105 385.04 394.796 385.27 394.495 385.514C392.775 386.903 393.369 390.159 395.407 390.544L395.454 390.552C395.34 391.938 395.145 393.313 394.86 394.664C397.582 407.518 391.706 412.199 383.316 412.41C383.131 412.526 382.95 412.642 382.765 412.752C383.615 415.675 384.294 418.673 384.798 421.712C385.249 424.397 385.562 427.111 385.738 429.837C385.956 433.275 385.937 436.732 385.7 440.165L385.714 440.043C386.317 436.262 387.998 432.73 390.439 430.283C394.075 426.635 399.212 425.292 403.135 422.36C405.023 420.949 407.443 422.773 407.113 425.446L407.097 425.574C406.513 425.864 405.943 426.2 405.392 426.577C405.077 426.794 404.769 427.025 404.467 427.269C402.747 428.658 403.342 431.914 405.38 432.298L405.426 432.307C405.459 432.313 405.487 432.319 405.521 432.324C404.519 435.23 403.123 437.926 401.375 440.252C399.673 451.473 392.364 452.537 384.546 449.27H384.541C383.686 453.816 382.437 458.259 380.832 462.492H367.584C367.536 462.312 367.493 462.127 367.451 461.947C368.676 462.04 369.91 461.953 371.117 461.68C370.134 460.207 369.151 458.723 368.168 457.25C368.144 457.221 368.125 457.192 368.106 457.163C367.607 456.409 367.104 455.661 366.605 454.907L366.605 454.906C366.574 452.592 366.801 450.285 367.251 448.046L367.252 448.046Z" fill="#F2F2F2"/>
<path d="M0.708984 462.54C0.708984 463.133 1.09867 463.609 1.58394 463.609H406.166C406.651 463.609 407.041 463.133 407.041 462.54C407.041 461.948 406.651 461.472 406.166 461.472H1.58394C1.09867 461.472 0.708984 461.948 0.708984 462.54Z" fill="#CCCCCC"/>
</g>
<defs>
<clipPath id="clip0_1110_85">
<rect width="406.435" height="462.818" fill="white" transform="translate(0.708984 0.790894)"/>
</clipPath>
</defs>
</svg>
