<svg width="516" height="283" viewBox="0 0 516 283" fill="none" xmlns="http://www.w3.org/2000/svg">
<g opacity="0.6" clip-path="url(#clip0_171_1561)">
<path d="M266.369 8.07805C268.708 8.07805 270.604 6.26971 270.604 4.03902C270.604 1.80833 268.708 0 266.369 0C264.03 0 262.133 1.80833 262.133 4.03902C262.133 6.26971 264.03 8.07805 266.369 8.07805Z" fill="#F2F2F2"/>
<path d="M266.369 24.1753C268.708 24.1753 270.604 22.3669 270.604 20.1363C270.604 17.9056 268.708 16.0972 266.369 16.0972C264.03 16.0972 262.133 17.9056 262.133 20.1363C262.133 22.3669 264.03 24.1753 266.369 24.1753Z" fill="#F2F2F2"/>
<path d="M284.053 8.07805C286.392 8.07805 288.289 6.26971 288.289 4.03902C288.289 1.80833 286.392 0 284.053 0C281.714 0 279.817 1.80833 279.817 4.03902C279.817 6.26971 281.714 8.07805 284.053 8.07805Z" fill="#F2F2F2"/>
<path d="M284.053 24.1753C286.392 24.1753 288.289 22.3669 288.289 20.1363C288.289 17.9056 286.392 16.0972 284.053 16.0972C281.714 16.0972 279.817 17.9056 279.817 20.1363C279.817 22.3669 281.714 24.1753 284.053 24.1753Z" fill="#F2F2F2"/>
<path d="M301.737 8.07805C304.076 8.07805 305.973 6.26971 305.973 4.03902C305.973 1.80833 304.076 0 301.737 0C299.398 0 297.501 1.80833 297.501 4.03902C297.501 6.26971 299.398 8.07805 301.737 8.07805Z" fill="#F2F2F2"/>
<path d="M301.737 24.1753C304.076 24.1753 305.973 22.3669 305.973 20.1363C305.973 17.9056 304.076 16.0972 301.737 16.0972C299.398 16.0972 297.501 17.9056 297.501 20.1363C297.501 22.3669 299.398 24.1753 301.737 24.1753Z" fill="#F2F2F2"/>
<path d="M301.737 40.2725C304.076 40.2725 305.973 38.4642 305.973 36.2335C305.973 34.0028 304.076 32.1945 301.737 32.1945C299.398 32.1945 297.501 34.0028 297.501 36.2335C297.501 38.4642 299.398 40.2725 301.737 40.2725Z" fill="#F2F2F2"/>
<path d="M301.737 56.3697C304.076 56.3697 305.973 54.5614 305.973 52.3307C305.973 50.1 304.076 48.2917 301.737 48.2917C299.398 48.2917 297.501 50.1 297.501 52.3307C297.501 54.5614 299.398 56.3697 301.737 56.3697Z" fill="#F2F2F2"/>
<path d="M319.421 8.07805C321.76 8.07805 323.657 6.26971 323.657 4.03902C323.657 1.80833 321.76 0 319.421 0C317.082 0 315.186 1.80833 315.186 4.03902C315.186 6.26971 317.082 8.07805 319.421 8.07805Z" fill="#F2F2F2"/>
<path d="M319.421 24.1753C321.76 24.1753 323.657 22.3669 323.657 20.1363C323.657 17.9056 321.76 16.0972 319.421 16.0972C317.082 16.0972 315.186 17.9056 315.186 20.1363C315.186 22.3669 317.082 24.1753 319.421 24.1753Z" fill="#F2F2F2"/>
<path d="M319.421 40.2725C321.76 40.2725 323.657 38.4642 323.657 36.2335C323.657 34.0028 321.76 32.1945 319.421 32.1945C317.082 32.1945 315.186 34.0028 315.186 36.2335C315.186 38.4642 317.082 40.2725 319.421 40.2725Z" fill="#F2F2F2"/>
<path d="M319.421 56.3697C321.76 56.3697 323.657 54.5614 323.657 52.3307C323.657 50.1 321.76 48.2917 319.421 48.2917C317.082 48.2917 315.186 50.1 315.186 52.3307C315.186 54.5614 317.082 56.3697 319.421 56.3697Z" fill="#F2F2F2"/>
<path d="M337.105 8.07805C339.444 8.07805 341.341 6.26971 341.341 4.03902C341.341 1.80833 339.444 0 337.105 0C334.766 0 332.87 1.80833 332.87 4.03902C332.87 6.26971 334.766 8.07805 337.105 8.07805Z" fill="#F2F2F2"/>
<path d="M337.105 24.1753C339.444 24.1753 341.341 22.3669 341.341 20.1363C341.341 17.9056 339.444 16.0972 337.105 16.0972C334.766 16.0972 332.87 17.9056 332.87 20.1363C332.87 22.3669 334.766 24.1753 337.105 24.1753Z" fill="#F2F2F2"/>
<path d="M354.789 8.07805C357.129 8.07805 359.025 6.26971 359.025 4.03902C359.025 1.80833 357.129 0 354.789 0C352.45 0 350.554 1.80833 350.554 4.03902C350.554 6.26971 352.45 8.07805 354.789 8.07805Z" fill="#F2F2F2"/>
<path d="M354.789 24.1753C357.129 24.1753 359.025 22.3669 359.025 20.1363C359.025 17.9056 357.129 16.0972 354.789 16.0972C352.45 16.0972 350.554 17.9056 350.554 20.1363C350.554 22.3669 352.45 24.1753 354.789 24.1753Z" fill="#F2F2F2"/>
<path d="M484.094 213.14H452.65C452.65 214.002 420.242 214.701 420.242 214.701C419.733 215.066 419.27 215.485 418.86 215.95C417.629 217.35 416.956 219.12 416.96 220.947V222.196C416.961 224.266 417.824 226.252 419.359 227.716C420.894 229.18 422.976 230.002 425.148 230.003H484.094C486.265 230.001 488.347 229.178 489.882 227.714C491.416 226.251 492.28 224.266 492.282 222.196V220.947C492.279 218.877 491.415 216.893 489.88 215.429C488.346 213.966 486.265 213.143 484.094 213.14Z" fill="#3F3D56"/>
<path d="M459.203 229.693H450.688V282.157H459.203V229.693Z" fill="#3F3D56"/>
<path d="M483.436 281.872C483.436 282.749 470.534 282.211 454.618 282.211C438.702 282.211 425.799 282.749 425.799 281.872C425.799 280.994 438.702 274.037 454.618 274.037C470.534 274.037 483.436 280.994 483.436 281.872Z" fill="#3F3D56"/>
<path d="M412.039 274.971L404.009 274.971L400.189 245.436L412.04 245.437L412.039 274.971Z" fill="#FFB8B8"/>
<path d="M398.273 272.783H413.759V282.081H388.523C388.523 279.615 389.55 277.25 391.379 275.506C393.207 273.762 395.687 272.783 398.273 272.783Z" fill="#2F2E41"/>
<path d="M399.504 270.697L391.843 268.404L397.471 239.134L408.778 242.518L399.504 270.697Z" fill="#FFB8B8"/>
<path d="M387.058 264.68L401.833 269.101L398.914 277.973L374.835 270.767C375.218 269.602 375.839 268.521 376.66 267.584C377.482 266.648 378.489 265.875 379.624 265.31C380.759 264.744 382 264.398 383.275 264.29C384.551 264.182 385.836 264.314 387.058 264.68Z" fill="#2F2E41"/>
<path d="M462.59 208.02C462.404 206.532 462.071 205.064 461.594 203.635L460.094 201.837L456.191 197.165L456.021 197.171C455.732 197.184 454.533 197.246 452.68 197.384H452.66C451.514 197.471 450.112 197.583 448.521 197.727C448.102 197.771 447.663 197.808 447.211 197.852V204.372H455.398C455.796 204.373 456.18 204.511 456.479 204.762C456.778 205.012 456.971 205.358 457.022 205.734C457.029 205.803 457.036 205.865 457.036 205.934C457.035 206.348 456.863 206.745 456.556 207.038C456.249 207.331 455.832 207.495 455.398 207.495H407.848C407.242 207.879 406.66 208.296 406.105 208.744C404.43 209.981 403.223 211.704 402.667 213.654C399.89 225.296 394.827 247.006 393.333 253.382C393.225 253.863 393.25 254.362 393.405 254.831C393.56 255.299 393.84 255.721 394.218 256.056C394.496 256.303 394.824 256.497 395.181 256.624L401.088 258.735C401.331 258.821 401.584 258.877 401.842 258.904C401.874 258.904 401.9 258.91 401.933 258.91C401.994 258.915 402.055 258.917 402.117 258.916C402.714 258.914 403.297 258.74 403.789 258.417C404.281 258.094 404.659 257.636 404.874 257.105L409.537 245.438L416.723 227.45L419.565 220.336C422.859 221.073 450.499 226.907 459.754 217.507C460.667 216.581 461.387 215.498 461.876 214.316C462.655 212.305 462.9 210.143 462.59 208.02Z" fill="#2F2E41"/>
<path d="M470.606 209.719C470.462 209.163 470.298 208.588 470.109 208.007L464.705 201.537L464.535 201.543C464.194 201.562 462.576 201.643 460.094 201.837C457.278 202.061 453.341 202.424 448.92 202.992C448.79 203.005 448.652 203.023 448.521 203.042C448.088 203.098 447.65 203.155 447.211 203.217V204.372H455.398C455.796 204.373 456.18 204.511 456.479 204.762C456.778 205.012 456.971 205.358 457.022 205.734C457.029 205.803 457.035 205.865 457.035 205.934C457.035 206.348 456.863 206.745 456.556 207.038C456.249 207.331 455.832 207.495 455.398 207.495H426.462C425.198 207.889 423.979 208.301 422.813 208.744C416.696 211.055 412.118 214.084 411.181 218.025C410.867 219.35 410.52 220.805 410.153 222.354C408.791 228.112 407.134 235.164 405.634 241.572V241.578C405.326 242.902 405.018 244.189 404.723 245.438C403.472 250.809 402.411 255.362 401.848 257.754C401.835 257.823 401.822 257.886 401.809 257.954V257.967C401.743 258.451 401.806 258.942 401.992 259.397L401.999 259.403V259.409C402.179 259.845 402.472 260.229 402.85 260.527C403.103 260.726 403.389 260.885 403.695 260.996L409.603 263.107C409.932 263.224 410.28 263.286 410.631 263.288C411.123 263.289 411.608 263.171 412.039 262.945C412.658 262.625 413.137 262.104 413.388 261.477L426.108 229.649L428.079 224.708C431.374 225.445 459.013 231.273 468.268 221.879C470.096 219.992 471.14 217.534 471.202 214.965C471.267 213.198 471.066 211.431 470.606 209.719Z" fill="#2F2E41"/>
<path d="M469.879 154.619C469.775 154.501 469.663 154.382 469.545 154.269C467.801 152.521 465.647 151.191 463.259 150.388C460.872 149.586 458.319 149.334 455.811 149.654C453.622 149.928 451.454 150.335 449.32 150.872C446.563 151.548 444.04 152.897 441.997 154.788C440.407 156.259 439.154 158.028 438.318 159.985C437.483 161.942 437.083 164.043 437.144 166.155C437.17 167.011 437.177 167.885 437.164 168.772C437.164 169.184 437.157 169.603 437.151 170.021H443.609C443.889 170.02 444.168 170.052 444.44 170.115C445.229 170.294 445.93 170.722 446.433 171.328C446.935 171.934 447.209 172.684 447.211 173.456V202.511C447.65 202.63 448.088 202.749 448.521 202.873C448.658 202.917 448.79 202.955 448.92 202.992C449.071 203.036 449.222 203.08 449.366 203.123C450.695 203.517 451.994 203.933 453.263 204.372H455.398C455.796 204.373 456.18 204.511 456.479 204.762C456.778 205.012 456.971 205.358 457.022 205.734C457.468 205.903 457.9 206.071 458.326 206.24C459.839 206.839 461.273 207.439 462.59 208.02C464.364 208.794 465.943 209.531 467.266 210.175C467.682 210.377 468.142 210.484 468.609 210.487C469.222 210.485 469.818 210.297 470.312 209.95C470.414 209.878 470.512 209.801 470.606 209.719C470.957 209.405 471.222 209.015 471.378 208.582C471.534 208.149 471.578 207.686 471.504 207.233C470.827 202.327 470.63 197.371 470.914 192.431C471.097 188.277 471.49 184.018 472.001 179.902C472.277 177.672 472.584 175.486 472.905 173.381C473.213 171.37 473.541 169.44 473.862 167.616C474.283 165.304 474.143 162.93 473.452 160.677C472.762 158.424 471.54 156.352 469.879 154.619Z" fill="#FF4001"/>
<path d="M443.032 155.131C442.696 154.994 442.351 154.879 441.998 154.788C440.252 154.34 438.396 154.505 436.768 155.254C435.14 156.003 433.848 157.285 433.129 158.866L428.63 168.772L428.066 170.021H443.609C443.889 170.02 444.168 170.052 444.441 170.115L444.964 168.959L446.955 164.575C447.746 162.826 447.777 160.85 447.042 159.079C446.307 157.309 444.865 155.889 443.032 155.131Z" fill="#FF4001"/>
<path d="M457.007 144.777C465.891 144.777 473.093 137.909 473.093 129.437C473.093 120.965 465.891 114.097 457.007 114.097C448.122 114.097 440.92 120.965 440.92 129.437C440.92 137.909 448.122 144.777 457.007 144.777Z" fill="#FFB8B8"/>
<path d="M472.905 173.381L463.723 173.619L463.055 179.771L462.904 181.195L448.521 187.353L447.211 187.915V198.864L448.521 198.508L452.66 197.383H452.68L470.914 192.431L471.124 192.374C472.597 191.969 473.894 191.121 474.821 189.956C475.749 188.791 476.257 187.372 476.272 185.91L476.318 178.646L476.357 173.294L472.905 173.381Z" fill="#FFB8B8"/>
<path d="M475.892 161.215C475.831 160.273 475.577 159.352 475.143 158.504C474.709 157.657 474.104 156.899 473.363 156.274C471.867 155.012 469.905 154.368 467.911 154.485C465.917 154.602 464.053 155.469 462.73 156.896C461.406 158.324 460.732 160.194 460.854 162.095L461.856 177.685C461.883 178.095 462.004 178.494 462.212 178.855C462.419 179.215 462.707 179.528 463.055 179.771C463.608 180.164 464.291 180.357 464.98 180.314L472.002 179.902L474.13 179.777C474.518 179.759 474.898 179.666 475.247 179.504C475.596 179.342 475.907 179.114 476.161 178.834C476.217 178.774 476.269 178.712 476.318 178.646C476.734 178.115 476.938 177.46 476.894 176.798L475.892 161.215Z" fill="#FF4001"/>
<path d="M449.366 203.123H448.521V203.042C448.089 203.098 447.65 203.154 447.211 203.217V204.372H453.263C451.992 203.935 450.693 203.519 449.366 203.123ZM449.366 203.123H448.521V203.042C448.089 203.098 447.65 203.154 447.211 203.217V204.372H453.263C451.992 203.935 450.693 203.519 449.366 203.123ZM455.398 203.123H448.521V173.456C448.519 172.44 448.171 171.453 447.529 170.642C446.888 169.831 445.988 169.241 444.964 168.959C444.525 168.833 444.068 168.77 443.609 168.772H385.317C384.014 168.773 382.766 169.267 381.845 170.146C380.924 171.024 380.406 172.214 380.405 173.456V204.06C380.405 205.302 380.923 206.494 381.844 207.372C382.765 208.25 384.014 208.744 385.317 208.744H455.398C456.124 208.743 456.823 208.487 457.363 208.025C457.903 207.563 458.246 206.928 458.326 206.24C458.339 206.138 458.346 206.036 458.345 205.934C458.344 205.189 458.033 204.475 457.481 203.948C456.928 203.421 456.179 203.124 455.398 203.123H455.398ZM457.036 205.934C457.035 206.348 456.863 206.745 456.556 207.038C456.249 207.331 455.832 207.495 455.398 207.495H385.317C384.362 207.495 383.446 207.133 382.77 206.489C382.095 205.844 381.715 204.971 381.714 204.06V173.456C381.715 172.545 382.095 171.672 382.77 171.028C383.446 170.384 384.362 170.022 385.317 170.021H443.609C443.889 170.02 444.168 170.052 444.441 170.115C445.229 170.294 445.93 170.722 446.433 171.328C446.935 171.934 447.21 172.684 447.211 173.456V204.372H455.398C455.796 204.373 456.18 204.511 456.479 204.762C456.778 205.012 456.971 205.358 457.022 205.734C457.029 205.803 457.035 205.865 457.035 205.934H457.036ZM449.366 203.123H448.521V203.042C448.089 203.098 447.65 203.154 447.211 203.217V204.372H453.263C451.992 203.935 450.693 203.519 449.366 203.123Z" fill="#3F3D56"/>
<path d="M414.461 192.507C416.631 192.507 418.39 190.829 418.39 188.759C418.39 186.689 416.631 185.012 414.461 185.012C412.29 185.012 410.531 186.689 410.531 188.759C410.531 190.829 412.29 192.507 414.461 192.507Z" fill="#FF4001"/>
<path d="M453.572 123.352C449.835 126.535 444.826 129.951 440.25 127.619C437.246 126.088 435.909 122.73 436.61 119.551C437.872 113.835 443.054 110.747 448.072 108.25C454.594 105.004 461.792 102.174 469.096 103.018C476.4 103.861 483.536 109.617 483.191 116.625C482.914 122.261 478.088 127.518 479.616 132.969C481.153 138.455 488.136 140.579 494.083 140.858C500.031 141.137 506.578 140.654 511.296 144.118C517.314 148.537 517.218 157.779 512.933 163.76C508.649 169.742 501.414 173.107 494.307 175.666C484.891 179.056 474.542 181.505 464.823 179.013C455.103 176.521 446.595 167.629 448.02 158.128C448.622 154.115 450.836 150.513 452.973 147.008C455.11 143.503 457.259 139.849 457.708 135.818C458.081 132.458 456.962 128.75 454.364 126.586C453.894 126.209 453.561 125.7 453.413 125.131C453.265 124.562 453.31 123.964 453.541 123.421L453.572 123.352Z" fill="#2F2E41"/>
<path d="M0.779861 283H507.261C507.468 283 507.666 282.922 507.812 282.782C507.959 282.643 508.041 282.454 508.041 282.256C508.041 282.059 507.959 281.87 507.812 281.731C507.666 281.591 507.468 281.513 507.261 281.513H0.779861C0.677258 281.512 0.575609 281.531 0.480731 281.569C0.385853 281.606 0.29962 281.661 0.226964 281.73C0.154307 281.799 0.096659 281.881 0.0573258 281.971C0.0179927 282.062 -0.0022583 282.159 -0.0022583 282.256C-0.0022583 282.354 0.0179927 282.451 0.0573258 282.541C0.096659 282.632 0.154307 282.714 0.226964 282.783C0.29962 282.852 0.385853 282.907 0.480731 282.944C0.575609 282.981 0.677258 283 0.779861 283Z" fill="#3F3D56"/>
<path d="M26.4803 220.947V222.196C26.4822 224.266 27.3453 226.251 28.8803 227.714C30.4153 229.178 32.4966 230.001 34.6674 230.003H93.6143C95.7854 230.002 97.8673 229.18 99.4025 227.716C100.938 226.252 101.801 224.266 101.801 222.196V220.947C101.805 219.12 101.133 217.35 99.9017 215.95C99.4921 215.485 99.0285 215.066 98.5198 214.701C98.5198 214.701 66.1121 214.002 66.1121 213.14H34.6674C32.4969 213.143 30.4163 213.966 28.8815 215.429C27.3468 216.893 26.4833 218.877 26.4803 220.947Z" fill="#3F3D56"/>
<path d="M59.5592 282.157H68.0737V229.693H59.5592L59.5592 282.157Z" fill="#3F3D56"/>
<path d="M35.3254 281.872C35.3254 282.749 48.2279 282.211 64.1439 282.211C80.0599 282.211 92.9624 282.749 92.9624 281.872C92.9624 280.994 80.0599 274.037 64.1439 274.037C48.2279 274.037 35.3254 280.994 35.3254 281.872Z" fill="#3F3D56"/>
<path d="M107.107 275.447H115.136L118.956 245.912L107.105 245.912L107.107 275.447Z" fill="#A0616A"/>
<path d="M130.623 282.556L105.386 282.557L105.386 273.259L120.872 273.258C123.458 273.258 125.938 274.238 127.766 275.981C129.595 277.725 130.623 280.09 130.623 282.556L130.623 282.556Z" fill="#2F2E41"/>
<path d="M119.641 271.173L127.302 268.88L121.675 239.61L110.368 242.994L119.641 271.173Z" fill="#A0616A"/>
<path d="M144.31 271.243L120.232 278.448L117.313 269.577L132.088 265.155C134.555 264.417 137.229 264.644 139.521 265.785C141.813 266.927 143.536 268.89 144.31 271.243L144.31 271.243Z" fill="#2F2E41"/>
<path d="M114.269 257.579L99.5802 220.81C96.2847 221.548 68.6484 227.38 59.3922 217.982C56.22 214.761 55.6014 210.095 57.5533 204.112L62.9552 197.638L63.1231 197.647C65.1655 197.749 113.186 200.316 116.477 214.129C119.253 225.773 124.322 247.484 125.809 253.861C125.96 254.521 125.856 255.212 125.518 255.806C125.18 256.4 124.629 256.859 123.966 257.098L118.058 259.21C117.729 259.329 117.381 259.389 117.029 259.389C116.431 259.389 115.847 259.216 115.354 258.893C114.862 258.57 114.483 258.112 114.269 257.579Z" fill="#2F2E41"/>
<path d="M105.755 261.951L91.0656 225.182C87.77 225.92 60.1338 231.751 50.8776 222.354C47.7054 219.133 47.0868 214.466 49.0387 208.484L54.4406 202.01L54.6085 202.019C56.6509 202.121 104.671 204.688 107.963 218.501C110.738 230.145 115.807 251.856 117.294 258.233C117.445 258.893 117.342 259.584 117.004 260.178C116.665 260.772 116.114 261.231 115.451 261.47L109.544 263.582C109.215 263.701 108.866 263.761 108.514 263.761C107.916 263.761 107.332 263.588 106.84 263.265C106.347 262.942 105.969 262.484 105.755 261.951Z" fill="#2F2E41"/>
<path d="M92.5417 190.614C90.3647 190.614 88.2251 190.074 86.3325 189.048C84.4399 188.022 82.8592 186.545 81.7449 184.761L77.0799 177.225L88.168 171.446L92.8761 177.602L124.821 174.392C124.977 174.124 125.152 173.867 125.345 173.622C125.958 172.853 126.734 172.215 127.622 171.751C128.511 171.287 129.492 171.006 130.501 170.927C131.516 170.844 132.537 170.969 133.496 171.294C134.456 171.618 135.331 172.135 136.064 172.809C137.239 173.883 137.998 175.304 138.219 176.842C138.44 178.38 138.11 179.944 137.282 181.28C136.764 182.113 136.067 182.831 135.237 183.389C134.408 183.947 133.464 184.332 132.467 184.518C131.471 184.703 130.444 184.686 129.455 184.468C128.466 184.249 127.537 183.833 126.728 183.248C126.541 183.111 126.361 182.965 126.189 182.811L95.5928 190.25C94.5957 190.492 93.5707 190.615 92.5417 190.614Z" fill="#A0616A"/>
<path d="M48.831 210.425C48.389 210.121 48.0437 209.707 47.8335 209.227C47.6232 208.748 47.5563 208.223 47.6399 207.709C49.4624 196.253 47.3655 179.841 45.2855 168.091C44.8597 165.707 45.0254 163.261 45.7693 160.949C46.5131 158.637 47.8145 156.523 49.5691 154.777C51.3238 153.03 53.4829 151.7 55.8735 150.893C58.2642 150.086 60.8199 149.823 63.3359 150.127C65.525 150.403 67.6935 150.811 69.8285 151.348C73.3749 152.199 76.5119 154.176 78.7238 156.954C80.9356 159.731 82.0907 163.143 81.9991 166.63C81.688 177.968 84.1024 192.116 85.1549 197.671C85.2267 198.053 85.2153 198.445 85.1214 198.822C85.0274 199.199 84.8529 199.554 84.6088 199.864C84.3695 200.171 84.0655 200.427 83.7163 200.615C83.3672 200.803 82.9806 200.92 82.5814 200.957C70.9177 202.092 58.3397 207.516 51.8802 210.648C51.4651 210.853 51.005 210.96 50.5379 210.961C49.9238 210.959 49.3261 210.772 48.831 210.425Z" fill="#CCCCCC"/>
<path d="M80.3158 180.876C79.9553 180.741 79.6265 180.539 79.3484 180.282C79.0703 180.025 78.8484 179.718 78.6956 179.378L72.1909 165.049C71.7971 164.184 71.586 163.252 71.5697 162.309C71.5535 161.365 71.7324 160.428 72.0963 159.55C72.4601 158.672 73.0018 157.872 73.6903 157.194C74.3788 156.516 75.2007 155.974 76.1089 155.599C77.0171 155.224 77.9938 155.024 78.9834 155.009C79.9729 154.995 80.9557 155.166 81.8758 155.514C82.7958 155.861 83.6349 156.379 84.3452 157.036C85.0555 157.693 85.623 158.477 86.0154 159.343L92.5203 173.672C92.8297 174.357 92.842 175.13 92.5544 175.823C92.2669 176.515 91.703 177.071 90.9863 177.368L82.5714 180.842C82.2165 180.989 81.8344 181.068 81.4472 181.074C81.06 181.08 80.6755 181.013 80.3158 180.876H80.3158Z" fill="#CCCCCC"/>
<path d="M62.1388 145.253C71.0232 145.253 78.2255 138.385 78.2255 129.913C78.2255 121.44 71.0232 114.572 62.1388 114.572C53.2544 114.572 46.0522 121.44 46.0522 129.913C46.0522 138.385 53.2544 145.253 62.1388 145.253Z" fill="#A0616A"/>
<path d="M52.4173 143.541C52.1894 143.792 51.9111 143.997 51.5988 144.143C51.2865 144.29 50.9466 144.375 50.5991 144.394C50.2517 144.413 49.9037 144.365 49.5759 144.254C49.248 144.143 48.947 143.97 48.6905 143.745C45.1034 140.976 42.2585 137.434 40.3905 133.409C38.2992 128.656 37.9927 122.855 40.3729 118.399C42.3849 114.632 45.9968 112.235 49.6026 110.275C50.9849 109.445 52.4997 108.834 54.0877 108.468C54.8897 108.294 55.721 108.282 56.5281 108.434C57.3351 108.585 58.0999 108.896 58.7733 109.346C59.4878 109.864 60.0409 110.558 60.373 111.354C60.7051 112.149 60.8037 113.015 60.6583 113.86C62.3077 111.788 64.5312 110.197 67.0783 109.265C68.6411 108.624 70.3872 108.512 72.0258 108.949C74.3414 109.686 76.0555 111.916 77.0093 114.312C77.7806 116.146 78.0632 118.134 77.8316 120.098C77.7306 121.036 77.4306 121.944 76.9499 122.768C76.4693 123.591 75.8179 124.313 75.0355 124.889C73.1466 126.132 70.7132 126.006 68.5165 125.456C66.3198 124.906 64.1879 123.973 61.9529 123.713C59.7179 123.453 57.241 124.017 55.9093 125.918C54.9716 127.256 54.7505 129.02 54.5592 130.701L53.564 139.444C53.4937 140.695 53.2111 141.927 52.7272 143.091C52.6453 143.254 52.5411 143.405 52.4173 143.541Z" fill="#2F2E41"/>
<path d="M110.603 238.02H84.4876C84.0644 238.021 83.6465 237.93 83.2657 237.754C82.8849 237.578 82.5512 237.322 82.2901 237.004C82.0232 236.682 81.8368 236.307 81.7452 235.906C81.6536 235.505 81.6592 235.089 81.7615 234.69C84.2042 224.933 84.2042 214.765 81.7613 205.008C81.659 204.609 81.6535 204.193 81.7452 203.793C81.8368 203.392 82.0232 203.016 82.2901 202.694C82.5512 202.376 82.8849 202.12 83.2657 201.944C83.6465 201.768 84.0644 201.677 84.4876 201.678H110.603C111.27 201.68 111.915 201.907 112.423 202.319C112.932 202.731 113.27 203.302 113.378 203.93C115.081 214.481 115.081 225.217 113.378 235.768C113.27 236.396 112.932 236.967 112.423 237.379C111.915 237.792 111.27 238.019 110.603 238.02Z" fill="#CCCCCC"/>
<path d="M90.5593 215.217V214.485C90.5598 213.988 90.767 213.512 91.1354 213.161C91.5038 212.809 92.0032 212.612 92.5242 212.611H106.228C106.749 212.612 107.249 212.809 107.617 213.161C107.986 213.512 108.193 213.988 108.193 214.485V215.217C108.193 215.714 107.986 216.19 107.617 216.541C107.249 216.892 106.749 217.09 106.228 217.091H92.5242C92.0032 217.09 91.5038 216.892 91.1354 216.541C90.767 216.19 90.5598 215.714 90.5593 215.217Z" fill="white"/>
<path d="M90.5593 222.927V222.195C90.5598 221.698 90.767 221.222 91.1354 220.87C91.5038 220.519 92.0032 220.322 92.5242 220.321H106.228C106.749 220.322 107.249 220.519 107.617 220.87C107.986 221.222 108.193 221.698 108.193 222.195V222.927C108.193 223.424 107.986 223.9 107.617 224.251C107.249 224.603 106.749 224.8 106.228 224.801H92.5242C92.0032 224.8 91.5038 224.603 91.1354 224.251C90.767 223.9 90.5598 223.424 90.5593 222.927Z" fill="white"/>
<path d="M98.9837 192.893C98.7124 192.566 98.5229 192.184 98.4298 191.776C98.3367 191.368 98.3422 190.946 98.4461 190.541C100.929 180.623 100.929 170.288 98.446 160.37C98.3421 159.965 98.3366 159.543 98.4298 159.135C98.523 158.727 98.7124 158.345 98.9837 158.018C99.2492 157.695 99.5884 157.435 99.9754 157.256C100.363 157.077 100.787 156.985 101.217 156.986H127.761C128.44 156.987 129.095 157.218 129.612 157.637C130.129 158.056 130.472 158.637 130.582 159.275C132.314 169.999 132.314 180.912 130.582 191.636C130.472 192.274 130.129 192.855 129.612 193.274C129.095 193.693 128.44 193.924 127.761 193.925H101.217C100.787 193.926 100.362 193.834 99.9754 193.655C99.5884 193.476 99.2492 193.215 98.9837 192.893Z" fill="#FF4001"/>
<path d="M122.639 170.615H108.656C108.135 170.615 107.636 170.417 107.267 170.066C106.899 169.715 106.692 169.238 106.691 168.742V167.946C106.692 167.449 106.899 166.973 107.267 166.622C107.636 166.27 108.135 166.073 108.656 166.072H122.639C123.16 166.073 123.66 166.27 124.028 166.622C124.396 166.973 124.603 167.449 124.604 167.946V168.742C124.603 169.238 124.396 169.715 124.028 170.066C123.66 170.417 123.16 170.615 122.639 170.615Z" fill="white"/>
<path d="M122.639 178.452H108.656C108.135 178.452 107.636 178.254 107.267 177.903C106.899 177.551 106.692 177.075 106.691 176.578V175.783C106.692 175.286 106.899 174.81 107.267 174.458C107.636 174.107 108.135 173.909 108.656 173.909H122.639C123.16 173.909 123.66 174.107 124.028 174.458C124.396 174.81 124.603 175.286 124.604 175.783V176.578C124.603 177.075 124.396 177.551 124.028 177.903C123.66 178.254 123.16 178.452 122.639 178.452Z" fill="white"/>
<path d="M86.8047 206.632C85.8482 206.313 84.9728 205.806 84.2355 205.144C83.4982 204.481 82.9154 203.678 82.5252 202.786C82.4351 202.578 82.3566 202.366 82.2899 202.15L48.0208 192.848C46.5482 192.443 45.2519 191.595 44.3244 190.431C43.3969 189.268 42.8876 187.85 42.8721 186.388L42.7885 173.771L55.42 174.093L56.2432 181.672L85.5469 194.218C85.8227 194.06 86.1098 193.922 86.4059 193.803H86.406C87.4854 193.371 88.6588 193.196 89.8247 193.294C90.9907 193.392 92.1143 193.758 93.0984 194.363C94.0824 194.967 94.8975 195.79 95.4731 196.762C96.0488 197.734 96.3677 198.825 96.4024 199.941C96.437 201.056 96.1864 202.163 95.6721 203.166C95.1578 204.168 94.3953 205.036 93.4505 205.695C92.5056 206.354 91.4068 206.784 90.249 206.947C89.0911 207.11 87.909 207.002 86.8047 206.632Z" fill="#A0616A"/>
<path d="M42.9849 179.31C42.7276 179.034 42.5303 178.712 42.4044 178.363C42.2785 178.013 42.2265 177.644 42.2514 177.275L43.2561 161.691C43.3153 160.748 43.5687 159.826 44.002 158.977C44.4353 158.128 45.0398 157.369 45.7811 156.743C46.5224 156.117 47.3858 155.636 48.322 155.329C49.2582 155.021 50.2488 154.893 51.2372 154.951C52.2255 155.009 53.1921 155.252 54.0817 155.667C54.9713 156.081 55.7665 156.659 56.4217 157.367C57.0769 158.075 57.5793 158.899 57.9002 159.792C58.221 160.686 58.354 161.63 58.2916 162.573L57.287 178.158C57.238 178.901 56.8818 179.596 56.2964 180.089C55.7111 180.583 54.9444 180.835 54.1645 180.79L45.0122 180.254C44.6257 180.232 44.2474 180.137 43.8994 179.976C43.5514 179.814 43.2406 179.587 42.9849 179.31H42.9849Z" fill="#CCCCCC"/>
<path d="M190.282 95.599H136.575C135.012 95.5973 133.514 95.0046 132.409 93.9508C131.304 92.897 130.682 91.4682 130.68 89.9779V34.3912C130.682 32.9009 131.304 31.4722 132.409 30.4184C133.514 29.3646 135.012 28.7718 136.575 28.7701H190.282C191.845 28.7718 193.343 29.3646 194.448 30.4184C195.553 31.4722 196.175 32.9009 196.177 34.3912V89.9779C196.175 91.4682 195.553 92.897 194.448 93.9508C193.343 95.0046 191.845 95.5973 190.282 95.599ZM136.575 30.0192C135.359 30.0205 134.194 30.4816 133.334 31.3012C132.475 32.1208 131.991 33.2321 131.99 34.3912V89.9779C131.991 91.137 132.475 92.2483 133.334 93.0679C134.194 93.8876 135.359 94.3486 136.575 94.3499H190.282C191.498 94.3486 192.663 93.8876 193.522 93.0679C194.382 92.2483 194.865 91.137 194.867 89.9779V34.3912C194.865 33.2321 194.382 32.1208 193.522 31.3012C192.663 30.4816 191.498 30.0205 190.282 30.0192H136.575Z" fill="#3F3D56"/>
<path d="M288.527 95.599H234.82C233.257 95.5973 231.759 95.0046 230.654 93.9508C229.548 92.897 228.927 91.4682 228.925 89.9779V34.3912C228.927 32.9009 229.548 31.4722 230.654 30.4184C231.759 29.3646 233.257 28.7718 234.82 28.7701H288.527C290.09 28.7718 291.588 29.3646 292.693 30.4184C293.798 31.4722 294.42 32.9009 294.422 34.3912V89.9779C294.42 91.4682 293.798 92.897 292.693 93.9508C291.588 95.0046 290.09 95.5973 288.527 95.599ZM234.82 30.0192C233.604 30.0205 232.439 30.4816 231.579 31.3012C230.72 32.1208 230.236 33.2321 230.235 34.3912V89.9779C230.236 91.137 230.72 92.2483 231.579 93.0679C232.439 93.8876 233.604 94.3486 234.82 94.3499H288.527C289.742 94.3486 290.908 93.8876 291.767 93.0679C292.627 92.2483 293.11 91.137 293.112 89.9779V34.3912C293.11 33.2321 292.627 32.1208 291.767 31.3012C290.908 30.4816 289.742 30.0205 288.527 30.0192H234.82Z" fill="#3F3D56"/>
<path d="M147.392 51.8792H142.152C141.37 51.8783 140.621 51.582 140.069 51.055C139.516 50.5281 139.205 49.8138 139.205 49.0686V44.072C139.205 43.3269 139.516 42.6125 140.069 42.0856C140.621 41.5587 141.37 41.2623 142.152 41.2615H147.392C148.173 41.2623 148.922 41.5587 149.475 42.0856C150.027 42.6125 150.338 43.3269 150.339 44.072V49.0686C150.338 49.8138 150.027 50.5281 149.475 51.055C148.922 51.582 148.173 51.8783 147.392 51.8792Z" fill="#FF4001"/>
<path d="M147.392 67.4934H142.152C141.37 67.4926 140.621 67.1962 140.069 66.6693C139.516 66.1424 139.205 65.428 139.205 64.6829V59.6863C139.205 58.9411 139.516 58.2267 140.069 57.6998C140.621 57.1729 141.37 56.8766 142.152 56.8757H147.392C148.173 56.8766 148.922 57.1729 149.475 57.6998C150.027 58.2267 150.338 58.9411 150.339 59.6863V64.6829C150.338 65.428 150.027 66.1424 149.475 66.6693C148.922 67.1962 148.173 67.4926 147.392 67.4934Z" fill="#CCCCCC"/>
<path d="M185.687 48.8418H161.225C160.704 48.8413 160.204 48.6437 159.836 48.2924C159.468 47.9412 159.261 47.4649 159.26 46.9681V46.1725C159.261 45.6757 159.468 45.1994 159.836 44.8482C160.204 44.4969 160.704 44.2993 161.225 44.2988H185.687C186.208 44.2993 186.708 44.4969 187.076 44.8482C187.445 45.1994 187.652 45.6757 187.652 46.1725V46.9681C187.652 47.4649 187.445 47.9412 187.076 48.2924C186.708 48.6437 186.208 48.8413 185.687 48.8418Z" fill="#FF4001"/>
<path d="M246.088 50.8995H240.848C240.067 50.8987 239.318 50.6023 238.765 50.0754C238.213 49.5485 237.902 48.8341 237.901 48.089V43.0924C237.902 42.3473 238.213 41.6329 238.765 41.106C239.318 40.5791 240.067 40.2827 240.848 40.2819H246.088C246.87 40.2827 247.619 40.5791 248.171 41.106C248.724 41.6329 249.035 42.3473 249.036 43.0924V48.089C249.035 48.8341 248.724 49.5485 248.171 50.0754C247.619 50.6023 246.87 50.8987 246.088 50.8995Z" fill="#CCCCCC"/>
<path d="M284.384 47.8622H259.922C259.401 47.8617 258.901 47.6641 258.533 47.3128C258.164 46.9616 257.957 46.4853 257.957 45.9885V45.1929C257.957 44.6961 258.164 44.2198 258.533 43.8685C258.901 43.5173 259.401 43.3197 259.922 43.3192H284.384C284.905 43.3197 285.404 43.5173 285.773 43.8685C286.141 44.2198 286.348 44.6961 286.349 45.1929V45.9885C286.348 46.4853 286.141 46.9616 285.773 47.3128C285.404 47.6641 284.905 47.8617 284.384 47.8622Z" fill="#CCCCCC"/>
<path d="M284.384 62.8519H238.963C238.442 62.8514 237.942 62.6538 237.574 62.3025C237.205 61.9512 236.998 61.475 236.998 60.9782V60.1825C236.998 59.6858 237.205 59.2095 237.574 58.8582C237.942 58.507 238.442 58.3094 238.963 58.3088H284.384C284.905 58.3094 285.404 58.507 285.773 58.8582C286.141 59.2095 286.348 59.6858 286.349 60.1825V60.9782C286.348 61.475 286.141 61.9512 285.773 62.3025C285.404 62.6538 284.905 62.8514 284.384 62.8519Z" fill="#FF4001"/>
<path d="M284.384 73.4696H238.963C238.442 73.469 237.942 73.2715 237.574 72.9202C237.205 72.5689 236.998 72.0927 236.998 71.5959V70.8002C236.998 70.3035 237.205 69.8272 237.574 69.4759C237.942 69.1246 238.442 68.9271 238.963 68.9265H284.384C284.905 68.9271 285.404 69.1246 285.773 69.4759C286.141 69.8272 286.348 70.3035 286.349 70.8002V71.5959C286.348 72.0927 286.141 72.5689 285.773 72.9202C285.404 73.2715 284.905 73.469 284.384 73.4696Z" fill="#CCCCCC"/>
<path d="M284.384 84.0873H238.963C238.442 84.0867 237.942 83.8891 237.574 83.5379C237.205 83.1866 236.998 82.7103 236.998 82.2136V81.4179C236.998 80.9211 237.205 80.4449 237.574 80.0936C237.942 79.7423 238.442 79.5447 238.963 79.5442H284.384C284.905 79.5447 285.404 79.7423 285.773 80.0936C286.141 80.4449 286.348 80.9211 286.349 81.4179V82.2136C286.348 82.7103 286.141 83.1866 285.773 83.5379C285.404 83.8891 284.905 84.0867 284.384 84.0873Z" fill="#CCCCCC"/>
<path d="M386.772 95.599H333.065C331.502 95.5973 330.003 95.0046 328.898 93.9508C327.793 92.897 327.172 91.4682 327.17 89.9779V34.3912C327.172 32.9009 327.793 31.4722 328.898 30.4184C330.003 29.3646 331.502 28.7718 333.065 28.7701H386.772C388.335 28.7718 389.833 29.3646 390.938 30.4184C392.043 31.4722 392.665 32.9009 392.667 34.3912V89.9779C392.665 91.4682 392.043 92.897 390.938 93.9508C389.833 95.0046 388.335 95.5973 386.772 95.599ZM333.065 30.0192C331.849 30.0205 330.684 30.4816 329.824 31.3012C328.965 32.1208 328.481 33.2321 328.48 34.3912V89.9779C328.481 91.137 328.965 92.2483 329.824 93.0679C330.684 93.8876 331.849 94.3486 333.065 94.3499H386.772C387.987 94.3486 389.153 93.8876 390.012 93.0679C390.872 92.2483 391.355 91.137 391.357 89.9779V34.3912C391.355 33.2321 390.872 32.1208 390.012 31.3012C389.153 30.4816 387.987 30.0205 386.772 30.0192H333.065Z" fill="#3F3D56"/>
<path d="M382.629 47.8622H358.166C357.645 47.8617 357.146 47.6641 356.778 47.3128C356.409 46.9616 356.202 46.4853 356.201 45.9885V45.1929C356.202 44.6961 356.409 44.2198 356.778 43.8685C357.146 43.5173 357.645 43.3197 358.166 43.3192H382.629C383.15 43.3197 383.649 43.5173 384.018 43.8685C384.386 44.2198 384.593 44.6961 384.594 45.1929V45.9885C384.593 46.4853 384.386 46.9616 384.018 47.3128C383.649 47.6641 383.15 47.8617 382.629 47.8622Z" fill="#CCCCCC"/>
<path d="M382.629 62.8519H337.207C336.687 62.8514 336.187 62.6538 335.819 62.3025C335.45 61.9512 335.243 61.475 335.243 60.9782V60.1825C335.243 59.6858 335.45 59.2095 335.819 58.8582C336.187 58.507 336.687 58.3094 337.207 58.3088H382.629C383.15 58.3094 383.649 58.507 384.018 58.8582C384.386 59.2095 384.593 59.6858 384.594 60.1825V60.9782C384.593 61.475 384.386 61.9512 384.018 62.3025C383.649 62.6538 383.15 62.8514 382.629 62.8519Z" fill="#CCCCCC"/>
<path d="M382.629 73.4696H337.207C336.687 73.469 336.187 73.2715 335.819 72.9202C335.45 72.5689 335.243 72.0927 335.243 71.5959V70.8002C335.243 70.3035 335.45 69.8272 335.819 69.4759C336.187 69.1246 336.687 68.9271 337.207 68.9265H382.629C383.15 68.9271 383.649 69.1246 384.018 69.4759C384.386 69.8272 384.593 70.3035 384.594 70.8002V71.5959C384.593 72.0927 384.386 72.5689 384.018 72.9202C383.649 73.2715 383.15 73.469 382.629 73.4696Z" fill="#CCCCCC"/>
<path d="M382.629 84.0873H337.207C336.687 84.0867 336.187 83.8891 335.819 83.5379C335.45 83.1866 335.243 82.7103 335.243 82.2136V81.4179C335.243 80.9211 335.45 80.4449 335.819 80.0936C336.187 79.7423 336.687 79.5447 337.207 79.5442H382.629C383.15 79.5447 383.649 79.7423 384.018 80.0936C384.386 80.4449 384.593 80.9211 384.594 81.4179V82.2136C384.593 82.7103 384.386 83.1866 384.018 83.5379C383.649 83.8891 383.15 84.0867 382.629 84.0873Z" fill="#CCCCCC"/>
<path d="M185.687 64.4561H161.225C160.704 64.4556 160.204 64.258 159.836 63.9067C159.468 63.5554 159.261 63.0792 159.26 62.5824V61.7867C159.261 61.29 159.468 60.8137 159.836 60.4624C160.204 60.1111 160.704 59.9136 161.225 59.913H185.687C186.208 59.9136 186.708 60.1111 187.076 60.4624C187.445 60.8137 187.652 61.29 187.652 61.7867V62.5824C187.652 63.0792 187.445 63.5554 187.076 63.9067C186.708 64.258 186.208 64.4556 185.687 64.4561Z" fill="#CCCCCC"/>
<path d="M147.392 83.1077H142.152C141.37 83.1068 140.621 82.8105 140.069 82.2836C139.516 81.7567 139.205 81.0423 139.205 80.2971V75.3006C139.205 74.5554 139.516 73.841 140.069 73.3141C140.621 72.7872 141.37 72.4908 142.152 72.49H147.392C148.173 72.4908 148.922 72.7872 149.475 73.3141C150.027 73.841 150.338 74.5554 150.339 75.3006V80.2971C150.338 81.0423 150.027 81.7567 149.475 82.2836C148.922 82.8105 148.173 83.1068 147.392 83.1077Z" fill="#CCCCCC"/>
<path d="M185.687 80.0704H161.225C160.704 80.0698 160.204 79.8722 159.836 79.521C159.468 79.1697 159.261 78.6934 159.26 78.1966V77.401C159.261 76.9042 159.468 76.4279 159.836 76.0767C160.204 75.7254 160.704 75.5278 161.225 75.5273H185.687C186.208 75.5278 186.708 75.7254 187.076 76.0767C187.445 76.4279 187.652 76.9042 187.652 77.401V78.1966C187.652 78.6934 187.445 79.1697 187.076 79.521C186.708 79.8722 186.208 80.0698 185.687 80.0704Z" fill="#CCCCCC"/>
<path d="M347.472 45.0089C347.472 44.9945 347.474 44.9806 347.474 44.9662C347.474 44.228 347.321 43.497 347.025 42.815C346.729 42.1331 346.295 41.5134 345.747 40.9914C345.2 40.4694 344.55 40.0554 343.835 39.7729C343.12 39.4904 342.353 39.345 341.579 39.345V45.0089H347.472Z" fill="#FF4001"/>
<path d="M340.924 45.6335V39.9696C339.76 39.9692 338.622 40.2975 337.653 40.913C336.685 41.5285 335.929 42.4038 335.481 43.4284C335.033 44.453 334.914 45.5811 335.137 46.6704C335.361 47.7598 335.918 48.7616 336.737 49.5496C337.557 50.3376 338.603 50.8766 339.744 51.0984C340.884 51.3203 342.068 51.2152 343.146 50.7964C344.224 50.3775 345.148 49.6637 345.801 48.7449C346.454 47.8261 346.808 46.7435 346.817 45.6335H340.924Z" fill="#CCCCCC"/>
</g>
<defs>
<clipPath id="clip0_171_1561">
<rect width="516" height="283" fill="white"/>
</clipPath>
</defs>
</svg>
