<svg width="1156" height="617" viewBox="0 0 1156 617" fill="none" xmlns="http://www.w3.org/2000/svg">
<g clip-path="url(#clip0_647_8)">
<path d="M32.3477 541.867C32.3515 535.633 34.3485 529.655 37.8996 525.248C41.4508 520.841 46.2655 518.366 51.2857 518.366C56.3059 518.366 61.1206 520.841 64.6718 525.248C68.2229 529.655 70.2199 535.633 70.2237 541.867" fill="#F2F2F2"/>
<path d="M51.2857 541.867C51.15 541.867 51.0198 541.8 50.9238 541.681C50.8278 541.562 50.7739 541.4 50.7739 541.231V528.836C50.7739 528.668 50.8278 528.506 50.9238 528.387C51.0198 528.267 51.15 528.2 51.2857 528.2C51.4215 528.2 51.5516 528.267 51.6476 528.387C51.7436 528.506 51.7976 528.668 51.7976 528.836V541.231C51.7975 541.4 51.7436 541.562 51.6476 541.681C51.5516 541.8 51.4214 541.867 51.2857 541.867V541.867Z" fill="#CCCCCC"/>
<path d="M51.2854 537.608C51.1632 537.608 51.0449 537.554 50.9523 537.454L44.8103 530.908C44.7586 530.853 44.716 530.787 44.6851 530.712C44.6542 530.638 44.6354 530.556 44.63 530.473C44.6246 530.389 44.6325 530.305 44.6534 530.225C44.6743 530.145 44.7078 530.071 44.7518 530.008C44.7958 529.944 44.8496 529.892 44.91 529.854C44.9703 529.816 45.0361 529.794 45.1036 529.788C45.171 529.782 45.2387 529.792 45.3028 529.819C45.3669 529.845 45.4261 529.888 45.477 529.943L51.6191 536.49C51.6984 536.574 51.755 536.687 51.7812 536.813C51.8074 536.939 51.802 537.071 51.7657 537.193C51.7293 537.315 51.6638 537.42 51.5779 537.494C51.4921 537.568 51.39 537.608 51.2854 537.608L51.2854 537.608Z" fill="#CCCCCC"/>
<path d="M90.6972 541.867C90.701 535.633 92.698 529.655 96.2491 525.248C99.8003 520.841 104.615 518.366 109.635 518.366C114.655 518.366 119.47 520.841 123.021 525.248C126.572 529.655 128.569 535.633 128.573 541.867" fill="#F2F2F2"/>
<path d="M109.635 541.867C109.499 541.867 109.369 541.8 109.273 541.681C109.177 541.562 109.123 541.4 109.123 541.231V528.836C109.123 528.668 109.177 528.506 109.273 528.387C109.369 528.267 109.499 528.2 109.635 528.2C109.771 528.2 109.901 528.267 109.997 528.387C110.093 528.506 110.147 528.668 110.147 528.836V541.231C110.147 541.4 110.093 541.562 109.997 541.681C109.901 541.8 109.771 541.867 109.635 541.867V541.867Z" fill="#CCCCCC"/>
<path d="M109.635 537.608C109.513 537.608 109.394 537.554 109.302 537.455L103.16 530.908C103.108 530.854 103.065 530.787 103.034 530.713C103.003 530.638 102.985 530.556 102.979 530.473C102.974 530.389 102.982 530.305 103.003 530.225C103.023 530.145 103.057 530.071 103.101 530.007C103.145 529.944 103.199 529.891 103.259 529.853C103.32 529.816 103.385 529.793 103.453 529.787C103.52 529.781 103.588 529.792 103.652 529.819C103.716 529.846 103.776 529.888 103.827 529.943L109.969 536.49C110.048 536.574 110.105 536.687 110.131 536.813C110.157 536.939 110.152 537.071 110.115 537.193C110.079 537.315 110.013 537.42 109.927 537.494C109.842 537.568 109.74 537.608 109.635 537.608L109.635 537.608Z" fill="#CCCCCC"/>
<path d="M865.84 92.2247C885.948 92.2247 902.248 71.981 902.248 47.0091C902.248 22.0372 885.948 1.79346 865.84 1.79346C845.733 1.79346 829.432 22.0372 829.432 47.0091C829.432 71.981 845.733 92.2247 865.84 92.2247Z" fill="#F2F2F2"/>
<path d="M120.03 592.337C138.31 592.337 153.129 588.043 153.129 582.746C153.129 577.449 138.31 573.155 120.03 573.155C101.751 573.155 86.9324 577.449 86.9324 582.746C86.9324 588.043 101.751 592.337 120.03 592.337Z" fill="#F2F2F2"/>
<path d="M103.135 189.032C111.815 155.369 133.011 129.262 158.148 113.734C187.973 95.3107 222.245 93.2248 254.628 100.395C289.586 108.136 322.259 125.98 353.884 145.452C384.905 164.553 415.425 184.721 447.685 200.505C512.09 231.972 580.353 249.533 649.524 252.429C711.783 255.008 778.349 246.536 831.657 203.078C880.502 163.258 911.583 97.5671 927.77 29.0913C929.843 20.3248 931.685 11.483 933.298 2.56574C933.768 -0.010066 930.578 -1.10984 930.106 1.47301C917.048 72.979 889.203 143.652 841.626 189.233C790.169 238.532 722.634 249.929 659.436 248.624C589.509 247.108 520.325 230.528 454.965 199.621C421.875 183.976 390.649 163.661 359.025 144.048C328.096 124.865 296.298 106.909 262.288 98.0621C231.231 89.9836 197.981 89.4913 168.038 103.867C143.382 115.704 120.901 136.803 107.745 165.665C104.537 172.738 101.923 180.202 99.9432 187.939C99.292 190.464 102.487 191.545 103.135 189.032V189.032Z" fill="#F2F2F2"/>
<path d="M239.184 446.275C239.184 422.076 223.377 364.653 203.879 364.653C184.381 364.653 168.574 422.076 168.574 446.275C168.574 457.903 172.294 469.055 178.915 477.278C185.536 485.501 194.516 490.12 203.879 490.12C213.242 490.12 222.222 485.501 228.843 477.278C235.464 469.055 239.184 457.903 239.184 446.275H239.184Z" fill="#E6E6E6"/>
<path d="M230.357 446.275C230.357 422.076 214.551 364.653 195.053 364.653C175.555 364.653 159.748 422.076 159.748 446.275C159.748 457.903 163.468 469.055 170.089 477.278C176.71 485.501 185.689 490.12 195.053 490.12C204.416 490.12 213.396 485.501 220.017 477.278C226.638 469.055 230.357 457.903 230.357 446.275H230.357Z" fill="#F2F2F2"/>
<path d="M196.156 544.311C195.863 544.311 195.583 544.167 195.376 543.91C195.169 543.653 195.053 543.304 195.053 542.941V420.803C195.053 420.44 195.169 420.091 195.376 419.834C195.583 419.577 195.863 419.433 196.156 419.433C196.449 419.433 196.729 419.577 196.936 419.834C197.143 420.091 197.259 420.44 197.259 420.803V542.941C197.259 543.304 197.143 543.653 196.936 543.91C196.729 544.167 196.449 544.311 196.156 544.311Z" fill="#CCCCCC"/>
<path d="M196.156 440.826C195.938 440.826 195.725 440.745 195.543 440.595C195.362 440.444 195.22 440.23 195.137 439.98C195.053 439.73 195.032 439.454 195.074 439.188C195.117 438.923 195.222 438.678 195.376 438.487L209.804 420.568C210.011 420.311 210.292 420.166 210.584 420.166C210.877 420.166 211.157 420.311 211.364 420.568C211.571 420.825 211.687 421.173 211.687 421.536C211.687 421.9 211.571 422.248 211.364 422.505L196.936 440.424C196.834 440.552 196.712 440.653 196.578 440.722C196.444 440.791 196.301 440.826 196.156 440.826V440.826Z" fill="#CCCCCC"/>
<path d="M720.209 446.275C720.209 422.076 704.402 364.653 684.904 364.653C665.406 364.653 649.6 422.076 649.6 446.275C649.6 457.903 653.319 469.055 659.94 477.278C666.561 485.501 675.541 490.12 684.904 490.12C694.268 490.12 703.247 485.501 709.868 477.278C716.489 469.055 720.209 457.903 720.209 446.275H720.209Z" fill="#E6E6E6"/>
<path d="M711.383 446.275C711.383 422.076 695.576 364.653 676.078 364.653C656.58 364.653 640.773 422.076 640.773 446.275C640.773 457.903 644.493 469.055 651.114 477.278C657.735 485.501 666.715 490.12 676.078 490.12C685.441 490.12 694.421 485.501 701.042 477.278C707.663 469.055 711.383 457.903 711.383 446.275H711.383Z" fill="#F2F2F2"/>
<path d="M677.181 544.311C676.889 544.311 676.608 544.167 676.401 543.91C676.194 543.653 676.078 543.304 676.078 542.941V420.803C676.078 420.44 676.194 420.091 676.401 419.834C676.608 419.577 676.889 419.433 677.181 419.433C677.474 419.433 677.754 419.577 677.961 419.834C678.168 420.091 678.285 420.44 678.285 420.803V542.941C678.285 543.304 678.168 543.653 677.961 543.91C677.754 544.167 677.474 544.311 677.181 544.311Z" fill="#CCCCCC"/>
<path d="M677.181 440.826C676.963 440.826 676.75 440.745 676.569 440.595C676.387 440.444 676.246 440.23 676.162 439.98C676.079 439.73 676.057 439.454 676.1 439.188C676.142 438.923 676.247 438.678 676.401 438.487L690.829 420.568C691.036 420.311 691.317 420.166 691.609 420.166C691.902 420.166 692.183 420.311 692.389 420.568C692.596 420.825 692.713 421.173 692.713 421.536C692.713 421.9 692.596 422.248 692.389 422.505L677.961 440.424C677.859 440.552 677.738 440.653 677.604 440.722C677.47 440.791 677.326 440.826 677.181 440.826Z" fill="#CCCCCC"/>
<path d="M313.103 70.9868H295.45C294.134 70.985 292.872 70.3348 291.941 69.1789C291.011 68.023 290.487 66.4558 290.486 64.8211V14.1248C290.487 12.49 291.011 10.9228 291.941 9.76691C292.872 8.611 294.134 7.9608 295.45 7.95898H313.103C314.419 7.9608 315.681 8.611 316.611 9.76691C317.542 10.9228 318.066 12.49 318.067 14.1248V64.8211C318.066 66.4558 317.542 68.023 316.611 69.1789C315.681 70.3348 314.419 70.985 313.103 70.9868V70.9868Z" fill="#E6E6E6"/>
<path d="M382.608 543.696H292.14C289.654 543.692 287.271 542.464 285.512 540.281C283.754 538.098 282.765 535.137 282.763 532.049V78.5229C282.765 75.4352 283.754 72.4749 285.512 70.2915C287.271 68.1081 289.654 66.8799 292.14 66.8765H382.608C385.095 66.8799 387.478 68.1081 389.236 70.2914C390.995 72.4748 391.983 75.4351 391.986 78.5229V532.049C391.983 535.137 390.995 538.098 389.236 540.281C387.478 542.464 385.095 543.692 382.608 543.696V543.696Z" fill="#E6E6E6"/>
<path d="M328.548 543.696H238.08C235.594 543.692 233.21 542.464 231.452 540.281C229.694 538.098 228.705 535.137 228.702 532.049V78.5229C228.705 75.4352 229.694 72.4749 231.452 70.2915C233.21 68.1081 235.594 66.8799 238.08 66.8765H328.548C331.035 66.8799 333.418 68.1081 335.176 70.2915C336.934 72.4749 337.923 75.4352 337.926 78.5229V532.049C337.923 535.137 336.934 538.098 335.176 540.281C333.418 542.464 331.035 543.692 328.548 543.696V543.696Z" fill="#F2F2F2"/>
<path d="M296.553 70.9868H278.901C277.585 70.985 276.323 70.3348 275.392 69.1789C274.461 68.023 273.938 66.4558 273.936 64.8211V14.1248C273.938 12.49 274.461 10.9228 275.392 9.76691C276.323 8.611 277.585 7.9608 278.901 7.95898H296.553C297.87 7.9608 299.132 8.611 300.062 9.76691C300.993 10.9228 301.517 12.49 301.518 14.1248V64.8211C301.517 66.4558 300.993 68.023 300.062 69.1789C299.132 70.3348 297.87 70.985 296.553 70.9868V70.9868Z" fill="#F2F2F2"/>
<path d="M273.385 169.639H252.423C251.691 169.638 250.99 169.277 250.473 168.635C249.956 167.993 249.665 167.122 249.665 166.214V126.479C249.665 125.571 249.956 124.7 250.473 124.058C250.99 123.416 251.691 123.055 252.423 123.054H273.385C274.116 123.055 274.817 123.416 275.334 124.058C275.851 124.7 276.142 125.571 276.143 126.479V166.214C276.142 167.122 275.851 167.993 275.334 168.635C274.817 169.277 274.116 169.638 273.385 169.639V169.639Z" fill="white"/>
<path d="M314.206 169.639H293.244C292.512 169.638 291.811 169.277 291.294 168.635C290.777 167.993 290.486 167.122 290.486 166.214V126.479C290.486 125.571 290.777 124.7 291.294 124.058C291.811 123.416 292.512 123.055 293.244 123.054H314.206C314.937 123.055 315.638 123.416 316.155 124.058C316.672 124.7 316.963 125.571 316.964 126.479V166.214C316.963 167.122 316.672 167.993 316.155 168.635C315.638 169.277 314.937 169.638 314.206 169.639V169.639Z" fill="white"/>
<path d="M273.385 242.258H252.423C251.691 242.257 250.99 241.896 250.473 241.254C249.956 240.612 249.665 239.741 249.665 238.833V199.098C249.665 198.19 249.956 197.319 250.473 196.677C250.99 196.035 251.691 195.673 252.423 195.672H273.385C274.116 195.673 274.817 196.035 275.334 196.677C275.851 197.319 276.142 198.19 276.143 199.098V238.833C276.142 239.741 275.851 240.612 275.334 241.254C274.817 241.896 274.116 242.257 273.385 242.258V242.258Z" fill="white"/>
<path d="M314.206 242.258H293.244C292.512 242.257 291.811 241.896 291.294 241.254C290.777 240.612 290.486 239.741 290.486 238.833V199.098C290.486 198.19 290.777 197.319 291.294 196.677C291.811 196.035 292.512 195.673 293.244 195.672H314.206C314.937 195.673 315.638 196.035 316.155 196.677C316.672 197.319 316.963 198.19 316.964 199.098V238.833C316.963 239.741 316.672 240.612 316.155 241.254C315.638 241.896 314.937 242.257 314.206 242.258V242.258Z" fill="white"/>
<path d="M273.385 314.877H252.423C251.691 314.876 250.99 314.515 250.473 313.873C249.956 313.231 249.665 312.36 249.665 311.452V271.717C249.665 270.809 249.956 269.938 250.473 269.296C250.99 268.654 251.691 268.293 252.423 268.292H273.385C274.116 268.293 274.817 268.654 275.334 269.296C275.851 269.938 276.142 270.809 276.143 271.717V311.452C276.142 312.36 275.851 313.231 275.334 313.873C274.817 314.515 274.116 314.876 273.385 314.877V314.877Z" fill="white"/>
<path d="M314.206 314.877H293.244C292.512 314.876 291.811 314.515 291.294 313.873C290.777 313.231 290.486 312.36 290.486 311.452V271.717C290.486 270.809 290.777 269.938 291.294 269.296C291.811 268.654 292.512 268.293 293.244 268.292H314.206C314.937 268.293 315.638 268.654 316.155 269.296C316.672 269.938 316.963 270.809 316.964 271.717V311.452C316.963 312.36 316.672 313.231 316.155 313.873C315.638 314.515 314.937 314.876 314.206 314.877V314.877Z" fill="white"/>
<path d="M273.385 387.496H252.423C251.691 387.495 250.99 387.134 250.473 386.492C249.956 385.85 249.665 384.979 249.665 384.071V344.336C249.665 343.428 249.956 342.557 250.473 341.915C250.99 341.273 251.691 340.912 252.423 340.911H273.385C274.116 340.912 274.817 341.273 275.334 341.915C275.851 342.557 276.142 343.428 276.143 344.336V384.071C276.142 384.979 275.851 385.85 275.334 386.492C274.817 387.134 274.116 387.495 273.385 387.496V387.496Z" fill="white"/>
<path d="M314.206 387.496H293.244C292.512 387.495 291.811 387.134 291.294 386.492C290.777 385.85 290.486 384.979 290.486 384.071V344.336C290.486 343.428 290.777 342.557 291.294 341.915C291.811 341.273 292.512 340.912 293.244 340.911H314.206C314.937 340.912 315.638 341.273 316.155 341.915C316.672 342.557 316.963 343.428 316.964 344.336V384.071C316.963 384.979 316.672 385.85 316.155 386.492C315.638 387.134 314.937 387.495 314.206 387.496V387.496Z" fill="white"/>
<path d="M273.385 460.116H252.423C251.691 460.115 250.99 459.753 250.473 459.111C249.956 458.469 249.665 457.598 249.665 456.69V416.955C249.665 416.047 249.956 415.176 250.473 414.534C250.99 413.892 251.691 413.531 252.423 413.53H273.385C274.116 413.531 274.817 413.892 275.334 414.534C275.851 415.176 276.142 416.047 276.143 416.955V456.69C276.142 457.598 275.851 458.469 275.334 459.111C274.817 459.753 274.116 460.115 273.385 460.116V460.116Z" fill="white"/>
<path d="M314.206 460.116H293.244C292.512 460.115 291.811 459.753 291.294 459.111C290.777 458.469 290.486 457.598 290.486 456.69V416.955C290.486 416.047 290.777 415.176 291.294 414.534C291.811 413.892 292.512 413.531 293.244 413.53H314.206C314.937 413.531 315.638 413.892 316.155 414.534C316.672 415.176 316.963 416.047 316.964 416.955V456.69C316.963 457.598 316.672 458.469 316.155 459.111C315.638 459.753 314.937 460.115 314.206 460.116V460.116Z" fill="white"/>
<path d="M768.753 310.767H751.1C749.784 310.765 748.522 310.115 747.591 308.959C746.661 307.803 746.137 306.236 746.136 304.601V275.828C746.137 274.193 746.661 272.626 747.591 271.47C748.522 270.314 749.784 269.664 751.1 269.662H768.753C770.069 269.664 771.331 270.314 772.262 271.47C773.192 272.626 773.716 274.193 773.717 275.828V304.601C773.716 306.236 773.192 307.803 772.262 308.959C771.331 310.115 770.069 310.765 768.753 310.767Z" fill="#E6E6E6"/>
<path d="M917.694 545.066H827.226C824.74 545.063 822.356 543.835 820.598 541.651C818.84 539.468 817.851 536.507 817.848 533.42V315.562C817.851 312.475 818.84 309.514 820.598 307.331C822.356 305.148 824.74 303.919 827.226 303.916H917.694C920.18 303.919 922.564 305.148 924.322 307.331C926.08 309.514 927.069 312.475 927.072 315.562V533.42C927.069 536.507 926.08 539.468 924.322 541.651C922.564 543.835 920.18 545.063 917.694 545.066V545.066Z" fill="#E6E6E6"/>
<path d="M863.634 545.066H706.97C704.483 545.063 702.1 543.835 700.341 541.651C698.583 539.468 697.595 536.507 697.592 533.42V315.562C697.595 312.475 698.583 309.514 700.341 307.331C702.1 305.148 704.483 303.919 706.97 303.916H863.634C866.12 303.919 868.504 305.148 870.262 307.331C872.02 309.514 873.009 312.475 873.012 315.562V533.42C873.009 536.507 872.02 539.468 870.262 541.651C868.504 543.835 866.12 545.063 863.634 545.066V545.066Z" fill="#F2F2F2"/>
<path d="M752.204 310.767H734.551C733.235 310.765 731.973 310.115 731.042 308.959C730.112 307.803 729.588 306.236 729.587 304.601V275.828C729.588 274.193 730.112 272.626 731.042 271.47C731.973 270.314 733.235 269.664 734.551 269.662H752.204C753.52 269.664 754.782 270.314 755.712 271.47C756.643 272.626 757.167 274.193 757.168 275.828V304.601C757.167 306.236 756.643 307.803 755.712 308.959C754.782 310.115 753.52 310.765 752.204 310.767V310.767Z" fill="#F2F2F2"/>
<path d="M775.372 411.474H754.41C753.679 411.473 752.978 411.112 752.461 410.47C751.944 409.828 751.653 408.957 751.652 408.049V368.314C751.653 367.406 751.944 366.535 752.461 365.893C752.978 365.251 753.679 364.89 754.41 364.889H775.372C776.103 364.89 776.805 365.251 777.322 365.893C777.839 366.535 778.13 367.406 778.13 368.314V408.049C778.13 408.957 777.839 409.828 777.322 410.47C776.805 411.112 776.103 411.473 775.372 411.474V411.474Z" fill="white"/>
<path d="M816.193 411.474H795.231C794.5 411.473 793.799 411.112 793.282 410.47C792.765 409.828 792.474 408.957 792.473 408.049V368.314C792.474 367.406 792.765 366.535 793.282 365.893C793.799 365.251 794.5 364.89 795.231 364.889H816.193C816.924 364.89 817.625 365.251 818.143 365.893C818.66 366.535 818.95 367.406 818.951 368.314V408.049C818.95 408.957 818.66 409.828 818.143 410.47C817.625 411.112 816.924 411.473 816.193 411.474V411.474Z" fill="white"/>
<path d="M775.372 484.093H754.41C753.679 484.092 752.978 483.731 752.461 483.089C751.944 482.447 751.653 481.576 751.652 480.668V440.933C751.653 440.025 751.944 439.154 752.461 438.512C752.978 437.87 753.679 437.509 754.41 437.508H775.372C776.103 437.509 776.805 437.87 777.322 438.512C777.839 439.154 778.13 440.025 778.13 440.933V480.668C778.13 481.576 777.839 482.447 777.322 483.089C776.805 483.731 776.103 484.092 775.372 484.093V484.093Z" fill="white"/>
<path d="M816.193 484.093H795.231C794.5 484.092 793.799 483.731 793.282 483.089C792.765 482.447 792.474 481.576 792.473 480.668V440.933C792.474 440.025 792.765 439.154 793.282 438.512C793.799 437.87 794.5 437.509 795.231 437.508H816.193C816.924 437.509 817.625 437.87 818.143 438.512C818.66 439.154 818.95 440.025 818.951 440.933V480.668C818.95 481.576 818.66 482.447 818.143 483.089C817.625 483.731 816.924 484.092 816.193 484.093Z" fill="white"/>
<path d="M1154.9 545.751H1.10327C0.810668 545.751 0.530046 545.607 0.323143 545.35C0.11624 545.093 3.8147e-06 544.744 3.8147e-06 544.381C3.8147e-06 544.017 0.11624 543.669 0.323143 543.412C0.530046 543.155 0.810668 543.011 1.10327 543.011H1154.9C1155.19 543.011 1155.47 543.155 1155.68 543.412C1155.88 543.669 1156 544.017 1156 544.381C1156 544.744 1155.88 545.093 1155.68 545.35C1155.47 545.607 1155.19 545.751 1154.9 545.751Z" fill="#E6E6E6"/>
<path d="M400.261 593.707H297.657C297.364 593.707 297.084 593.563 296.877 593.306C296.67 593.049 296.553 592.7 296.553 592.337C296.553 591.974 296.67 591.625 296.877 591.368C297.084 591.111 297.364 590.967 297.657 590.967H400.261C400.553 590.967 400.834 591.111 401.041 591.368C401.248 591.625 401.364 591.974 401.364 592.337C401.364 592.7 401.248 593.049 401.041 593.306C400.834 593.563 400.553 593.707 400.261 593.707Z" fill="#E6E6E6"/>
<path d="M655.116 593.707H552.512C552.219 593.707 551.939 593.563 551.732 593.306C551.525 593.049 551.409 592.7 551.409 592.337C551.409 591.974 551.525 591.625 551.732 591.368C551.939 591.111 552.219 590.967 552.512 590.967H655.116C655.409 590.967 655.689 591.111 655.896 591.368C656.103 591.625 656.219 591.974 656.219 592.337C656.219 592.7 656.103 593.049 655.896 593.306C655.689 593.563 655.409 593.707 655.116 593.707Z" fill="#E6E6E6"/>
<path d="M909.971 593.707H807.367C807.074 593.707 806.794 593.563 806.587 593.306C806.38 593.049 806.264 592.7 806.264 592.337C806.264 591.974 806.38 591.625 806.587 591.368C806.794 591.111 807.074 590.967 807.367 590.967H909.971C910.264 590.967 910.544 591.111 910.751 591.368C910.958 591.625 911.074 591.974 911.074 592.337C911.074 592.7 910.958 593.049 910.751 593.306C910.544 593.563 910.264 593.707 909.971 593.707Z" fill="#E6E6E6"/>
<path d="M458.734 446.275C458.734 422.076 442.928 364.653 423.429 364.653C403.931 364.653 388.125 422.076 388.125 446.275C388.125 457.903 391.844 469.055 398.465 477.278C405.086 485.501 414.066 490.12 423.429 490.12C432.793 490.12 441.773 485.501 448.394 477.278C455.015 469.055 458.734 457.903 458.734 446.275H458.734Z" fill="#E6E6E6"/>
<path d="M449.908 446.275C449.908 422.076 434.101 364.653 414.603 364.653C395.105 364.653 379.299 422.076 379.299 446.275C379.299 457.903 383.018 469.055 389.639 477.278C396.26 485.501 405.24 490.12 414.603 490.12C423.967 490.12 432.947 485.501 439.567 477.278C446.188 469.055 449.908 457.903 449.908 446.275H449.908Z" fill="#F2F2F2"/>
<path d="M415.707 544.311C415.414 544.311 415.133 544.167 414.926 543.91C414.719 543.653 414.603 543.304 414.603 542.941V420.803C414.603 420.44 414.719 420.091 414.926 419.834C415.133 419.577 415.414 419.433 415.707 419.433C415.999 419.433 416.28 419.577 416.487 419.834C416.694 420.091 416.81 420.44 416.81 420.803V542.941C416.81 543.304 416.694 543.653 416.487 543.91C416.28 544.167 415.999 544.311 415.707 544.311Z" fill="#CCCCCC"/>
<path d="M415.707 440.826C415.488 440.826 415.275 440.745 415.094 440.595C414.912 440.444 414.771 440.23 414.687 439.98C414.604 439.73 414.582 439.454 414.625 439.188C414.667 438.923 414.772 438.678 414.927 438.487L429.355 420.568C429.562 420.311 429.842 420.166 430.135 420.166C430.427 420.166 430.708 420.311 430.915 420.568C431.122 420.825 431.238 421.173 431.238 421.536C431.238 421.9 431.122 422.248 430.915 422.505L416.487 440.424C416.384 440.552 416.263 440.653 416.129 440.722C415.995 440.791 415.851 440.826 415.707 440.826Z" fill="#CCCCCC"/>
<path d="M1022.5 446.275C1022.5 422.076 1006.7 364.653 987.2 364.653C967.702 364.653 951.895 422.076 951.895 446.275C951.895 457.903 955.615 469.055 962.236 477.278C968.857 485.501 977.836 490.12 987.2 490.12C996.563 490.12 1005.54 485.501 1012.16 477.278C1018.78 469.055 1022.5 457.903 1022.5 446.275H1022.5Z" fill="#E6E6E6"/>
<path d="M1013.68 446.275C1013.68 422.076 997.872 364.653 978.374 364.653C958.876 364.653 943.069 422.076 943.069 446.275C943.069 457.903 946.789 469.055 953.41 477.278C960.031 485.501 969.01 490.12 978.374 490.12C987.737 490.12 996.717 485.501 1003.34 477.278C1009.96 469.055 1013.68 457.903 1013.68 446.275H1013.68Z" fill="#F2F2F2"/>
<path d="M979.477 544.311C979.184 544.311 978.904 544.167 978.697 543.91C978.49 543.653 978.374 543.304 978.374 542.941V420.803C978.374 420.44 978.49 420.091 978.697 419.834C978.904 419.577 979.184 419.433 979.477 419.433C979.769 419.433 980.05 419.577 980.257 419.834C980.464 420.091 980.58 420.44 980.58 420.803V542.941C980.58 543.304 980.464 543.653 980.257 543.91C980.05 544.167 979.769 544.311 979.477 544.311Z" fill="#CCCCCC"/>
<path d="M979.477 440.826C979.259 440.826 979.046 440.745 978.864 440.595C978.683 440.444 978.541 440.23 978.458 439.98C978.374 439.73 978.353 439.454 978.395 439.188C978.438 438.923 978.543 438.678 978.697 438.487L993.125 420.568C993.332 420.311 993.612 420.166 993.905 420.166C994.197 420.166 994.478 420.311 994.685 420.568C994.892 420.825 995.008 421.173 995.008 421.536C995.008 421.9 994.892 422.248 994.685 422.505L980.257 440.424C980.155 440.552 980.033 440.653 979.899 440.722C979.765 440.791 979.622 440.826 979.477 440.826V440.826Z" fill="#CCCCCC"/>
<path d="M849.915 476.165C850.181 476.251 850.427 476.409 850.638 476.626C850.849 476.844 851.019 477.117 851.136 477.425C851.252 477.733 851.313 478.069 851.314 478.409C851.315 478.75 851.256 479.086 851.141 479.395L855.938 485.141L852.559 486.081L848.522 480.481C848.116 480.207 847.806 479.757 847.65 479.218C847.494 478.678 847.503 478.086 847.675 477.554C847.846 477.022 848.169 476.587 848.582 476.331C848.995 476.075 849.47 476.015 849.915 476.165H849.915Z" fill="#FFB8B8"/>
<path d="M856.661 491.279L850.743 484.384C850.662 484.289 850.596 484.174 850.551 484.047C850.505 483.92 850.481 483.783 850.479 483.644C850.476 483.504 850.497 483.366 850.538 483.237C850.58 483.108 850.642 482.99 850.72 482.891L851.929 481.371C852.072 481.191 852.264 481.082 852.468 481.065C852.671 481.047 852.873 481.122 853.036 481.276L857.995 485.983L861.089 476.664C861.211 476.296 861.392 475.963 861.622 475.686C861.852 475.409 862.125 475.193 862.424 475.052C862.724 474.912 863.043 474.849 863.363 474.867C863.683 474.886 863.997 474.986 864.284 475.161V475.161C864.738 475.433 865.107 475.881 865.338 476.437C865.57 476.992 865.649 477.626 865.566 478.243C865.004 482.482 861.603 488.085 859.625 491.049C859.355 491.452 858.991 491.742 858.583 491.878C858.175 492.014 857.742 491.99 857.346 491.808C857.092 491.69 856.859 491.51 856.661 491.279V491.279Z" fill="#FF4001"/>
<path d="M853.34 484.59L848.984 476.742C848.928 476.641 848.906 476.516 848.924 476.395C848.942 476.275 848.998 476.167 849.079 476.098L849.254 475.948C849.294 475.913 849.34 475.889 849.388 475.876C849.436 475.863 849.485 475.863 849.533 475.874C849.581 475.885 849.627 475.907 849.668 475.94C849.71 475.973 849.745 476.016 849.773 476.066L854.13 483.915C854.157 483.965 854.177 484.021 854.187 484.08C854.197 484.14 854.198 484.201 854.189 484.261C854.18 484.321 854.162 484.378 854.136 484.429C854.109 484.48 854.074 484.524 854.034 484.559L853.859 484.709C853.778 484.778 853.677 484.805 853.58 484.783C853.483 484.76 853.397 484.691 853.34 484.59V484.59Z" fill="white"/>
<path d="M852.122 484.648L848.507 478.135C848.352 477.857 848.294 477.514 848.343 477.182C848.392 476.849 848.545 476.555 848.769 476.363L849.137 476.048L853.917 484.659L853.549 484.974C853.325 485.166 853.049 485.239 852.782 485.178C852.514 485.117 852.277 484.926 852.122 484.648V484.648Z" fill="#3F3D56"/>
<path d="M852.56 540.867L850.288 540.542L850.589 529.56L853.571 529.988L852.56 540.867Z" fill="#FFB8B8"/>
<path d="M852.885 543.684L845.561 542.635L845.572 542.52C845.615 542.055 845.732 541.605 845.915 541.196C846.098 540.787 846.344 540.427 846.64 540.136C846.935 539.845 847.273 539.629 847.636 539.501C847.998 539.373 848.377 539.334 848.751 539.388H848.752L853.225 540.029L852.885 543.684Z" fill="#2F2E41"/>
<path d="M878.971 538.781L876.787 539.62L873.145 529.555L876.369 528.317L878.971 538.781Z" fill="#FFB8B8"/>
<path d="M880.183 541.198L873.139 543.9L873.112 543.789C873 543.342 872.961 542.872 872.996 542.406C873.031 541.94 873.14 541.487 873.316 541.073C873.492 540.66 873.731 540.293 874.021 539.994C874.312 539.695 874.646 539.471 875.006 539.332H875.006L879.308 537.682L880.183 541.198Z" fill="#2F2E41"/>
<path d="M850.024 538.335C849.793 538.247 849.599 538.05 849.483 537.787C849.367 537.524 849.338 537.216 849.402 536.926L850.771 517.353C850.834 516.46 851.061 515.597 851.432 514.829L859.72 497.748L867.136 499.403L867.184 499.427C870.788 502.169 873.988 515.463 877.083 528.319C877.564 530.318 878.062 532.385 878.548 534.361C878.638 534.643 878.636 534.958 878.542 535.238C878.448 535.518 878.27 535.741 878.045 535.861L875.799 537.035C875.586 537.147 875.348 537.156 875.13 537.062C874.911 536.967 874.729 536.775 874.619 536.522L863.075 510.275C863.061 510.242 863.04 510.214 863.015 510.193C862.99 510.172 862.961 510.159 862.931 510.155C862.902 510.151 862.871 510.155 862.844 510.169C862.816 510.182 862.791 510.204 862.771 510.232L856.072 519.648L853.61 537.59L853.6 537.629C853.511 537.886 853.35 538.094 853.148 538.215C852.945 538.336 852.714 538.363 852.497 538.289L850.082 538.346L850.067 538.346L850.024 538.335Z" fill="#2F2E41"/>
<path d="M859.319 499.62L859.272 499.601L859.258 499.543C859.223 499.4 855.833 485.154 858.888 476.072L858.891 476.064C858.981 475.848 861.111 470.763 863.587 470.254L863.653 470.241L864.458 472.109C864.711 472.424 869.067 478.041 867.09 487.696C867.267 488.488 869.673 499.357 868.365 500.981C867.888 501.39 867.308 501.57 866.733 501.49C864.212 501.222 861.724 500.594 859.319 499.62V499.62Z" fill="#FF4001"/>
<path d="M863.077 468.474C866.27 468.474 868.858 465.259 868.858 461.294C868.858 457.328 866.27 454.114 863.077 454.114C859.884 454.114 857.296 457.328 857.296 461.294C857.296 465.259 859.884 468.474 863.077 468.474Z" fill="#2F2E41"/>
<path d="M860.78 468.439C863.31 468.439 865.361 465.893 865.361 462.751C865.361 459.609 863.31 457.062 860.78 457.062C858.251 457.062 856.2 459.609 856.2 462.751C856.2 465.893 858.251 468.439 860.78 468.439Z" fill="#FFB8B8"/>
<path d="M863.728 468.277C863.31 468.461 862.798 468.623 862.469 468.241C862.332 468.021 862.252 467.755 862.239 467.477C862.226 467.2 862.28 466.924 862.395 466.685C862.633 466.216 862.825 465.715 862.968 465.19C863.011 464.796 862.971 464.394 862.851 464.025C862.732 463.656 862.538 463.331 862.288 463.083C861.791 462.612 861.229 462.261 860.629 462.046L857.422 460.63C856.589 460.386 855.849 459.791 855.329 458.946C855.061 458.242 855.015 457.439 855.2 456.695C855.385 455.952 855.787 455.32 856.328 454.926C856.873 454.585 857.472 454.4 858.082 454.385C858.691 454.371 859.296 454.526 859.851 454.84C860.463 455.194 861.09 455.506 861.729 455.773C863.013 456.194 864.473 455.817 865.601 456.716C866.077 457.164 866.455 457.754 866.7 458.43C866.946 459.107 867.05 459.849 867.005 460.589C866.909 462.077 866.589 463.53 866.062 464.873C865.817 465.7 865.464 466.471 865.016 467.154C864.797 467.488 864.516 467.751 864.197 467.922C863.879 468.092 863.532 468.165 863.186 468.134L863.728 468.277Z" fill="#2F2E41"/>
<path d="M867.926 462.452C869.986 462.452 871.656 460.378 871.656 457.819C871.656 455.261 869.986 453.187 867.926 453.187C865.866 453.187 864.196 455.261 864.196 457.819C864.196 460.378 865.866 462.452 867.926 462.452Z" fill="#2F2E41"/>
<path d="M861.771 464.536C861.771 464.452 861.79 464.37 861.824 464.298C861.859 464.225 861.909 464.167 861.969 464.127C862.029 464.087 862.096 464.069 862.164 464.073C862.231 464.077 862.297 464.105 862.353 464.151C862.409 464.198 862.454 464.263 862.482 464.34C862.511 464.416 862.523 464.5 862.515 464.584C862.508 464.668 862.483 464.747 862.442 464.814C862.402 464.882 862.347 464.934 862.284 464.965V465.984C862.284 466.007 862.281 466.03 862.274 466.051C862.267 466.072 862.257 466.092 862.244 466.108C862.231 466.124 862.215 466.137 862.198 466.146C862.181 466.155 862.163 466.159 862.144 466.159C862.126 466.159 862.108 466.155 862.091 466.146C862.074 466.137 862.058 466.124 862.045 466.108C862.032 466.092 862.022 466.072 862.015 466.051C862.008 466.03 862.004 466.007 862.005 465.984V464.965C861.936 464.931 861.877 464.871 861.835 464.795C861.794 464.719 861.771 464.629 861.771 464.536V464.536Z" fill="white"/>
<path d="M850.142 481.027C850.415 480.993 850.691 481.034 850.949 481.147C851.208 481.26 851.444 481.442 851.639 481.68C851.835 481.918 851.987 482.206 852.084 482.525C852.18 482.844 852.219 483.185 852.198 483.524L858.306 486.833L855.403 489.178L850.047 485.676C849.591 485.594 849.174 485.307 848.876 484.869C848.578 484.431 848.42 483.872 848.432 483.299C848.444 482.726 848.624 482.178 848.939 481.76C849.255 481.341 849.683 481.08 850.142 481.027Z" fill="#FFB8B8"/>
<path d="M860.707 492.273L853.225 488.372C853.122 488.318 853.028 488.239 852.95 488.14C852.872 488.04 852.81 487.922 852.769 487.793C852.728 487.664 852.708 487.525 852.711 487.386C852.714 487.247 852.739 487.11 852.785 486.983L853.491 485.036C853.575 484.804 853.724 484.619 853.91 484.515C854.096 484.41 854.306 484.393 854.501 484.467L860.47 486.732L860.755 476.658C860.766 476.26 860.843 475.87 860.98 475.511C861.118 475.152 861.313 474.831 861.555 474.57C861.796 474.308 862.078 474.11 862.383 473.989C862.688 473.868 863.01 473.826 863.328 473.866V473.866C863.83 473.925 864.302 474.185 864.674 474.605C865.047 475.026 865.3 475.586 865.394 476.2C866.058 480.416 864.442 487.141 863.42 490.774C863.28 491.27 863.02 491.699 862.676 492.003C862.332 492.307 861.92 492.471 861.497 492.473C861.226 492.472 860.957 492.404 860.707 492.273Z" fill="#FF4001"/>
<path d="M93.5492 489.889H82.0907V485.569C85.7115 482.44 88.9196 482.712 93.14 485.824L93.5492 489.889Z" fill="#FF4001"/>
<path d="M79.4376 566.622H76.9287L76.5536 554.605H79.4376V566.622Z" fill="#FFB8B8"/>
<path d="M80.077 569.642L71.9884 569.641V569.514C71.9884 569.001 72.0698 568.492 72.228 568.018C72.3862 567.544 72.6181 567.112 72.9105 566.749C73.2028 566.386 73.5499 566.098 73.9319 565.902C74.3139 565.705 74.7233 565.604 75.1367 565.604H75.1369L80.0771 565.604L80.077 569.642Z" fill="#2F2E41"/>
<path d="M93.5671 566.622H96.0749L96.45 554.605H93.566L93.5671 566.622Z" fill="#FFB8B8"/>
<path d="M92.9269 565.604L97.8671 565.604H97.8673C98.2808 565.604 98.6902 565.705 99.0722 565.902C99.4541 566.098 99.8012 566.386 100.094 566.749C100.386 567.112 100.618 567.544 100.776 568.018C100.934 568.492 101.016 569.001 101.016 569.514V569.641L92.9271 569.642L92.9269 565.604Z" fill="#2F2E41"/>
<path d="M93.6327 565.082C93.4234 565.081 93.2205 564.992 93.0572 564.829C92.8939 564.667 92.7798 564.44 92.7336 564.186L86.516 530.506C86.5024 530.42 86.4648 530.344 86.41 530.289C86.3552 530.234 86.2867 530.206 86.2164 530.208H86.2149C86.1444 530.206 86.0757 530.236 86.021 530.291C85.9663 530.346 85.9292 530.424 85.9161 530.51L80.2064 563.963C80.1618 564.219 80.0483 564.448 79.8845 564.613C79.7206 564.778 79.5164 564.868 79.3056 564.869H76.5857C76.4602 564.869 76.336 564.838 76.2208 564.776C76.1056 564.714 76.0017 564.624 75.9157 564.51C75.8296 564.397 75.7631 564.263 75.7202 564.116C75.6774 563.97 75.6591 563.814 75.6665 563.658L77.6924 521.258L78.5076 520.958L78.5229 520.958L94.5358 521.132L97.9462 563.486C97.9581 563.638 97.9457 563.79 97.9096 563.935C97.8736 564.08 97.8146 564.215 97.7362 564.331C97.6578 564.448 97.5615 564.543 97.4529 564.613C97.3444 564.683 97.2257 564.725 97.1039 564.737L93.7064 565.078C93.6817 565.08 93.6571 565.082 93.6327 565.082Z" fill="#2F2E41"/>
<path d="M87.02 482.147C89.7956 482.147 92.0456 479.352 92.0456 475.905C92.0456 472.458 89.7956 469.664 87.02 469.664C84.2445 469.664 81.9944 472.458 81.9944 475.905C81.9944 479.352 84.2445 482.147 87.02 482.147Z" fill="#FFB8B8"/>
<path d="M83.9413 525.906C83.0597 525.92 82.1815 525.766 81.3371 525.451C80.586 525.17 79.8893 524.701 79.2897 524.072C78.6902 523.444 78.2004 522.67 77.8507 521.798C77.7399 521.536 77.7154 521.23 77.7822 520.946C78.3365 518.597 81.0148 506.385 79.3059 496.677C79.0647 495.328 79.0447 493.933 79.247 492.575C79.4493 491.216 79.8698 489.922 80.4835 488.77C81.0829 487.627 81.8616 486.646 82.773 485.884C83.6845 485.123 84.7101 484.597 85.7886 484.339V484.339C86.0721 484.27 86.3571 484.213 86.6356 484.171C87.8278 483.989 89.0377 484.136 90.1788 484.602C91.3199 485.068 92.3638 485.842 93.236 486.868C94.1341 487.914 94.8349 489.193 95.2883 490.615C95.7416 492.037 95.9363 493.565 95.8583 495.091L94.545 521.266C94.5359 521.462 94.4859 521.652 94.3999 521.817C94.3139 521.982 94.1948 522.117 94.0543 522.207C92.5417 523.192 87.9978 525.906 83.9413 525.906Z" fill="#3F3D56"/>
<path d="M92.6974 471.311C92.1753 469.682 91.2191 468.324 89.9882 467.465C88.7574 466.605 87.3265 466.296 85.9342 466.589L87.5188 468.179C85.5501 468.261 83.4777 468.086 82.072 469.8C82.5195 469.785 83.1061 470.973 83.5536 470.958C83.1348 470.994 82.7315 471.17 82.3859 471.466C82.0403 471.762 81.765 472.168 81.5887 472.641C81.2464 473.599 81.1663 474.67 81.3607 475.69C81.8678 477.19 82.4576 478.645 83.1258 480.045C83.0674 477.562 87.0031 471.64 88.925 472.259C87.9486 472.708 87.1013 473.507 86.49 474.555C87.7975 473.735 89.2762 473.435 90.7258 473.694C91.0568 473.788 91.3982 473.812 91.7356 473.764C91.9424 473.713 92.1352 473.597 92.2957 473.428C92.4562 473.258 92.5789 473.04 92.6522 472.795C92.7255 472.549 92.747 472.284 92.7144 472.026C92.6819 471.767 92.5966 471.523 92.4665 471.317L92.6974 471.311Z" fill="#2F2E41"/>
<path d="M83.5951 524.334C83.4682 524.334 83.3427 524.301 83.2264 524.238L73.6912 519.069C73.4886 518.961 73.3243 518.766 73.2283 518.52C73.1323 518.273 73.1111 517.992 73.1687 517.728L79.4811 488.114C79.5985 487.563 79.8032 487.046 80.0832 486.594C80.3632 486.143 80.713 485.765 81.112 485.483C81.511 485.202 81.9512 485.022 82.4069 484.954C82.8626 484.886 83.3247 484.932 83.7659 485.089L86.29 485.983L84.5131 523.257C84.504 523.441 84.4593 523.62 84.3829 523.778C84.3065 523.936 84.2005 524.068 84.074 524.165C83.9301 524.275 83.7644 524.334 83.5951 524.334V524.334Z" fill="#FF4001"/>
<path d="M101.243 517.728L100.823 515.764L100.216 512.907L99.923 511.538L99.3154 508.689L94.9304 488.113C94.8134 487.562 94.6089 487.045 94.329 486.593C94.0491 486.141 93.6993 485.764 93.3002 485.482C92.9011 485.2 92.4607 485.02 92.0049 484.953C91.549 484.885 91.0869 484.932 90.6457 485.089L88.1228 485.984L89.373 512.201L89.5019 514.938L89.5838 516.663V516.666L89.7147 519.387L89.8989 523.257C89.9139 523.548 90.0171 523.821 90.1875 524.021C90.358 524.221 90.5831 524.333 90.8176 524.335C90.9444 524.334 91.0697 524.301 91.186 524.238L100.721 519.07C100.924 518.962 101.088 518.767 101.184 518.52C101.28 518.273 101.301 517.992 101.243 517.728Z" fill="#FF4001"/>
<path d="M99.9231 511.538L89.5016 514.938L89.3725 512.201L99.3152 508.688L99.9231 511.538Z" fill="#CCCCCC"/>
<path d="M100.823 515.764L89.7145 519.388L89.5832 516.665V516.662L100.215 512.907L100.823 515.764Z" fill="#CCCCCC"/>
<path d="M84.9109 512.79L84.7818 515.476L74.5611 511.696L75.1602 508.884L84.9109 512.79Z" fill="#CCCCCC"/>
<path d="M84.698 517.245L74.2688 513.064L73.6686 515.883L84.5711 519.915L84.698 517.245Z" fill="#CCCCCC"/>
<path d="M74.45 520.054C74.7609 519.953 75.0503 519.769 75.2977 519.514C75.5451 519.26 75.7445 518.941 75.8819 518.58C76.0194 518.219 76.0914 517.825 76.093 517.426C76.0946 517.027 76.0257 516.632 75.8912 516.27L80.7943 497.154L77.3175 496.25L72.8223 514.991C72.347 515.312 71.983 515.839 71.7993 516.471C71.6156 517.103 71.625 517.797 71.8256 518.421C72.0263 519.045 72.4042 519.556 72.8879 519.857C73.3716 520.158 73.9274 520.228 74.45 520.054V520.054Z" fill="#FFB8B8"/>
<path d="M80.9304 487.756C81.9287 487.883 82.4902 489.277 82.242 491.012L81.0509 499.342C80.9616 499.966 80.5478 500.461 80.2039 500.354L76.1749 499.103C75.8649 499.007 75.7507 498.46 75.9264 497.913L78.3451 490.377C78.5088 489.665 78.8443 489.031 79.3065 488.563C79.7687 488.094 80.3354 487.813 80.9304 487.756Z" fill="#3F3D56"/>
<path d="M87.0015 464.223C88.7024 464.224 90.3364 465.046 91.5576 466.516C92.7788 467.987 93.4912 469.99 93.544 472.101H94.7769C94.8854 472.101 94.9895 472.155 95.0663 472.25C95.143 472.345 95.1861 472.475 95.1861 472.609V474.642C95.1861 474.777 95.143 474.906 95.0663 475.002C94.9895 475.097 94.8854 475.15 94.7769 475.15H80.863C80.7545 475.15 80.6504 475.097 80.5736 475.002C80.4969 474.906 80.4538 474.777 80.4538 474.642V472.355C80.4538 471.287 80.6231 470.23 80.9522 469.243C81.2812 468.257 81.7635 467.36 82.3715 466.605C82.9795 465.85 83.7014 465.251 84.4958 464.842C85.2902 464.434 86.1416 464.223 87.0015 464.223V464.223Z" fill="#FF4001"/>
<path d="M87.7839 514.489H84.8915C84.7987 514.489 84.7091 514.447 84.6404 514.369C84.5716 514.292 84.5287 514.185 84.52 514.07L83.941 506.701H88.7344L88.1555 514.07C88.1468 514.185 88.1038 514.292 88.035 514.369C87.9663 514.447 87.8767 514.489 87.7839 514.489Z" fill="#E6E6E6"/>
<path d="M88.7267 507.628H83.9487C83.8497 507.628 83.7548 507.579 83.6848 507.492C83.6149 507.405 83.5755 507.287 83.5754 507.164V506.052C83.5755 505.929 83.6149 505.811 83.6848 505.724C83.7548 505.637 83.8497 505.588 83.9487 505.588H88.7267C88.8257 505.588 88.9206 505.637 88.9905 505.724C89.0605 505.811 89.0999 505.929 89.1 506.052V507.164C89.0999 507.287 89.0605 507.405 88.9905 507.492C88.9206 507.579 88.8257 507.628 88.7267 507.628V507.628Z" fill="#CCCCCC"/>
<path d="M86.3998 510.537C86.5122 510.553 86.6235 510.58 86.7326 510.618L94.4356 502.414L93.9853 499.404L97.5544 497.966L98.7685 503.199C98.8666 503.621 98.8516 504.072 98.7258 504.483C98.6 504.895 98.3702 505.244 98.0709 505.479L88.3153 513.146C88.3222 513.688 88.1962 514.219 87.954 514.67C87.7118 515.12 87.3649 515.469 86.9594 515.668C86.554 515.868 86.1092 515.91 85.6842 515.788C85.2592 515.666 84.8742 515.386 84.5804 514.986C84.2865 514.585 84.0978 514.083 84.0392 513.547C83.9807 513.01 84.0551 512.464 84.2527 511.981C84.4502 511.498 84.7614 511.101 85.145 510.843C85.5285 510.585 85.9662 510.478 86.3998 510.537H86.3998Z" fill="#FFB8B8"/>
<path d="M94.4556 488.444C95.522 488.073 96.5875 489.081 96.9446 490.799L98.6579 499.04C98.7864 499.658 98.5369 500.314 98.1473 500.384L93.583 501.199C93.2318 501.262 92.9223 500.814 92.9095 500.225L92.7322 492.116C92.6644 491.355 92.7953 490.588 93.1056 489.926C93.4159 489.265 93.8892 488.746 94.4556 488.444Z" fill="#3F3D56"/>
<path d="M146.337 510.74H142.862C142.751 510.74 142.643 510.689 142.56 510.596C142.478 510.503 142.426 510.375 142.416 510.237L141.72 501.382H147.479L146.784 510.237C146.773 510.374 146.722 510.503 146.639 510.596C146.556 510.689 146.449 510.74 146.337 510.74V510.74Z" fill="#E6E6E6"/>
<path d="M147.47 502.496H141.729C141.611 502.496 141.497 502.437 141.412 502.333C141.328 502.228 141.281 502.087 141.281 501.939V500.602C141.281 500.455 141.328 500.313 141.412 500.209C141.497 500.104 141.611 500.046 141.729 500.045H147.47C147.589 500.046 147.703 500.104 147.787 500.209C147.871 500.313 147.918 500.455 147.918 500.602V501.939C147.918 502.087 147.871 502.228 147.787 502.333C147.703 502.437 147.589 502.496 147.47 502.496V502.496Z" fill="#CCCCCC"/>
<path d="M180.478 562.737C177.953 558.567 175.957 553.94 174.559 549.02C174.478 548.725 174.484 548.405 174.576 548.115C174.667 547.826 174.838 547.586 175.059 547.438L183.699 541.689C183.839 541.595 183.994 541.542 184.152 541.534C184.311 541.526 184.469 541.563 184.615 541.643C184.763 541.723 184.894 541.844 184.999 541.996C185.104 542.149 185.179 542.329 185.22 542.523C186.225 547.265 188.116 551.646 190.738 555.313C190.846 555.462 190.925 555.64 190.969 555.833C191.013 556.026 191.021 556.229 190.993 556.426C190.965 556.62 190.903 556.804 190.81 556.964C190.716 557.124 190.595 557.255 190.455 557.347L181.815 563.097C181.594 563.243 181.338 563.287 181.093 563.222C180.848 563.156 180.63 562.984 180.478 562.737Z" fill="#CCCCCC"/>
<path d="M181.068 562.187C181.114 562.259 181.179 562.309 181.252 562.328C181.325 562.346 181.401 562.333 181.466 562.29L190.106 556.54C190.148 556.513 190.184 556.474 190.212 556.427C190.24 556.379 190.259 556.324 190.267 556.266C190.276 556.205 190.273 556.142 190.259 556.083C190.245 556.023 190.221 555.968 190.187 555.922C187.487 552.148 185.542 547.637 184.506 542.756C184.494 542.695 184.471 542.639 184.439 542.592C184.407 542.544 184.366 542.507 184.32 542.482C184.277 542.458 184.23 542.447 184.182 542.45C184.135 542.452 184.089 542.468 184.047 542.496L175.407 548.246C175.342 548.29 175.291 548.361 175.263 548.446C175.235 548.532 175.232 548.627 175.255 548.715C176.628 553.548 178.588 558.091 181.068 562.187V562.187Z" fill="white"/>
<path d="M184.266 549.894L179.56 552.474C179.381 552.572 179.178 552.577 178.996 552.49C178.814 552.402 178.667 552.228 178.588 552.006L178.471 551.678C178.393 551.456 178.388 551.204 178.459 550.978C178.529 550.751 178.67 550.569 178.848 550.47L183.554 547.891C183.733 547.793 183.936 547.787 184.118 547.875C184.3 547.963 184.447 548.137 184.526 548.359L184.643 548.686C184.722 548.908 184.726 549.16 184.656 549.387C184.585 549.613 184.445 549.796 184.266 549.894V549.894Z" fill="#CCCCCC"/>
<path d="M185.987 553.863L181.281 556.443C181.102 556.54 180.899 556.546 180.717 556.458C180.535 556.371 180.388 556.197 180.309 555.975L180.192 555.647C180.113 555.425 180.109 555.173 180.18 554.946C180.25 554.72 180.39 554.538 180.569 554.439L185.275 551.86C185.454 551.762 185.657 551.756 185.839 551.844C186.021 551.932 186.168 552.106 186.247 552.328L186.364 552.655C186.442 552.877 186.447 553.129 186.376 553.356C186.306 553.582 186.166 553.765 185.987 553.863V553.863Z" fill="#CCCCCC"/>
<path d="M174.95 550.556C174.626 550.296 174.351 549.952 174.145 549.546C173.939 549.14 173.807 548.684 173.759 548.208C173.711 547.732 173.747 547.249 173.865 546.793C173.983 546.336 174.181 545.918 174.444 545.566L172.459 510.591L178.175 511.279L178.332 545.531C178.779 546.118 179.036 546.888 179.055 547.695C179.075 548.501 178.856 549.289 178.439 549.909C178.022 550.528 177.436 550.936 176.794 551.055C176.151 551.175 175.495 550.997 174.95 550.556V550.556Z" fill="#A0616A"/>
<path d="M173.753 522.343C173.619 522.224 173.509 522.068 173.43 521.889C173.35 521.709 173.305 521.509 173.296 521.305L172.877 511.878C172.836 510.944 173.074 510.024 173.547 509.296C174.019 508.567 174.692 508.082 175.435 507.933C176.179 507.784 176.94 507.982 177.573 508.489C178.206 508.996 178.665 509.777 178.862 510.679L180.702 519.107C180.779 519.459 180.74 519.834 180.594 520.15C180.448 520.466 180.207 520.697 179.924 520.793L174.69 522.555C174.531 522.609 174.364 522.618 174.202 522.581C174.04 522.545 173.887 522.463 173.753 522.343Z" fill="#3F3D56"/>
<path d="M164.01 593.555L160.997 593.554L159.562 579.118H164.011L164.01 593.555Z" fill="#A0616A"/>
<path d="M158.171 592.485H164.656V597.03H155.184V596.194C155.184 595.707 155.261 595.225 155.411 594.775C155.561 594.325 155.781 593.916 156.059 593.571C156.336 593.227 156.665 592.954 157.028 592.767C157.39 592.581 157.778 592.485 158.171 592.485V592.485Z" fill="#2F2E41"/>
<path d="M175.318 593.555L172.305 593.554L170.871 579.118H175.319L175.318 593.555Z" fill="#A0616A"/>
<path d="M169.479 592.485H175.964V597.03H166.492V596.194C166.492 595.707 166.57 595.225 166.72 594.775C166.87 594.325 167.09 593.916 167.367 593.571C167.644 593.227 167.974 592.954 168.336 592.767C168.698 592.581 169.087 592.485 169.479 592.485V592.485Z" fill="#2F2E41"/>
<path d="M163.868 586.281L160.55 586.085C160.267 586.068 160.001 585.918 159.805 585.664C159.609 585.411 159.498 585.074 159.496 584.722C158.622 567.955 157.41 549.976 159.265 543.031C159.264 542.833 159.297 542.637 159.363 542.457C159.428 542.276 159.524 542.116 159.644 541.985C159.764 541.855 159.906 541.759 160.059 541.703C160.212 541.647 160.372 541.633 160.53 541.661L173.803 544.054C174.066 544.1 174.306 544.262 174.48 544.509C174.654 544.757 174.75 545.075 174.751 545.404C176.445 553.628 176.522 568.54 176.458 584.035C176.459 584.217 176.431 584.396 176.376 584.564C176.321 584.732 176.24 584.885 176.137 585.014C176.034 585.142 175.912 585.244 175.777 585.314C175.642 585.384 175.498 585.42 175.352 585.42H171.775C171.511 585.421 171.255 585.305 171.055 585.092C170.854 584.879 170.722 584.583 170.682 584.259L168.475 566.836C168.443 566.581 168.337 566.35 168.178 566.184C168.019 566.018 167.817 565.929 167.609 565.934C167.402 565.938 167.202 566.036 167.048 566.21C166.894 566.383 166.795 566.619 166.771 566.875L165.019 585.072C164.986 585.406 164.856 585.713 164.654 585.936C164.452 586.158 164.191 586.282 163.92 586.283C163.903 586.283 163.886 586.283 163.868 586.281Z" fill="#2F2E41"/>
<path d="M166.204 545.405C164.266 543.992 162.119 543.078 159.891 542.72C159.744 542.702 159.602 542.648 159.473 542.56C159.344 542.472 159.231 542.353 159.14 542.209C159.047 542.064 158.979 541.898 158.94 541.719C158.9 541.541 158.891 541.354 158.911 541.171L162.091 511.846C162.275 510.13 162.808 508.501 163.641 507.114C164.475 505.727 165.58 504.628 166.852 503.921C168.083 503.218 169.439 502.918 170.789 503.05C172.14 503.181 173.442 503.74 174.57 504.672C174.679 504.762 174.786 504.854 174.891 504.948C176.19 506.13 177.178 507.763 177.731 509.642C178.283 511.52 178.376 513.56 177.997 515.504C176.047 525.412 175.377 541.657 175.262 544.813C175.253 545.082 175.18 545.341 175.053 545.559C174.925 545.776 174.748 545.942 174.545 546.035C173.345 546.577 172.079 546.857 170.802 546.863C169.194 546.875 167.61 546.373 166.204 545.405V545.405Z" fill="#3F3D56"/>
<path d="M168.864 499.94C172.199 499.94 174.902 496.582 174.902 492.441C174.902 488.3 172.199 484.942 168.864 484.942C165.529 484.942 162.826 488.3 162.826 492.441C162.826 496.582 165.529 499.94 168.864 499.94Z" fill="#A0616A"/>
<path d="M173.137 498.373C172.884 498.711 172.559 498.953 172.2 499.07C171.841 499.186 171.462 499.173 171.109 499.032C170.756 498.89 170.442 498.627 170.205 498.272C169.968 497.917 169.818 497.485 169.772 497.028C169.76 496.87 169.761 496.711 169.774 496.553C169.994 495.686 170.127 494.788 170.169 493.88C170.146 493.643 170.075 493.417 169.962 493.224C169.065 491.731 166.958 493.892 166.111 492.541C165.591 491.712 166.202 490.407 165.803 489.481C165.277 488.259 163.719 488.862 162.741 488.192C161.654 487.448 161.719 485.376 162.435 484.116C162.901 483.371 163.493 482.763 164.17 482.336C164.846 481.908 165.591 481.671 166.349 481.641C167.869 481.596 169.378 481.962 170.773 482.713C172.419 483.378 173.873 484.63 174.952 486.312C175.51 487.415 175.864 488.658 175.988 489.952C176.112 491.246 176.002 492.557 175.667 493.792C175.077 495.513 174.216 497.07 173.137 498.373Z" fill="#2F2E41"/>
<path d="M177.918 505.664C177.813 505.047 176.905 504.204 175.607 503.517C173.521 502.468 171.265 502.045 169.022 502.284C166.779 502.523 164.613 503.416 162.701 504.891C162.568 504.9 162.44 504.963 162.339 505.071C162.237 505.178 162.167 505.325 162.138 505.487L157.772 529.468L157.204 532.592L156.828 534.659L156.26 537.773L155.958 539.437C155.939 539.543 155.938 539.653 155.956 539.76C155.973 539.867 156.009 539.968 156.061 540.056C156.113 540.144 156.179 540.217 156.255 540.271C156.332 540.325 156.416 540.358 156.504 540.368L175.357 542.389C175.374 542.389 175.394 542.392 175.411 542.392C175.566 542.391 175.716 542.316 175.829 542.184C175.942 542.051 176.01 541.87 176.02 541.678L176.2 538.286L176.392 534.659L176.475 533.086L176.665 529.468L177.921 505.703V505.682L177.918 505.664Z" fill="#FF4001"/>
<path d="M146.984 507.173C147.014 507.338 147.034 507.505 147.043 507.674L157.603 515.24L160.17 513.405L162.906 517.854L157.415 522.715L145.367 510.911C144.876 511.136 144.341 511.171 143.833 511.01C143.326 510.849 142.869 510.5 142.525 510.009C142.181 509.518 141.966 508.909 141.908 508.262C141.849 507.616 141.951 506.962 142.199 506.389C142.447 505.816 142.829 505.35 143.296 505.053C143.762 504.757 144.29 504.643 144.809 504.728C145.329 504.814 145.815 505.093 146.204 505.53C146.592 505.967 146.864 506.54 146.984 507.173V507.173Z" fill="#A0616A"/>
<path d="M157.98 514.597C157.963 514.393 157.982 514.187 158.037 513.994C158.092 513.801 158.181 513.626 158.298 513.481L163.673 506.805C164.205 506.143 164.916 505.75 165.668 505.701C166.42 505.652 167.161 505.951 167.746 506.539C168.331 507.128 168.721 507.965 168.839 508.888C168.957 509.812 168.795 510.757 168.385 511.542L164.557 518.867C164.397 519.172 164.146 519.386 163.86 519.462C163.573 519.538 163.273 519.469 163.027 519.272L158.478 515.605C158.34 515.494 158.223 515.346 158.137 515.171C158.051 514.997 157.997 514.801 157.98 514.597Z" fill="#3F3D56"/>
<path d="M176.664 529.468L176.476 533.087L157.204 532.592L157.772 529.468H176.664Z" fill="#CCCCCC"/>
<path d="M176.392 534.658L176.2 538.285L156.26 537.773L156.829 534.658H176.392Z" fill="#CCCCCC"/>
<path d="M168.982 477.872C166.939 477.872 164.975 478.86 163.508 480.627C162.041 482.393 161.185 484.8 161.122 487.336H159.64C159.51 487.336 159.385 487.401 159.293 487.515C159.201 487.63 159.149 487.785 159.149 487.947V490.389C159.149 490.551 159.201 490.707 159.293 490.821C159.385 490.936 159.51 491 159.64 491H176.357C176.488 491 176.613 490.936 176.705 490.821C176.797 490.707 176.849 490.551 176.849 490.389V487.642C176.849 486.359 176.645 485.088 176.25 483.903C175.855 482.718 175.275 481.64 174.545 480.733C173.814 479.826 172.947 479.106 171.993 478.615C171.038 478.124 170.015 477.872 168.982 477.872Z" fill="#FF4001"/>
<path d="M213.257 577.265H211.571C211.56 577.011 209.296 570.414 209.296 570.414L207.928 566.304L207.023 563.563L205.655 559.453L204.088 554.726C204.048 554.512 203.951 554.322 203.813 554.186C203.675 554.05 203.504 553.976 203.327 553.976C203.151 553.976 202.98 554.05 202.841 554.186C202.703 554.322 202.606 554.512 202.566 554.726L201 559.453L199.631 563.563L198.727 566.304L197.358 570.414C197.358 570.414 195.095 577.011 195.084 577.265H193.398C192.959 577.265 192.538 577.482 192.228 577.867C191.917 578.252 191.743 578.775 191.743 579.32C191.743 579.865 191.917 580.388 192.228 580.774C192.538 581.159 192.959 581.376 193.398 581.376H213.257C213.696 581.376 214.117 581.159 214.427 580.774C214.737 580.388 214.912 579.865 214.912 579.32C214.912 578.775 214.737 578.252 214.427 577.867C214.117 577.482 213.696 577.265 213.257 577.265Z" fill="#FF6584"/>
<path d="M212.153 612.889H211.5C211.56 612.714 208.656 603.49 208.656 603.49L206.913 598.215L205.743 594.68L204 589.405L202.103 583.691C202.049 583.421 201.925 583.182 201.749 583.01C201.573 582.839 201.355 582.746 201.132 582.746C200.908 582.746 200.691 582.839 200.515 583.01C200.339 583.182 200.214 583.421 200.161 583.691L198.263 589.405L196.52 594.68L195.339 598.215L193.597 603.49C193.597 603.49 190.704 612.714 190.764 612.889H190.088C189.649 612.889 189.228 613.106 188.918 613.491C188.607 613.877 188.433 614.4 188.433 614.945C188.433 615.49 188.607 616.013 188.918 616.398C189.228 616.783 189.649 617 190.088 617H212.153C212.592 617 213.013 616.783 213.324 616.398C213.634 616.013 213.808 615.49 213.808 614.945C213.808 614.4 213.634 613.877 213.324 613.491C213.013 613.106 212.592 612.889 212.153 612.889Z" fill="#FF6584"/>
<path d="M207.023 563.563H199.631L200.999 559.453H205.655L207.023 563.563Z" fill="#F2F2F2"/>
<path d="M209.296 570.414H197.358L198.726 566.304H207.928L209.296 570.414Z" fill="#F2F2F2"/>
<path d="M205.743 594.68H196.52L198.263 589.405H204L205.743 594.68Z" fill="#F2F2F2"/>
<path d="M208.656 603.49H193.596L195.339 598.215H206.913L208.656 603.49Z" fill="#F2F2F2"/>
<path d="M1007.64 541.867C1007.64 535.633 1009.64 529.655 1013.19 525.248C1016.74 520.841 1021.56 518.366 1026.58 518.366C1031.6 518.366 1036.41 520.841 1039.96 525.248C1043.51 529.655 1045.51 535.633 1045.51 541.867" fill="#F2F2F2"/>
<path d="M1026.58 541.867C1026.44 541.867 1026.31 541.8 1026.21 541.681C1026.12 541.562 1026.06 541.4 1026.06 541.231V528.836C1026.06 528.668 1026.12 528.506 1026.21 528.387C1026.31 528.267 1026.44 528.2 1026.58 528.2C1026.71 528.2 1026.84 528.267 1026.94 528.387C1027.03 528.506 1027.09 528.668 1027.09 528.836V541.231C1027.09 541.4 1027.03 541.562 1026.94 541.681C1026.84 541.8 1026.71 541.867 1026.58 541.867V541.867Z" fill="#CCCCCC"/>
<path d="M1026.58 537.608C1026.45 537.608 1026.33 537.554 1026.24 537.454L1020.1 530.908C1020.05 530.853 1020.01 530.787 1019.97 530.712C1019.94 530.638 1019.93 530.556 1019.92 530.473C1019.91 530.389 1019.92 530.305 1019.94 530.225C1019.96 530.145 1020 530.071 1020.04 530.008C1020.09 529.944 1020.14 529.892 1020.2 529.854C1020.26 529.816 1020.33 529.794 1020.39 529.788C1020.46 529.782 1020.53 529.792 1020.59 529.819C1020.66 529.845 1020.72 529.888 1020.77 529.943L1026.91 536.49C1026.99 536.574 1027.04 536.687 1027.07 536.813C1027.1 536.939 1027.09 537.071 1027.06 537.193C1027.02 537.315 1026.95 537.42 1026.87 537.494C1026.78 537.568 1026.68 537.608 1026.58 537.608L1026.58 537.608Z" fill="#CCCCCC"/>
<path d="M1065.99 541.867C1065.99 535.633 1067.99 529.655 1071.54 525.248C1075.09 520.841 1079.9 518.366 1084.92 518.366C1089.95 518.366 1094.76 520.841 1098.31 525.248C1101.86 529.655 1103.86 535.633 1103.86 541.867" fill="#F2F2F2"/>
<path d="M1084.92 541.867C1084.79 541.867 1084.66 541.8 1084.56 541.681C1084.47 541.562 1084.41 541.4 1084.41 541.231V528.836C1084.41 528.668 1084.47 528.506 1084.56 528.387C1084.66 528.267 1084.79 528.2 1084.92 528.2C1085.06 528.2 1085.19 528.267 1085.29 528.387C1085.38 528.506 1085.44 528.668 1085.44 528.836V541.231C1085.44 541.4 1085.38 541.562 1085.29 541.681C1085.19 541.8 1085.06 541.867 1084.92 541.867V541.867Z" fill="#CCCCCC"/>
<path d="M1084.92 537.608C1084.8 537.608 1084.68 537.554 1084.59 537.455L1078.45 530.908C1078.4 530.854 1078.36 530.787 1078.32 530.713C1078.29 530.638 1078.27 530.556 1078.27 530.473C1078.26 530.389 1078.27 530.305 1078.29 530.225C1078.31 530.145 1078.35 530.071 1078.39 530.007C1078.43 529.944 1078.49 529.891 1078.55 529.853C1078.61 529.816 1078.68 529.793 1078.74 529.787C1078.81 529.781 1078.88 529.792 1078.94 529.819C1079.01 529.846 1079.07 529.888 1079.12 529.943L1085.26 536.49C1085.34 536.574 1085.39 536.687 1085.42 536.813C1085.45 536.939 1085.44 537.071 1085.41 537.193C1085.37 537.315 1085.3 537.42 1085.22 537.494C1085.13 537.568 1085.03 537.608 1084.92 537.608V537.608Z" fill="#CCCCCC"/>
<g clip-path="url(#clip1_647_8)">
<path d="M600.227 376.181C600.779 376.208 601.326 376.054 601.793 375.74C602.261 375.426 602.626 374.967 602.839 374.425C603.052 373.883 603.104 373.285 602.986 372.711C602.868 372.137 602.588 371.616 602.182 371.217C602.114 370.93 602.065 370.724 601.997 370.437C602.021 370.374 602.046 370.312 602.07 370.249C604.553 363.962 612.968 364.005 615.43 370.302C617.615 375.891 620.397 381.49 621.082 387.399C621.384 390.011 621.256 392.659 620.706 395.225C625.838 383.336 628.503 370.413 628.52 357.334C628.521 354.052 628.35 350.773 628.006 347.511C627.722 344.837 627.328 342.182 626.824 339.546C624.073 325.245 618.167 311.84 609.591 300.433C605.44 298.027 602.083 294.329 599.973 289.835C599.208 288.22 598.668 286.495 598.369 284.715C598.837 284.781 600.134 277.207 599.781 276.743C600.434 275.691 601.601 275.168 602.314 274.142C605.858 269.039 610.742 269.93 613.291 276.865C618.737 279.784 618.789 284.625 615.448 289.281C613.322 292.243 613.03 296.251 611.165 299.422C611.357 299.683 611.556 299.935 611.748 300.196C615.256 304.987 618.313 310.131 620.877 315.555C620.151 309.539 621.222 302.292 623.047 297.62C625.125 292.297 629.019 287.814 632.448 283.213C636.567 277.685 645.014 280.098 645.74 287.104C645.747 287.172 645.754 287.24 645.76 287.308C645.251 287.613 644.753 287.937 644.265 288.28C643.652 288.714 643.177 289.336 642.902 290.062C642.628 290.789 642.566 291.586 642.725 292.35C642.885 293.115 643.258 293.81 643.796 294.345C644.334 294.88 645.011 295.231 645.74 295.35L645.814 295.362C645.633 297.312 645.312 299.244 644.855 301.142C649.254 319.211 639.756 325.792 626.194 326.087C625.895 326.25 625.603 326.413 625.304 326.568C627.879 334.319 629.494 342.392 630.109 350.584C630.457 355.418 630.437 360.273 630.048 365.103L630.071 364.932C631.053 359.561 633.751 354.715 637.708 351.212C643.586 346.084 651.89 344.196 658.231 340.074C661.283 338.09 665.194 340.654 664.662 344.413C664.653 344.473 664.645 344.533 664.636 344.593C663.691 345.001 662.77 345.472 661.88 346.003C661.371 346.308 660.872 346.632 660.384 346.975C659.771 347.409 659.297 348.031 659.022 348.757C658.747 349.484 658.686 350.281 658.845 351.045C659.004 351.81 659.377 352.505 659.915 353.04C660.453 353.575 661.131 353.926 661.859 354.045L661.934 354.057C661.988 354.065 662.034 354.073 662.087 354.082C660.472 358.177 658.205 361.947 655.386 365.226C652.635 380.999 640.821 382.495 628.182 377.902H628.175C626.788 384.301 624.779 390.53 622.18 396.489H600.764C600.687 396.236 600.618 395.975 600.549 395.722C602.531 395.855 604.521 395.729 606.475 395.348C604.886 393.277 603.297 391.19 601.708 389.119C601.672 389.081 601.639 389.04 601.608 388.997C600.802 387.937 599.988 386.886 599.182 385.826L599.182 385.825C599.139 382.576 599.49 379.335 600.226 376.182L600.227 376.181Z" fill="#F2F2F2"/>
<path d="M668.987 317.974C665.005 302.555 697.123 289.333 705.557 301.75C706.73 299.985 711.064 298.913 713.052 299.454C715.041 299.996 716.713 301.349 718.345 302.66C720.588 304.49 722.913 306.385 724.29 309.017C725.677 311.638 725.891 315.212 724.025 317.487C722.546 319.295 718.182 320.465 715.959 320.941C714.408 321.277 713.103 321.548 711.981 321.743C710.962 320.184 710.493 318.293 710.656 316.403C709.901 316.944 709.268 317.656 708.802 318.487C708.337 319.319 708.05 320.249 707.963 321.212C707.933 321.613 720.497 370.707 720.497 370.707C718.987 371.619 717.399 372.377 715.755 372.97C712.501 367.689 710.009 361.922 708.361 355.858C707.982 359.913 708.03 363.999 708.504 368.042C708.756 370.31 709.117 372.562 709.585 374.79C694.655 378.212 672.2 377.086 662.43 362.53C662.428 362.47 662.427 362.409 662.425 362.349C662.418 361.774 662.222 361.221 661.872 360.782C661.522 360.344 661.04 360.048 660.508 359.946C659.975 359.844 659.426 359.942 658.954 360.223C658.482 360.503 658.116 360.95 657.92 361.485C657.683 362.127 657.465 362.683 657.27 363.125C654.425 352.317 658.106 339.808 668.987 317.974Z" fill="#2F2E41"/>
<path d="M643.582 576.473V576.978C643.563 576.81 643.563 576.641 643.582 576.473V576.473Z" fill="#2F2E41"/>
<path d="M658.202 489.214C658.582 489.105 658.969 489.025 659.359 488.975C658.911 489.053 658.525 489.132 658.202 489.214Z" fill="#2F2E41"/>
<path d="M657.864 489.304C657.967 489.274 658.081 489.244 658.202 489.214C658.089 489.245 657.98 489.267 657.864 489.304Z" fill="#2F2E41"/>
<path d="M765.882 626.998H711.158C710.377 626.336 709.834 625.409 709.621 624.373C709.407 623.337 709.536 622.254 709.986 621.306C711.481 617.665 708.551 614.338 708.551 614.338C707.557 613.1 706.865 611.621 706.538 610.032C706.211 608.443 706.258 606.792 706.676 605.227C708.126 599.849 702.444 584.669 702.444 584.669C702.444 584.669 699.381 604.27 695.627 626.998H643.582C642.71 625.421 642.25 623.625 642.25 621.796C642.25 619.967 642.71 618.172 643.582 616.594C646.615 611.133 643.582 610.085 643.582 610.085C643.582 610.085 640.549 603.973 643.582 599.536C646.615 595.098 643.582 576.978 643.582 576.978C643.696 577.78 644.56 576.323 645.891 573.269C647.916 568.622 651.011 560.266 654.138 550.565C656.374 543.642 658.628 536.024 660.511 528.576H660.516C661.009 526.619 661.477 524.68 661.919 522.759C662.783 518.991 663.524 515.33 664.086 511.893C665.307 504.488 665.709 498.128 664.772 493.991C663.995 490.549 662.294 488.65 659.359 488.975C660.932 488.699 663.236 488.437 666.075 488.189C666.587 488.145 667.117 488.102 667.666 488.053C688.843 486.354 734.277 485.378 734.277 485.378L748.194 511.844L765.818 545.37C765.818 545.37 765.338 590.345 765.882 626.998Z" fill="#2F2E41"/>
<path d="M707.471 370.985L675.409 363.762L669.043 377.371L647.605 390.552C647.605 390.552 661.423 450.558 661.345 458.998C661.144 480.425 628.863 528.457 653.246 524.762C677.63 521.067 682.583 505.589 690.41 508.036C697.47 510.244 706.09 520.062 711.861 513.04C717.632 506.017 719.664 514.127 723.314 514.407C725.048 514.54 724.003 505.539 728.367 514.687C732.73 523.834 755.867 511.521 748.025 503.192C734.965 489.322 732.311 387.074 732.311 387.074L717.772 382.323L707.471 370.985Z" fill="#E6E6E6"/>
<path d="M646.998 588.902C648.286 587.271 648.924 585.17 648.776 583.047C648.628 580.923 647.706 578.945 646.206 577.533C645.896 577.251 645.566 576.997 645.217 576.773L650.578 548.831L638.185 540.954L634.738 580.073C633.975 581.681 633.735 583.512 634.055 585.279C634.375 587.047 635.237 588.653 636.507 589.846C637.235 590.517 638.081 591.029 638.996 591.353C639.911 591.678 640.877 591.807 641.84 591.735C642.802 591.662 643.741 591.389 644.604 590.931C645.467 590.474 646.236 589.84 646.868 589.066C646.912 589.012 646.956 588.957 646.998 588.902Z" fill="#A0616A"/>
<path d="M685.478 441.621C685.4 440.723 684.321 440.315 682.826 439.752C681.324 439.261 679.897 438.543 678.588 437.62C675.278 435.081 676.581 432.425 678.382 428.755C678.734 428.041 679.1 427.298 679.443 426.526C680.462 424.239 678.839 414.805 674.61 398.482C673.308 393.456 673.312 389.907 672.411 387.552C671.515 385.197 669.719 384.037 664.822 383.794C658.904 383.477 653.109 385.665 648.707 389.878C648.588 389.99 648.464 390.111 648.346 390.228C648.122 390.451 647.902 390.679 647.687 390.912C643.616 395.261 641.287 401.114 641.186 407.245L641.163 408.289L640.153 458.163L637.314 501.929L633.4 562.218L636.299 562.368L647.866 562.98L649.269 563.053L652.597 548.225L656.602 530.382L658.074 523.827L662.642 503.493L664.772 493.991L666.075 488.189L666.605 485.819L669.193 474.302C669.252 474.06 675.205 449.118 682.067 444.947C684.627 443.393 685.551 442.49 685.478 441.621Z" fill="#E6E6E6"/>
<path d="M762.472 588.605C761.026 587.13 760.179 585.114 760.112 582.986C760.044 580.858 760.761 578.786 762.11 577.211C762.389 576.895 762.692 576.605 763.016 576.342L754.861 549.174L766.386 539.929L773.769 578.429C774.69 579.94 775.113 581.733 774.974 583.527C774.835 585.321 774.14 587.016 772.998 588.346C772.342 589.097 771.553 589.703 770.676 590.129C769.799 590.556 768.851 590.795 767.887 590.833C766.924 590.871 765.962 590.706 765.058 590.35C764.154 589.993 763.325 589.45 762.618 588.753C762.569 588.704 762.52 588.655 762.472 588.605Z" fill="#A0616A"/>
<path d="M768.11 529.653C768.11 529.653 759.121 496.067 761.863 492.431C764.604 488.795 756.508 488.085 759.997 481.314C763.485 474.542 758.67 473.41 758.67 473.41L756.057 457.841L751.386 419.6L751.244 418.462L749.885 407.337C749.506 404.159 748.527 401.095 747.007 398.328C745.487 395.562 743.457 393.149 741.039 391.234C740.916 391.134 740.79 391.037 740.663 390.941C740.088 390.501 739.501 390.094 738.901 389.719C734.416 386.909 729.151 385.847 724.009 386.715C714.32 388.317 717.336 392.154 715.764 402.433C713.211 419.147 712.548 428.709 713.793 430.87C714.213 431.597 714.654 432.293 715.074 432.962C717.237 436.41 718.801 438.898 715.765 441.806C714.555 442.869 713.209 443.743 711.768 444.404C710.341 445.137 709.308 445.664 709.322 446.566C709.338 447.44 710.347 448.229 713.047 449.48C716.32 451.001 719.835 456.752 722.714 462.626C724.999 467.362 727.036 472.227 728.817 477.2L753.563 551.112L757.599 563.166L758.991 562.933L770.425 561.007L773.292 560.525L768.11 529.653Z" fill="#E6E6E6"/>
<path d="M693.944 363.251C708.391 363.251 720.102 350.814 720.102 335.471C720.102 320.129 708.391 307.691 693.944 307.691C679.497 307.691 667.786 320.129 667.786 335.471C667.786 350.814 679.497 363.251 693.944 363.251Z" fill="#A0616A"/>
<path d="M654.71 320.14C650.728 304.721 682.846 291.499 691.28 303.916C692.453 302.151 696.787 301.079 698.775 301.62C700.764 302.162 702.436 303.515 704.068 304.826C706.311 306.656 708.636 308.551 710.013 311.183C711.4 313.804 711.614 317.378 709.748 319.653C708.269 321.461 703.905 322.631 701.682 323.107C700.132 323.443 698.826 323.714 697.704 323.909C696.686 322.35 696.216 320.459 696.379 318.569C695.624 319.11 694.991 319.822 694.525 320.653C694.06 321.485 693.773 322.415 693.686 323.378C693.656 323.779 706.22 372.873 706.22 372.873C704.71 373.785 703.122 374.543 701.478 375.136C698.224 369.855 695.732 364.088 694.084 358.024C693.705 362.079 693.753 366.165 694.227 370.208C694.479 372.476 694.84 374.728 695.308 376.956C680.378 380.378 657.923 379.252 648.153 364.696C648.151 364.636 648.15 364.575 648.148 364.515C648.141 363.94 647.945 363.387 647.595 362.948C647.245 362.51 646.763 362.214 646.231 362.112C645.698 362.01 645.149 362.108 644.677 362.389C644.205 362.669 643.839 363.116 643.643 363.651C643.406 364.293 643.188 364.849 642.993 365.291C640.148 354.483 643.829 341.974 654.71 320.14Z" fill="#2F2E41"/>
<path d="M524.983 416.133C524.43 416.16 523.884 416.006 523.416 415.691C522.949 415.377 522.584 414.918 522.371 414.376C522.157 413.835 522.106 413.236 522.224 412.662C522.341 412.088 522.622 411.567 523.028 411.168C523.096 410.881 523.145 410.675 523.213 410.388C523.189 410.325 523.164 410.263 523.14 410.201C520.657 403.913 512.242 403.956 509.78 410.253C507.595 415.842 504.813 421.441 504.128 427.35C503.826 429.963 503.953 432.61 504.504 435.176C499.372 423.287 496.707 410.365 496.69 397.286C496.689 394.003 496.86 390.724 497.204 387.462C497.488 384.788 497.882 382.133 498.386 379.498C501.137 365.196 507.043 351.791 515.619 340.384C519.77 337.979 523.126 334.28 525.237 329.786C526.001 328.171 526.542 326.446 526.841 324.667C526.373 324.732 525.076 317.159 525.429 316.694C524.776 315.642 523.608 315.12 522.896 314.093C519.351 308.99 514.468 309.881 511.919 316.816C506.473 319.735 506.42 324.576 509.762 329.232C511.888 332.194 512.18 336.202 514.045 339.373C513.853 339.634 513.654 339.887 513.462 340.147C509.954 344.938 506.896 350.082 504.333 355.506C505.058 349.49 503.988 342.243 502.163 337.571C500.085 332.249 496.191 327.766 492.762 323.164C488.642 317.637 480.196 320.049 479.47 327.056C479.463 327.123 479.456 327.191 479.449 327.259C479.959 327.564 480.457 327.888 480.945 328.231C481.558 328.666 482.033 329.287 482.308 330.013C482.582 330.74 482.644 331.537 482.485 332.302C482.325 333.066 481.952 333.761 481.414 334.296C480.876 334.832 480.199 335.182 479.47 335.301L479.396 335.313C479.577 337.263 479.898 339.195 480.355 341.093C475.956 359.162 485.454 365.743 499.016 366.039C499.315 366.202 499.607 366.365 499.906 366.52C497.331 374.27 495.716 382.343 495.101 390.536C494.753 395.369 494.773 400.224 495.162 405.054L495.139 404.883C494.157 399.512 491.459 394.666 487.502 391.163C481.624 386.036 473.32 384.147 466.979 380.026C463.927 378.042 460.015 380.606 460.548 384.364C460.557 384.424 460.565 384.484 460.574 384.544C461.519 384.953 462.44 385.424 463.33 385.954C463.839 386.259 464.338 386.583 464.826 386.926C465.438 387.361 465.913 387.982 466.188 388.708C466.463 389.435 466.524 390.232 466.365 390.997C466.205 391.761 465.832 392.456 465.294 392.991C464.757 393.527 464.079 393.877 463.351 393.996L463.276 394.008C463.222 394.016 463.176 394.025 463.123 394.033C464.738 398.128 467.004 401.898 469.824 405.177C472.574 420.95 484.389 422.447 497.027 417.853H497.035C498.422 424.253 500.431 430.482 503.03 436.44H524.446C524.523 436.187 524.592 435.926 524.661 435.674C522.679 435.806 520.689 435.68 518.735 435.299C520.324 433.228 521.913 431.141 523.502 429.07C523.538 429.032 523.571 428.991 523.602 428.948C524.408 427.888 525.222 426.837 526.027 425.777L526.028 425.776C526.071 422.527 525.72 419.286 524.984 416.133L524.983 416.133Z" fill="#F2F2F2"/>
<path d="M425.054 301.751C424.568 302.954 409.581 302.825 408.894 303.896C403.602 312.166 422.68 347.352 417.387 355.633L416.65 356.566C418.377 355.721 420.035 354.728 421.609 353.595C421.75 350.206 421.892 346.805 422.043 343.416C423.628 345.57 424.908 347.958 425.841 350.506C427.073 349.584 428.084 347.874 433.365 344.51C435.503 342.016 437.968 339.861 440.684 338.112L425.054 301.751Z" fill="#2F2E41"/>
<path d="M435.937 369.527C434.283 368.383 432.396 367.674 430.433 367.46C428.469 367.245 426.486 367.531 424.647 368.293C422.808 369.056 421.167 370.273 419.86 371.843C418.553 373.414 417.618 375.293 417.131 377.325L394.356 440.349L355.208 416.745C355.036 414.032 354.06 411.446 352.418 409.359C350.777 407.272 348.556 405.79 346.073 405.126C343.59 404.463 340.973 404.651 338.597 405.665C336.221 406.679 334.209 408.466 332.848 410.769C331.487 413.073 330.849 415.775 331.023 418.488C331.198 421.201 332.178 423.785 333.821 425.87C335.464 427.956 337.687 429.434 340.171 430.095C342.655 430.756 345.271 430.564 347.646 429.547C355.891 438.892 391.632 477.205 406.429 462.236C418.867 449.653 436.816 400.886 441.136 384.045C441.828 381.353 441.698 378.496 440.763 375.887C439.829 373.278 438.139 371.051 435.937 369.527V369.527Z" fill="#FFB6B6"/>
<path d="M393.171 464.876L400.358 499.376L452.914 504.425L457.743 474.385L393.171 464.876Z" fill="#FFB6B6"/>
<path d="M473.45 553.347C473.426 553.841 473.397 554.331 473.364 554.826C472.86 561.974 472.283 570.219 471.659 579.253C470.675 593.591 469.576 609.917 468.467 626.998H358.232L379.611 558.754C379.611 558.754 388.243 553.706 383.848 545.227C379.453 536.748 388.101 543.505 388.181 531.395C388.262 519.286 396.011 506.403 396.011 506.403L397.283 488.068L398.008 488.083L455.374 489.098L456.421 489.118L458.183 504.858C468.881 518.378 474.339 535.712 473.45 553.347V553.347Z" fill="#2F2E41"/>
<path d="M425.973 352.808L452.132 351.377L464.282 371.766C464.282 371.766 487.143 375.825 485.558 404.435C483.974 433.045 457.743 458.15 457.743 458.15L458.865 454.067L456.917 459.977L457.167 463.295L459.824 466.809L460.097 470.443L457.743 476.193C458.049 476.714 458.212 477.315 458.212 477.93C458.213 478.544 458.051 479.146 457.746 479.667C457.44 480.188 457.003 480.609 456.484 480.88C455.966 481.151 455.385 481.262 454.81 481.201L417.012 477.178C416.152 474.664 415.461 471.656 412.012 476.663L408.451 476.297L393.649 474.774L392.778 471.404C392.283 469.488 392.206 467.479 392.553 465.527C392.899 463.575 393.66 461.733 394.778 460.141V460.141C393.493 455.866 393.829 451.226 395.717 447.21L395.788 447.06L397.359 445.668C397.359 445.668 380.163 418.23 399.904 397.565L407.827 383.26L416.693 371.773L425.973 352.808Z" fill="#FF4001"/>
<path d="M432.483 340.772C446.183 340.772 457.289 328.977 457.289 314.427C457.289 299.877 446.183 288.083 432.483 288.083C418.783 288.083 407.677 299.877 407.677 314.427C407.677 328.977 418.783 340.772 432.483 340.772Z" fill="#FFB6B6"/>
<path d="M451.324 352.379C449.304 350.586 447.898 348.135 447.324 345.407C446.865 348.719 446.985 352.094 447.678 355.36C446.334 356.433 445.031 357.452 443.799 358.374C442.866 355.827 441.587 353.438 440.002 351.284C439.85 354.674 439.709 358.074 439.567 361.464C437.993 362.596 436.335 363.59 434.608 364.435L435.346 363.502C440.638 355.221 426.943 339.979 432.235 331.709C433.72 329.392 427.013 311.083 421.903 310.257C417.358 309.527 417.55 310.922 413.146 311.941C412.689 309.915 411.979 307.964 411.035 306.138C411.286 308.172 411.229 310.237 410.864 312.252C409.298 312.316 408.066 311.257 406.399 310.986C395.764 309.259 396.845 297.042 399.804 293.17C402.774 289.308 412.631 288.15 417.176 286.895C417.59 286.466 418.529 286.734 418.943 286.326C427.654 277.861 439.303 276.459 449.786 280.211C460.966 284.212 467.936 291.957 471.513 303.896L472.539 313.45C473.46 316.522 472.302 330.816 471.513 333.929C468.448 346.031 461.92 339.99 451.324 352.379Z" fill="#2F2E41"/>
<path d="M487.493 477.192L486.517 396.416C486.466 392.994 485.15 389.731 482.853 387.33C480.557 384.929 477.463 383.583 474.24 383.583H474.24C472.573 383.583 470.924 383.944 469.392 384.643C467.86 385.342 466.479 386.365 465.332 387.65C464.184 388.935 463.296 390.454 462.719 392.116C462.143 393.777 461.892 395.546 461.98 397.314L465.417 481.187L465.482 532.246C463.456 533.158 461.744 534.71 460.579 536.691C459.413 538.673 458.85 540.988 458.966 543.321C459.082 545.654 459.871 547.893 461.227 549.733C462.582 551.573 464.439 552.925 466.543 553.606C468.648 554.287 470.899 554.263 472.99 553.538C475.082 552.812 476.912 551.421 478.233 549.553C479.554 547.684 480.301 545.429 480.373 543.094C480.445 540.759 479.839 538.456 478.636 536.5L487.493 477.192Z" fill="#FFB6B6"/>
<path d="M615.52 581.698C615.52 581.698 614.01 610.547 613.316 627H561.318C560.248 612.027 559.888 601.026 559.888 601.026L557.043 627H504.483L501.225 578.895L516.971 537.442C516.971 537.442 602.306 531.157 610.222 539.13C618.132 547.098 615.52 581.698 615.52 581.698Z" fill="#2F2E41"/>
<path d="M569.539 339.015C585.226 339.015 597.942 325.51 597.942 308.851C597.942 292.192 585.226 278.687 569.539 278.687C553.853 278.687 541.137 292.192 541.137 308.851C541.137 325.51 553.853 339.015 569.539 339.015Z" fill="#FFB6B6"/>
<path d="M602.645 299.049C599.728 300.462 597.838 310.694 595.545 308.315C593.252 305.937 593.405 302.841 590.313 301.963C587.817 301.251 585.13 302.065 582.853 303.348C582.447 303.575 582.052 303.821 581.668 304.066C581.415 303.886 581.162 303.716 580.891 303.56C578.854 302.403 576.477 302.119 574.249 302.767C576.01 303.393 577.54 304.591 578.625 306.192C577.863 306.734 577.091 307.278 576.301 307.76C569.705 311.803 560.318 303.012 553.374 299.709C557.724 308.377 555.582 311.967 551.806 320.931L551.675 321.441C551.89 319.195 545.344 317.52 545.723 320.683C545.993 322.929 547.823 327.92 548.847 329.902C541.547 320.938 536.558 309.967 537.611 298.651C537.84 296.273 537.771 293.765 538.926 291.702C540.082 289.649 542.491 288.208 544.623 288.991C544.442 285.382 545.186 281.789 546.775 278.593C548.364 275.397 550.738 272.717 553.646 270.84C556.554 268.963 559.887 267.958 563.29 267.931C566.693 267.905 570.039 268.858 572.973 270.69C575.698 272.389 577.974 274.791 580.472 276.864C582.971 278.936 585.851 280.742 589.019 280.913C591.029 281.016 593.216 280.495 594.942 281.601C596.942 282.883 597.285 285.569 597.585 288.153C595.801 288.34 594.11 289.087 592.728 290.3C594.574 290.1 596.432 290.523 598.038 291.509C598.069 291.524 598.098 291.542 598.125 291.562C599.183 295.833 599.074 296.779 602.645 299.049Z" fill="#2F2E41"/>
<path d="M504.609 552.035C528.797 521.968 520.627 483.724 511.027 445.119L512.854 388.088C512.943 385.291 513.665 382.557 514.959 380.119C516.253 377.68 518.08 375.607 520.287 374.076L544.979 356.945L554.589 342.188L581.081 345.001L595.772 361.5L612.032 374.684C616.115 377.994 619.222 382.475 620.986 387.599C622.75 392.722 623.098 398.274 621.989 403.601L606.428 478.338C606.428 478.338 612.936 517.082 608.965 521.361C604.994 525.64 594.761 521.363 602.876 526.167C612.614 531.931 621.469 530.868 616.541 536.101C611.612 541.335 617.849 548.611 617.849 548.611L504.609 552.035Z" fill="#FF4001"/>
<path d="M514.951 595.734L518.983 565.224L502.893 560.346L499.711 592.764C498.379 594.061 497.415 595.726 496.925 597.573C496.436 599.42 496.442 601.375 496.942 603.219C497.441 605.062 498.416 606.722 499.754 608.01C501.093 609.298 502.744 610.163 504.521 610.51C506.298 610.856 508.131 610.669 509.813 609.97C511.495 609.27 512.961 608.087 514.044 606.552C515.128 605.016 515.787 603.191 515.947 601.28C516.107 599.369 515.762 597.448 514.951 595.734V595.734Z" fill="#FFB6B6"/>
<path d="M545.582 362.444C545.582 362.444 499.784 378.274 498.692 389.857C497.6 401.44 497.963 408.531 493.129 454.88L493.384 579.732C493.384 579.732 524.088 586.713 520.939 579.249C517.79 571.784 518.889 568.272 518.889 568.272C518.889 568.272 525.472 565.513 523.824 556.748C522.177 547.984 530.441 504.548 530.441 504.548L535.656 426.65L545.582 362.444Z" fill="#FF4001"/>
<path d="M602.052 594.118L599.906 563.394L616.262 559.643L617.442 592.212C618.691 593.599 619.551 595.328 619.926 597.204C620.3 599.081 620.174 601.032 619.562 602.837C618.95 604.642 617.876 606.23 616.46 607.422C615.045 608.615 613.344 609.364 611.55 609.586C609.756 609.808 607.938 609.495 606.303 608.68C604.667 607.866 603.278 606.583 602.291 604.976C601.304 603.369 600.759 601.501 600.717 599.583C600.675 597.665 601.137 595.772 602.052 594.118H602.052Z" fill="#FFB6B6"/>
<path d="M585.844 359.201C585.844 359.201 630.57 378.177 630.947 389.81C631.324 401.444 630.526 408.495 632.496 455.08L624.558 579.647C624.558 579.647 593.489 584.483 597.091 577.252C600.692 570.022 599.812 566.442 599.812 566.442C599.812 566.442 593.413 563.232 595.597 554.6C597.781 545.968 592.208 502.053 592.208 502.053L591.797 423.959L585.844 359.201Z" fill="#FF4001"/>
</g>
</g>
<defs>
<clipPath id="clip0_647_8">
<rect width="1156" height="617" fill="white"/>
</clipPath>
<clipPath id="clip1_647_8">
<rect width="444" height="359" fill="white" transform="translate(331 268)"/>
</clipPath>
</defs>
</svg>
