<svg width="526" height="375" viewBox="0 0 526 375" fill="none" xmlns="http://www.w3.org/2000/svg">
<g clip-path="url(#clip0_154_226)">
<path d="M73.3678 369.642C113.888 369.642 146.736 335.036 146.736 292.347C146.736 249.659 113.888 215.053 73.3678 215.053C32.8479 215.053 0 249.659 0 292.347C0 335.036 32.8479 369.642 73.3678 369.642Z" fill="#F2F2F2"/>
<path d="M162.119 326.631C126.255 326.631 91.4995 313.53 63.7756 289.561C36.0518 265.591 17.0747 232.235 10.0778 195.177C3.08089 158.119 8.49705 119.651 25.4035 86.3289C42.3099 53.0063 69.6605 26.8904 102.795 12.431C135.93 -2.0284 172.798 -3.93662 207.118 7.03146C241.439 17.9995 271.087 41.1653 291.013 72.5816C310.938 103.998 319.907 141.721 316.392 179.323C312.877 216.925 297.094 252.08 271.734 278.797C257.373 294.01 240.29 306.071 221.475 314.281C202.659 322.492 182.485 326.69 162.119 326.631ZM162.119 1.24666C77.294 1.24666 8.28347 73.9503 8.28347 163.315C8.28347 252.681 77.294 325.385 162.119 325.385C246.944 325.385 315.955 252.681 315.955 163.315C315.955 73.9502 246.944 1.24666 162.119 1.24666Z" fill="#2F2E41"/>
<path d="M242.883 215.008L242.866 215.017L166.462 259.838L82.7969 215.767L81.3552 215.008L85.6973 123.517L161.251 66.793L162.085 67.3421L240.278 118.943L242.883 215.008Z" fill="#FF4001"/>
<path opacity="0.3" d="M242.866 215.017L166.462 259.838L82.7969 215.767L156.909 161.029L242.866 215.017Z" fill="black"/>
<path opacity="0.1" d="M242.883 215.008L156.909 161.029L162.085 67.3421L240.278 118.943L242.883 215.008Z" fill="black"/>
<path d="M84.5851 151.749L84.1605 151.116L160.557 94.3057L241.26 147.612L240.869 148.269L160.581 95.2365L84.5851 151.749Z" fill="#F2F2F2"/>
<path d="M83.1043 182.831L82.6913 182.19L158.7 127.823L158.899 127.943L241.328 177.16L240.964 177.834L158.735 128.735L83.1043 182.831Z" fill="#F2F2F2"/>
<path d="M112.106 231.433L111.718 230.774L188.322 180.767V84.8997H189.058V181.198L112.106 231.433Z" fill="#F2F2F2"/>
<path d="M142.173 247.269L141.782 246.613L215.543 197.872V102.862H216.278V198.301L142.173 247.269Z" fill="#F2F2F2"/>
<path d="M215.265 231.442L129.48 181.228L129.493 180.987L134.009 86.951L134.743 86.9905L130.239 180.785L215.622 230.765L215.265 231.442Z" fill="#F2F2F2"/>
<path d="M188.276 247.284L103.455 200.456L103.468 200.207L108.468 106.124L109.203 106.168L104.216 200.001L188.617 246.598L188.276 247.284Z" fill="#F2F2F2"/>
<path d="M257.379 66.6977C273.718 66.6977 286.963 52.7437 286.963 35.5306C286.963 18.3175 273.718 4.36353 257.379 4.36353C241.04 4.36353 227.795 18.3175 227.795 35.5306C227.795 52.7437 241.04 66.6977 257.379 66.6977Z" fill="#3F3D56"/>
<path d="M526 368.395H17.1586V369.642H526V368.395Z" fill="#2F2E41"/>
<path d="M466.924 200.748L473.686 220.262C473.686 220.262 466.63 242.564 473.686 243.184C480.742 243.803 481.624 221.811 481.624 221.811L477.802 198.271L466.924 200.748Z" fill="#FFB9B9"/>
<path d="M470.158 136.941L475.156 142.207V167.296C475.156 167.296 478.096 171.942 477.508 173.181C476.92 174.42 476.332 174.42 476.92 175.349C477.508 176.279 478.096 176.898 477.508 177.518C477.222 177.92 477.067 178.409 477.067 178.911C477.067 179.414 477.222 179.903 477.508 180.305C478.096 180.925 479.272 181.854 478.39 182.783C477.508 183.713 476.332 183.093 477.508 186.5C478.684 189.907 480.742 190.837 480.154 192.076C479.566 193.315 479.566 196.412 479.566 196.412L466.924 198.271L464.278 163.269L470.158 136.941Z" fill="#D0CDE1"/>
<path d="M480.154 196.103L465.453 196.722L466.042 203.226L478.978 200.748L480.154 196.103Z" fill="#3F3D56"/>
<path d="M439.728 104.573L437.964 123.158L455.898 125.945L457.221 115.259L458.545 104.573H439.728Z" fill="#FFB9B9"/>
<path opacity="0.1" d="M439.728 104.573L437.964 123.158L455.898 125.945L457.221 115.259L458.545 104.573H439.728Z" fill="black"/>
<path d="M400.772 193.005L410.768 215.616C410.768 215.616 412.532 226.148 415.178 226.457C417.824 226.767 420.47 215.616 420.47 215.616L416.942 209.731L412.826 193.005L400.772 193.005Z" fill="#FFB9B9"/>
<path d="M421.646 213.448L413.414 227.077C413.414 227.077 405.476 356.86 406.652 355.931C407.828 355.001 411.65 354.692 413.12 352.214C414.59 349.736 423.704 352.214 423.704 352.214L428.997 346.329V341.682C428.997 340.753 439.581 269.822 439.581 269.822V287.787C439.581 287.787 436.347 353.762 441.639 353.143C446.931 352.523 457.81 348.807 457.81 348.807C457.81 348.807 473.392 225.528 468.688 220.882C463.984 216.236 461.926 205.704 461.926 205.704L421.646 213.448Z" fill="#2F2E41"/>
<path d="M449.577 110.613C457.371 110.613 463.69 103.956 463.69 95.7451C463.69 87.5338 457.371 80.8773 449.577 80.8773C441.783 80.8773 435.465 87.5338 435.465 95.7451C435.465 103.956 441.783 110.613 449.577 110.613Z" fill="#FFB9B9"/>
<path d="M418.118 126.1L416.06 124.861C416.06 124.861 406.946 131.366 404.006 145.924C401.066 160.482 399.008 164.199 399.008 164.199C399.008 164.199 396.067 164.818 398.126 166.986C400.184 169.155 400.184 168.845 398.42 170.084C396.656 171.323 395.479 168.845 396.655 171.323C397.832 173.801 399.302 173.181 398.126 174.73C396.95 176.279 394.891 176.279 396.067 177.518C397.244 178.757 394.891 181.544 396.362 182.783C397.832 184.022 398.42 184.332 398.42 186.5C398.411 187.766 398.609 189.023 399.008 190.217H414.296C414.296 190.217 411.356 184.332 412.238 183.093C413.12 181.854 413.414 180.615 412.826 179.996C412.238 179.376 410.474 180.615 412.238 179.066C414.002 177.518 414.59 178.447 414.002 176.588C413.414 174.73 412.238 175.659 413.414 174.73C414.59 173.801 415.472 174.111 414.884 173.181C414.296 172.252 413.12 172.252 414.296 171.633C415.472 171.013 416.354 171.633 416.06 170.084C415.766 168.535 415.472 169.155 416.06 168.535C416.648 167.916 422.822 146.853 422.822 146.233C422.822 145.614 418.118 126.1 418.118 126.1Z" fill="#D0CDE1"/>
<path d="M415.178 188.978L396.655 190.217L401.36 194.863L414.296 195.173L415.178 188.978Z" fill="#3F3D56"/>
<path d="M420.47 212.209L416.648 219.643C416.648 219.643 428.115 221.192 432.231 222.74C436.347 224.289 446.931 226.457 446.931 226.457L449.577 215.616L420.47 212.209Z" fill="#3F3D56"/>
<path d="M453.987 215.616L457.221 225.838L470.158 223.05L468.688 213.448L453.987 215.616Z" fill="#3F3D56"/>
<path d="M459.28 115.569C459.28 115.569 458.397 114.949 456.339 116.188C454.281 117.427 447.519 118.047 444.285 114.33C441.051 110.613 438.699 107.515 437.817 108.135C436.935 108.754 436.347 115.879 436.347 115.879L433.407 118.356L416.06 124.861L417.53 166.677L420.176 176.279C420.176 176.279 418.118 183.713 420.764 188.049C423.41 192.385 419.294 193.934 419.294 193.934C419.294 193.934 418.412 195.173 419 198.271C419.588 201.368 418.412 212.829 418.412 212.829C418.412 212.829 443.403 224.599 469.57 214.377L466.63 202.607L465.16 176.279C465.16 176.279 466.63 171.942 466.336 170.084C466.042 168.225 475.156 142.207 475.156 142.207C475.156 142.207 473.686 129.198 466.042 126.41C458.398 123.622 457.221 120.834 457.221 120.834C457.221 120.834 460.75 116.808 459.28 115.569Z" fill="#D0CDE1"/>
<path d="M435.367 97.6496C435.367 97.6496 433.901 95.3337 434.465 92.8397C434.802 91.4237 434.935 89.9624 434.86 88.5048C435.49 86.3442 436.282 84.2395 437.227 82.2103C438.411 79.9537 437.847 79.0036 441.567 78.291C445.287 77.5784 443.765 72.4716 453.573 77.9941C453.904 78.4809 454.364 78.8534 454.896 79.0648C455.427 79.2762 456.007 79.3169 456.56 79.1818C458.589 78.7661 459.322 81.7352 459.322 81.7352C459.322 81.7352 460.675 80.9038 461.182 82.0915C461.69 83.2791 465.307 81.3787 465.307 89.3953C465.307 97.4119 461.191 104.573 461.191 104.573C461.191 104.573 461.492 91.0879 454.785 89.7221C448.077 88.3563 440.862 84.3777 439.115 89.4846C438.172 92.3508 436.914 95.0911 435.367 97.6496Z" fill="#2F2E41"/>
<path d="M461.338 100.856C462.068 100.856 462.661 100.024 462.661 98.9974C462.661 97.971 462.068 97.1389 461.338 97.1389C460.607 97.1389 460.015 97.971 460.015 98.9974C460.015 100.024 460.607 100.856 461.338 100.856Z" fill="#FFB9B9"/>
<path d="M453.84 347.709L455.908 354.244C455.908 354.244 455.908 360.779 457.976 364.047C460.044 367.314 462.111 374.394 453.84 374.939C445.57 375.483 441.951 372.216 441.951 372.216C441.951 372.216 443.502 367.859 441.951 366.225C440.4 364.591 441.951 361.324 441.951 361.324L443.502 348.254L453.84 347.709Z" fill="#2F2E41"/>
<path d="M413.561 347.709L411.494 354.244C411.494 354.244 411.494 360.779 409.426 364.047C407.358 367.314 405.29 374.394 413.561 374.939C421.832 375.483 425.451 372.216 425.451 372.216C425.451 372.216 423.9 367.859 425.451 366.225C427.002 364.591 425.451 361.324 425.451 361.324L423.9 348.254L413.561 347.709Z" fill="#2F2E41"/>
</g>
<defs>
<clipPath id="clip0_154_226">
<rect width="526" height="375" fill="white"/>
</clipPath>
</defs>
</svg>
