<svg width="487" height="329" viewBox="0 0 487 329" fill="none" xmlns="http://www.w3.org/2000/svg">
<g clip-path="url(#clip0_171_1090)">
<path d="M32.7739 247.92C30.4614 247.92 28.1441 248.015 25.8811 248.207L25.5518 248.235C10.5413 249.56 -0.438126 257.25 0.0134281 266.123L0.100724 267.728C0.158291 268.742 0.219627 269.832 0.270113 271.042C0.297457 271.639 1.11237 272.097 2.12637 272.097H371.347C397.379 271.939 423.317 271.74 448.435 271.506C453.146 271.516 457.854 271.272 462.539 270.776C469.519 269.951 474.364 268.315 477.352 265.775H477.353C481.068 262.625 481.185 258.658 480.961 254.177C480.503 245.128 480.049 235.622 479.596 226.145C479.196 217.792 478.798 209.462 478.4 201.486C478.153 196.753 477.606 192.576 473.387 189.383C468.813 185.93 460.473 184.18 448.597 184.18C448.453 184.18 448.311 184.18 448.165 184.18C410.946 184.313 374.067 197.097 356.398 215.993C354.364 218.169 352.468 220.498 350.634 222.751C347.925 226.08 345.124 229.521 341.781 232.598C339.972 234.287 338.014 235.811 335.933 237.152C335.79 237.251 335.626 237.357 335.452 237.458C335.055 237.717 334.639 237.966 334.235 238.188C331.864 239.556 329.366 240.69 326.777 241.575L326.515 241.663C326.318 241.733 326.105 241.803 325.892 241.868C324.396 242.347 322.842 242.762 321.286 243.097C314.55 244.58 306.892 244.936 298.524 244.153C290.839 243.415 283.253 241.871 275.891 239.546C268.142 237.099 260.889 234.049 253.874 231.1C250.793 229.803 247.606 228.464 244.424 227.194C243.825 226.955 243.237 226.722 242.64 226.488C238.753 224.975 235.228 223.725 231.866 222.667C223.536 220.036 214.913 218.44 206.192 217.917C196.935 217.41 188.778 218.365 181.952 220.748C180.07 221.403 178.238 222.191 176.469 223.108C168.384 227.302 163.4 233.492 158.581 239.478C152.585 246.923 146.386 254.623 134.144 258.615C120.018 263.225 99.3995 261.309 84.8118 257.979C80.2254 256.931 75.6447 255.727 71.2145 254.561C69.4252 254.09 67.6347 253.623 65.843 253.158C62.322 252.25 59.4405 251.554 56.7745 250.967L55.9313 250.78C55.4623 250.678 54.9928 250.576 54.5148 250.479C51.3482 249.815 48.3997 249.293 45.4959 248.882L44.8089 248.781C43.4316 248.6 42.1439 248.449 40.8803 248.322L40.3759 248.272C37.901 248.037 35.3398 247.92 32.7739 247.92Z" fill="#F2F2F2"/>
<path d="M414.57 257.822C424.959 248.47 440.412 243.768 453.374 249.012C440.078 256.386 429.821 268.221 424.419 282.423C422.355 287.907 420.632 294.222 415.556 297.158C412.398 298.985 408.469 299.075 404.928 298.193C401.387 297.311 398.141 295.542 394.939 293.792L394.029 293.771C398.118 280.412 404.181 267.175 414.57 257.822Z" fill="#E6E6E6"/>
<path d="M453.302 249.296C441.822 250.778 431.101 255.836 422.662 263.751C420.815 265.423 419.243 267.375 418.005 269.535C416.867 271.679 416.324 274.088 416.433 276.512C416.489 278.775 416.808 281.082 416.313 283.319C416.042 284.46 415.533 285.531 414.819 286.462C414.105 287.393 413.202 288.162 412.17 288.72C409.633 290.176 406.724 290.636 403.863 290.986C400.687 291.375 397.381 291.729 394.632 293.508C394.298 293.724 393.983 293.195 394.316 292.98C399.099 289.883 405.153 291.01 410.296 288.943C412.696 287.979 414.82 286.286 415.572 283.727C416.229 281.489 415.902 279.109 415.825 276.819C415.684 274.456 416.125 272.094 417.108 269.94C418.232 267.723 419.726 265.714 421.525 263.998C425.514 260.07 430.096 256.793 435.104 254.287C440.804 251.395 446.956 249.499 453.296 248.68C453.689 248.629 453.692 249.246 453.302 249.296H453.302Z" fill="white"/>
<path d="M425.229 261.042C424.092 259.448 423.559 257.501 423.726 255.551C423.893 253.6 424.749 251.772 426.14 250.393C426.423 250.115 426.868 250.54 426.585 250.819C425.287 252.1 424.49 253.803 424.339 255.62C424.187 257.437 424.691 259.248 425.758 260.727C425.99 261.048 425.459 261.362 425.229 261.042V261.042Z" fill="white"/>
<path d="M416.253 275.369C420.198 276.067 424.262 275.255 427.633 273.093C427.967 272.878 428.283 273.407 427.949 273.621C424.436 275.864 420.206 276.702 416.102 275.966C415.711 275.896 415.864 275.299 416.253 275.369Z" fill="white"/>
<path d="M440.854 252.21C441.165 252.919 441.648 253.539 442.258 254.016C442.869 254.492 443.588 254.809 444.352 254.939C444.744 255.004 444.59 255.601 444.201 255.536C443.358 255.389 442.564 255.037 441.888 254.513C441.213 253.988 440.676 253.306 440.325 252.526C440.285 252.455 440.275 252.372 440.294 252.294C440.314 252.216 440.363 252.148 440.431 252.104C440.502 252.063 440.585 252.05 440.664 252.07C440.744 252.09 440.812 252.141 440.854 252.21Z" fill="white"/>
<path d="M467.648 294.113C467.402 294.079 467.156 294.045 466.907 294.015C463.6 293.576 460.263 293.407 456.928 293.508C456.67 293.512 456.409 293.52 456.151 293.531C448.12 293.861 440.22 295.677 432.853 298.888C429.923 300.168 427.094 301.67 424.392 303.379C420.66 305.739 416.801 308.595 412.629 309.558C412.195 309.663 411.755 309.741 411.311 309.792L394.074 294.883C394.052 294.83 394.026 294.78 394.004 294.726L393.288 294.162C393.422 294.064 393.562 293.966 393.695 293.868C393.772 293.811 393.853 293.757 393.93 293.7C393.983 293.663 394.035 293.626 394.081 293.59C394.098 293.577 394.116 293.565 394.13 293.556C394.175 293.52 394.221 293.491 394.263 293.459C395.046 292.905 395.833 292.356 396.626 291.812C396.63 291.808 396.63 291.808 396.637 291.807C402.64 287.6 409.122 284.12 415.946 281.439C416.151 281.361 416.358 281.28 416.571 281.21C419.644 280.068 422.806 279.179 426.024 278.553C427.787 278.215 429.566 277.967 431.355 277.809C435.976 277.409 440.632 277.739 445.151 278.785C454.16 280.872 462.4 285.813 467.281 293.52C467.406 293.717 467.527 293.911 467.648 294.113Z" fill="#E6E6E6"/>
<path d="M467.42 294.298C457.36 288.576 445.752 286.167 434.243 287.411C431.761 287.635 429.33 288.249 427.039 289.229C424.838 290.256 422.952 291.853 421.578 293.854C420.26 295.694 419.124 297.729 417.381 299.217C416.477 299.965 415.425 300.514 414.294 300.828C413.163 301.142 411.978 301.213 410.817 301.037C407.914 300.674 405.314 299.291 402.819 297.85C400.048 296.251 397.196 294.545 393.928 294.312C393.532 294.284 393.599 293.672 393.994 293.7C399.68 294.105 403.834 298.645 409.187 300.089C411.684 300.762 414.4 300.688 416.543 299.097C418.416 297.705 419.589 295.608 420.908 293.733C422.22 291.762 423.995 290.141 426.079 289.012C428.312 287.919 430.716 287.213 433.187 286.925C438.739 286.188 444.373 286.327 449.882 287.338C456.175 288.457 462.231 290.644 467.786 293.802C468.13 293.998 467.761 294.492 467.42 294.298V294.298Z" fill="white"/>
<path d="M437.925 286.793C437.979 284.835 438.726 282.961 440.035 281.503C441.344 280.046 443.129 279.101 445.071 278.837C445.464 278.785 445.564 279.393 445.17 279.445C443.361 279.688 441.699 280.568 440.483 281.928C439.266 283.287 438.577 285.036 438.538 286.859C438.529 287.255 437.917 287.186 437.925 286.793V286.793Z" fill="white"/>
<path d="M422.124 292.833C424.853 295.763 428.588 297.558 432.583 297.86C432.979 297.89 432.912 298.502 432.516 298.472C428.36 298.15 424.477 296.274 421.644 293.219C421.374 292.928 421.856 292.543 422.124 292.833H422.124Z" fill="white"/>
<path d="M455.724 289.138C455.546 289.891 455.557 290.677 455.758 291.424C455.958 292.171 456.341 292.857 456.873 293.42C457.146 293.708 456.664 294.092 456.392 293.806C455.808 293.182 455.386 292.424 455.163 291.598C454.939 290.773 454.922 289.905 455.111 289.072C455.123 288.992 455.164 288.919 455.227 288.868C455.29 288.817 455.37 288.793 455.451 288.799C455.532 288.808 455.606 288.849 455.657 288.912C455.708 288.976 455.732 289.057 455.724 289.138Z" fill="white"/>
<path d="M142.603 267.124C151.11 254.234 166.328 244.91 181.652 246.916C169.485 258.499 161.811 274.007 159.988 290.697C159.308 297.137 159.223 304.37 154.612 308.921C151.744 311.752 147.566 312.94 143.533 312.981C139.5 313.021 135.536 312.032 131.625 311.05L130.645 311.281C131.298 295.856 134.096 280.013 142.603 267.124Z" fill="#E6E6E6"/>
<path d="M181.653 247.24C169.788 252.016 159.73 260.405 152.909 271.215C151.399 273.517 150.262 276.041 149.539 278.696C148.918 281.305 149.009 284.033 149.8 286.595C150.49 288.999 151.475 291.379 151.568 293.908C151.596 295.204 151.35 296.491 150.846 297.685C150.341 298.879 149.59 299.953 148.641 300.836C146.333 303.099 143.35 304.399 140.387 305.569C137.098 306.867 133.662 308.164 131.217 310.832C130.92 311.155 130.436 310.677 130.731 310.354C134.985 305.713 141.773 305.236 146.699 301.596C148.998 299.898 150.798 297.497 150.889 294.551C150.969 291.975 149.956 289.52 149.236 287.092C148.427 284.604 148.24 281.955 148.692 279.378C149.277 276.695 150.316 274.131 151.762 271.796C154.934 266.486 158.922 261.708 163.581 257.636C168.871 252.959 174.923 249.221 181.476 246.583C181.881 246.42 182.056 247.078 181.653 247.24L181.653 247.24Z" fill="white"/>
<path d="M154.9 267.605C153.24 266.216 152.128 264.282 151.763 262.149C151.398 260.016 151.804 257.823 152.909 255.962C153.133 255.586 153.729 255.917 153.504 256.294C152.472 258.025 152.094 260.068 152.438 262.053C152.782 264.039 153.824 265.836 155.378 267.121C155.716 267.4 155.236 267.883 154.9 267.605Z" fill="white"/>
<path d="M149.29 285.422C153.704 285.073 157.823 283.074 160.828 279.825C161.125 279.503 161.61 279.981 161.313 280.303C158.18 283.678 153.889 285.749 149.295 286.103C148.857 286.136 148.854 285.456 149.29 285.422H149.29Z" fill="white"/>
<path d="M169.152 253.817C169.682 254.488 170.371 255.018 171.156 255.357C171.942 255.697 172.8 255.836 173.653 255.763C174.09 255.724 174.092 256.405 173.658 256.443C172.715 256.52 171.768 256.365 170.899 255.992C170.03 255.618 169.266 255.038 168.674 254.302C168.612 254.237 168.577 254.151 168.577 254.062C168.576 253.972 168.609 253.886 168.67 253.82C168.734 253.757 168.82 253.72 168.91 253.72C169 253.719 169.087 253.754 169.152 253.817H169.152Z" fill="white"/>
<path d="M209.478 291.186C209.206 291.218 208.933 291.25 208.658 291.287C204.999 291.738 201.383 292.484 197.845 293.519C197.57 293.595 197.292 293.676 197.02 293.759C188.523 296.344 180.579 300.482 173.594 305.963C170.816 308.147 168.209 310.539 165.795 313.118C162.461 316.68 159.129 320.806 154.935 322.995C154.5 323.229 154.051 323.435 153.591 323.613L131.003 312.457C130.965 312.406 130.923 312.36 130.884 312.309L129.962 311.904C130.077 311.763 130.2 311.618 130.315 311.477C130.382 311.394 130.453 311.314 130.52 311.232C130.566 311.177 130.612 311.123 130.65 311.072C130.665 311.054 130.681 311.036 130.693 311.023C130.732 310.971 130.773 310.927 130.809 310.881C131.491 310.072 132.181 309.265 132.878 308.463C132.88 308.457 132.88 308.457 132.888 308.455C138.211 302.352 144.091 296.639 150.652 292C150.849 291.86 151.049 291.715 151.257 291.581C154.226 289.506 157.359 287.677 160.627 286.112C162.418 285.261 164.252 284.501 166.121 283.835C170.953 282.124 176.024 281.182 181.149 281.045C191.365 280.773 201.554 283.768 208.92 290.655C209.109 290.831 209.292 291.005 209.478 291.186Z" fill="#E6E6E6"/>
<path d="M209.286 291.448C196.933 288.124 183.847 288.773 171.885 293.302C169.292 294.232 166.863 295.563 164.685 297.249C162.617 298.959 161.046 301.191 160.133 303.713C159.235 306.047 158.587 308.539 157.137 310.615C156.379 311.666 155.407 312.546 154.284 313.196C153.162 313.846 151.915 314.251 150.624 314.386C147.418 314.805 144.252 314.048 141.182 313.2C137.774 312.259 134.248 311.228 130.688 311.887C130.257 311.967 130.158 311.294 130.588 311.214C136.782 310.067 142.49 313.768 148.616 313.825C151.475 313.851 154.359 313.017 156.208 310.72C157.824 308.711 158.494 306.142 159.383 303.77C160.237 301.297 161.684 299.07 163.598 297.284C165.683 295.493 168.057 294.07 170.619 293.076C176.352 290.744 182.417 289.328 188.59 288.878C195.633 288.326 202.718 288.981 209.54 290.816C209.962 290.93 209.705 291.56 209.286 291.448Z" fill="white"/>
<path d="M175.65 291.617C175.162 289.509 175.44 287.296 176.434 285.374C177.428 283.452 179.074 281.945 181.078 281.123C181.484 280.958 181.759 281.581 181.353 281.746C179.486 282.508 177.953 283.911 177.031 285.703C176.109 287.495 175.858 289.558 176.324 291.518C176.425 291.944 175.751 292.041 175.65 291.617H175.65Z" fill="white"/>
<path d="M160.433 302.469C164.167 304.845 168.661 305.727 173.018 304.939C173.45 304.861 173.549 305.534 173.118 305.612C168.582 306.423 163.908 305.496 160.026 303.015C159.657 302.779 160.065 302.234 160.433 302.469V302.469Z" fill="white"/>
<path d="M195.34 289.179C195.359 290.034 195.59 290.871 196.012 291.615C196.435 292.359 197.036 292.986 197.761 293.44C198.134 293.672 197.725 294.217 197.355 293.987C196.556 293.481 195.893 292.787 195.424 291.967C194.956 291.146 194.695 290.223 194.666 289.279C194.656 289.19 194.68 289.101 194.733 289.029C194.786 288.957 194.865 288.908 194.953 288.893C195.042 288.88 195.133 288.903 195.205 288.957C195.278 289.01 195.326 289.09 195.34 289.179V289.179Z" fill="white"/>
<path d="M203.148 170.486C203.712 169.925 204.147 169.247 204.42 168.5C204.694 167.753 204.801 166.955 204.733 166.163C204.665 165.37 204.423 164.602 204.026 163.913C203.628 163.224 203.085 162.63 202.433 162.173L211.323 119.19L201.731 122.213L194.578 163.796C193.883 164.941 193.632 166.301 193.874 167.618C194.115 168.936 194.832 170.119 195.888 170.943C196.945 171.768 198.267 172.177 199.605 172.092C200.943 172.008 202.203 171.436 203.148 170.486Z" fill="#FFB6B6"/>
<path d="M223.698 55.589L217.756 51.1085C217.756 51.1085 212.515 50.7377 211.586 60.1804C210.658 69.6231 204.846 105.864 204.846 105.864L195.753 147.931L208.339 150.691L218.078 105.293L227.826 73.9729L223.698 55.589Z" fill="#E6E6E6"/>
<path d="M219.171 133.428L190.67 111.29C190.226 110.944 189.937 110.437 189.867 109.879C189.797 109.321 189.952 108.758 190.297 108.314L209.689 83.3998C210.035 82.9563 210.543 82.668 211.102 82.5982C211.66 82.5284 212.224 82.6827 212.668 83.0274L241.17 105.166C241.614 105.512 241.903 106.019 241.972 106.577C242.042 107.135 241.888 107.698 241.543 108.142L222.15 133.056C221.804 133.5 221.297 133.788 220.738 133.858C220.18 133.927 219.616 133.773 219.171 133.428Z" fill="#3F3D56"/>
<path d="M219.015 131.138L192.931 110.877C192.537 110.57 192.28 110.12 192.218 109.624C192.156 109.129 192.293 108.629 192.6 108.235L210.18 85.6489C210.487 85.2551 210.938 84.9992 211.434 84.9372C211.93 84.8752 212.43 85.0122 212.825 85.3182L238.909 105.579C239.303 105.886 239.559 106.336 239.621 106.832C239.683 107.327 239.546 107.827 239.24 108.221L221.66 130.807C221.353 131.201 220.902 131.457 220.406 131.519C219.91 131.581 219.41 131.444 219.015 131.138Z" fill="white"/>
<path d="M196.35 110.303C196.252 110.226 196.188 110.113 196.172 109.989C196.157 109.866 196.191 109.741 196.268 109.642L205.136 98.2482C205.213 98.1496 205.326 98.0856 205.45 98.07C205.511 98.0624 205.573 98.0669 205.633 98.0832C205.693 98.0996 205.749 98.1276 205.797 98.1655C205.846 98.2035 205.887 98.2506 205.918 98.3044C205.948 98.3581 205.968 98.4173 205.976 98.4787C205.983 98.54 205.979 98.6022 205.963 98.6619C205.946 98.7215 205.918 98.7773 205.88 98.8261L197.012 110.22C196.935 110.318 196.822 110.382 196.698 110.398C196.574 110.413 196.449 110.379 196.35 110.303Z" fill="#E4E4E4"/>
<path d="M197.82 111.444C197.722 111.368 197.658 111.255 197.642 111.131C197.627 111.007 197.661 110.882 197.737 110.784L206.606 99.3898C206.683 99.2912 206.796 99.2272 206.92 99.2117C207.044 99.1962 207.169 99.2305 207.267 99.3071C207.366 99.3838 207.43 99.4964 207.446 99.6203C207.461 99.7442 207.427 99.8691 207.35 99.9677L198.481 111.362C198.405 111.46 198.292 111.524 198.168 111.54C198.044 111.555 197.919 111.521 197.82 111.444Z" fill="#E4E4E4"/>
<path d="M204.314 106.131C204.216 106.054 204.152 105.942 204.136 105.818C204.121 105.694 204.155 105.569 204.232 105.471L208.076 100.532C208.114 100.483 208.161 100.442 208.215 100.411C208.269 100.38 208.328 100.361 208.39 100.353C208.451 100.345 208.513 100.35 208.573 100.366C208.633 100.382 208.689 100.41 208.738 100.448C208.787 100.486 208.828 100.533 208.858 100.587C208.889 100.641 208.908 100.7 208.916 100.762C208.924 100.823 208.919 100.886 208.903 100.945C208.886 101.005 208.858 101.061 208.82 101.109L204.976 106.048C204.899 106.147 204.786 106.211 204.662 106.226C204.538 106.242 204.413 106.208 204.314 106.131Z" fill="#E4E4E4"/>
<path d="M206.296 115.823C206.198 115.747 206.134 115.634 206.118 115.51C206.103 115.386 206.137 115.261 206.214 115.163L220.214 97.1753C220.252 97.1265 220.3 97.0856 220.353 97.0551C220.407 97.0245 220.466 97.0048 220.528 96.9972C220.589 96.9895 220.652 96.994 220.711 97.0104C220.771 97.0267 220.827 97.0547 220.876 97.0926C220.924 97.1306 220.965 97.1778 220.996 97.2315C221.027 97.2852 221.046 97.3444 221.054 97.4058C221.062 97.4671 221.057 97.5294 221.041 97.589C221.024 97.6486 220.996 97.7044 220.958 97.7532L206.957 115.741C206.881 115.839 206.768 115.903 206.644 115.919C206.52 115.934 206.395 115.9 206.296 115.823Z" fill="#E4E4E4"/>
<path d="M207.766 116.965C207.668 116.888 207.604 116.776 207.588 116.652C207.572 116.528 207.607 116.403 207.683 116.304L221.684 98.3169C221.722 98.2681 221.769 98.2273 221.823 98.1967C221.877 98.1661 221.936 98.1465 221.998 98.1388C222.059 98.1311 222.121 98.1356 222.181 98.152C222.241 98.1683 222.297 98.1963 222.345 98.2342C222.394 98.2722 222.435 98.3194 222.466 98.3731C222.496 98.4269 222.516 98.4861 222.524 98.5474C222.531 98.6087 222.527 98.671 222.511 98.7306C222.494 98.7902 222.466 98.846 222.428 98.8948L208.427 116.882C208.351 116.981 208.238 117.045 208.114 117.06C207.99 117.076 207.865 117.041 207.766 116.965Z" fill="#E4E4E4"/>
<path d="M211.103 119.557C211.004 119.48 210.94 119.367 210.925 119.244C210.909 119.12 210.943 118.995 211.02 118.896L225.021 100.909C225.059 100.86 225.106 100.819 225.16 100.788C225.214 100.758 225.273 100.738 225.334 100.731C225.396 100.723 225.458 100.727 225.518 100.744C225.577 100.76 225.633 100.788 225.682 100.826C225.731 100.864 225.772 100.911 225.802 100.965C225.833 101.019 225.853 101.078 225.86 101.139C225.868 101.201 225.864 101.263 225.847 101.322C225.831 101.382 225.803 101.438 225.765 101.487L211.764 119.474C211.687 119.572 211.574 119.636 211.45 119.652C211.326 119.667 211.201 119.633 211.103 119.557Z" fill="#E4E4E4"/>
<path d="M212.573 120.698C212.474 120.622 212.41 120.509 212.395 120.385C212.379 120.261 212.413 120.136 212.49 120.038L226.491 102.05C226.529 102.002 226.576 101.961 226.63 101.93C226.683 101.9 226.743 101.88 226.804 101.872C226.866 101.864 226.928 101.869 226.988 101.885C227.047 101.902 227.103 101.93 227.152 101.968C227.201 102.006 227.242 102.053 227.272 102.107C227.303 102.16 227.323 102.219 227.33 102.281C227.338 102.342 227.333 102.404 227.317 102.464C227.301 102.524 227.273 102.579 227.235 102.628L213.234 120.616C213.157 120.714 213.044 120.778 212.92 120.794C212.796 120.809 212.671 120.775 212.573 120.698Z" fill="#E4E4E4"/>
<path d="M215.909 123.29C215.811 123.213 215.747 123.101 215.731 122.977C215.716 122.853 215.75 122.728 215.826 122.63L229.827 104.642C229.865 104.593 229.913 104.552 229.966 104.522C230.02 104.491 230.079 104.472 230.141 104.464C230.202 104.456 230.264 104.461 230.324 104.477C230.384 104.494 230.44 104.521 230.489 104.559C230.537 104.597 230.578 104.645 230.609 104.698C230.639 104.752 230.659 104.811 230.667 104.873C230.675 104.934 230.67 104.996 230.654 105.056C230.637 105.115 230.609 105.171 230.571 105.22L216.57 123.207C216.494 123.306 216.381 123.37 216.257 123.385C216.133 123.401 216.008 123.367 215.909 123.29Z" fill="#E4E4E4"/>
<path d="M217.379 124.432C217.281 124.355 217.216 124.242 217.201 124.119C217.185 123.995 217.22 123.87 217.296 123.771L231.297 105.784C231.374 105.686 231.487 105.622 231.611 105.607C231.734 105.591 231.859 105.626 231.958 105.702C232.056 105.779 232.12 105.891 232.136 106.015C232.151 106.138 232.117 106.263 232.041 106.362L218.04 124.349C217.964 124.448 217.851 124.512 217.727 124.527C217.603 124.543 217.478 124.508 217.379 124.432Z" fill="#E4E4E4"/>
<path d="M193.979 145.321C194.086 145.321 194.173 145.235 194.173 145.128C194.173 145.021 194.086 144.935 193.979 144.935C193.872 144.935 193.786 145.021 193.786 145.128C193.786 145.235 193.872 145.321 193.979 145.321Z" fill="white"/>
<path d="M222.171 12.1505C221.49 15.8028 220.374 19.3606 218.847 22.7478C210.101 41.2312 235.009 35.2066 243.91 35.2066C253.642 35.2066 262.954 40.3188 261.532 17.6033C260.924 7.90021 253.642 0 243.91 0C235.597 0 223.909 3.69106 222.171 12.1505Z" fill="#2F2E41"/>
<path d="M252.981 283.235H244.69L240.744 251.285H252.981V283.235Z" fill="#FFB6B6"/>
<path d="M257.358 297.587H251.412L250.35 291.978L247.632 297.587H231.86C231.104 297.587 230.368 297.345 229.759 296.898C229.15 296.45 228.701 295.82 228.476 295.099C228.251 294.378 228.262 293.604 228.509 292.89C228.755 292.176 229.224 291.56 229.846 291.131L242.44 282.442V276.772L255.688 277.562L257.358 297.587Z" fill="#2F2E41"/>
<path d="M302.243 272.781L295.589 277.724L273.339 254.439L283.159 247.144L302.243 272.781Z" fill="#FFB6B6"/>
<path d="M314.328 281.689L309.557 285.234L305.355 281.366L306.523 287.487L293.868 296.888C293.261 297.339 292.526 297.584 291.77 297.588C291.014 297.592 290.277 297.354 289.666 296.91C289.054 296.465 288.601 295.837 288.373 295.117C288.144 294.398 288.152 293.624 288.395 292.908L293.311 278.428L289.924 273.879L301.026 266.616L314.328 281.689Z" fill="#2F2E41"/>
<path d="M225.825 136.194L265.186 130.069L257.358 106.546H225.825V136.194Z" fill="#FFB6B6"/>
<path d="M262.635 118.394C262.635 118.394 278.368 131.972 271.109 170.679L262.247 208.606L286.391 250.48L274.115 257.169L244.361 215.859L230.746 183.956L223.544 128.042L262.635 118.394Z" fill="#2F2E41"/>
<path d="M238.25 193.047L237.304 207.687L240.074 251.037L253.826 255.767L256.431 211.35L238.25 193.047Z" fill="#2F2E41"/>
<path d="M234.022 40.0787L249.237 40.6717L255.301 50.7268L269.136 53.4248L260.877 95.1631L262.396 118.92L248.62 118.836C238.692 118.776 229.091 122.379 221.659 128.954L222.071 98.1159L216.146 75.0954L217.477 50.9569L228.607 49.5672L234.022 40.0787Z" fill="#E6E6E6"/>
<path d="M242.452 35.2022C250.36 35.2022 256.771 28.7978 256.771 20.8975C256.771 12.9973 250.36 6.5929 242.452 6.5929C234.543 6.5929 228.132 12.9973 228.132 20.8975C228.132 28.7978 234.543 35.2022 242.452 35.2022Z" fill="#FFB6B6"/>
<path d="M232.727 6.3159C235.236 4.78778 238.111 3.96114 241.049 3.92244C243.988 3.88375 246.883 4.6344 249.431 6.09591C251.98 7.55743 254.089 9.67612 255.537 12.2305C256.986 14.7848 257.721 17.681 257.665 20.6161C250.368 22.4462 242.703 23.8467 234.922 21.0539L233.084 16.5612L232.001 21.0572C229.631 22.0248 227.255 22.8434 224.879 21.0478C224.782 18.121 225.456 15.2199 226.833 12.6347C228.211 10.0494 230.243 7.87056 232.727 6.3159Z" fill="#2F2E41"/>
<path d="M266.487 147.76L268.418 165.26C268.552 165.697 268.823 166.079 269.191 166.35C269.559 166.621 270.004 166.768 270.462 166.768H279.36C279.817 166.768 280.262 166.622 280.63 166.35C280.998 166.079 281.269 165.697 281.404 165.26L283.002 151.847C283.464 152.073 283.972 152.186 284.486 152.178C285 152.169 285.505 152.039 285.958 151.798C286.412 151.556 286.802 151.211 287.096 150.79C287.39 150.368 287.579 149.884 287.649 149.375C287.719 148.866 287.667 148.348 287.497 147.864C287.328 147.379 287.045 146.941 286.673 146.587C286.302 146.233 285.851 145.971 285.358 145.825C284.865 145.679 284.345 145.651 283.84 145.745C283.64 145.509 283.392 145.32 283.111 145.191C282.831 145.061 282.526 144.995 282.217 144.995H268.531C268.197 144.996 267.867 145.074 267.568 145.225C267.269 145.375 267.01 145.594 266.811 145.863C266.612 146.132 266.48 146.443 266.423 146.773C266.367 147.102 266.389 147.44 266.487 147.76ZM283.282 150.94L284.261 147.76C284.375 147.393 284.386 147.002 284.293 146.629C284.335 146.627 284.375 146.617 284.417 146.617C285.032 146.617 285.622 146.861 286.057 147.295C286.491 147.73 286.736 148.319 286.736 148.933C286.736 149.547 286.491 150.137 286.057 150.571C285.622 151.005 285.032 151.249 284.417 151.249C284.018 151.247 283.627 151.14 283.282 150.94Z" fill="white"/>
<path d="M279.905 166.78C279.343 166.216 278.912 165.536 278.642 164.788C278.372 164.04 278.27 163.241 278.342 162.449C278.414 161.657 278.659 160.89 279.06 160.203C279.461 159.516 280.008 158.925 280.662 158.471L271.99 115.443L281.567 118.515L288.508 160.134C289.198 161.282 289.441 162.644 289.193 163.96C288.945 165.276 288.222 166.455 287.162 167.274C286.101 168.093 284.777 168.496 283.439 168.405C282.102 168.313 280.844 167.735 279.905 166.78Z" fill="#FFB6B6"/>
<path d="M263.194 57.9053L269.136 53.4248C269.136 53.4248 274.377 53.054 275.306 62.4967C276.234 71.9394 282.047 108.18 282.047 108.18L291.139 150.247L278.553 153.007L268.814 107.609L259.066 76.2892L263.194 57.9053Z" fill="#E6E6E6"/>
<path d="M211.913 97.0739C213.77 97.0739 215.276 95.5696 215.276 93.714C215.276 91.8583 213.77 90.354 211.913 90.354C210.055 90.354 208.549 91.8583 208.549 93.714C208.549 95.5696 210.055 97.0739 211.913 97.0739Z" fill="white"/>
<path d="M104.657 322.213L111.667 322.212L115.002 295.204L104.656 295.205L104.657 322.213Z" fill="#FFB6B6"/>
<path d="M102.87 319.926L104.842 319.926L112.545 316.797L116.674 319.926H116.674C119.007 319.926 121.245 320.852 122.895 322.5C124.544 324.148 125.471 326.383 125.471 328.714V328.999L102.87 329L102.87 319.926Z" fill="#2F2E41"/>
<path d="M131.821 317.8L138.658 319.342L147.866 293.731L137.775 291.455L131.821 317.8Z" fill="#FFB6B6"/>
<path d="M130.581 315.176L132.505 315.611L140.709 314.253L144.046 318.214L144.047 318.214C146.322 318.727 148.301 320.123 149.546 322.093C150.792 324.064 151.204 326.448 150.69 328.721L150.627 329L128.58 324.027L130.581 315.176Z" fill="#2F2E41"/>
<path d="M91.8252 183.286L98.1637 254.228C98.1637 254.228 95.7887 296.818 103.452 311.805H114.567L120.07 250.338L120.761 209.081L144.588 243.888L129.412 310.8L143.091 312.022L167.719 239.407L140.662 171.238L91.8252 183.286Z" fill="#2F2E41"/>
<path d="M98.4636 70.3128C107.492 70.3128 114.81 63.0018 114.81 53.9832C114.81 44.9647 107.492 37.6537 98.4636 37.6537C89.4356 37.6537 82.117 44.9647 82.117 53.9832C82.117 63.0018 89.4356 70.3128 98.4636 70.3128Z" fill="#FFB8B8"/>
<path d="M127.2 85.874L113.789 80.1259L107.261 73.2087L90.952 75.8362L86.6249 83.2478L72.6175 96.2589L89.0288 170.386L88.532 186.576C88.532 186.576 99.0357 191.299 144.588 180.423C145.135 180.293 143.991 179.722 143.991 179.722L127.2 85.874Z" fill="#3F3D56"/>
<path d="M81.4656 63.2489C81.3517 63.0937 81.2389 62.9371 81.1273 62.7792C81.0823 62.874 81.0466 62.972 80.9952 63.0645L81.4656 63.2489Z" fill="#2F2E41"/>
<path d="M114.724 42.0388C113.632 39.6609 111.683 37.7808 109.267 36.7719C106.871 35.8068 104.194 35.8092 101.801 36.7785C99.6397 35.4145 97.2386 34.3332 94.7098 34.1993C92.1811 34.0654 89.5075 35.0026 87.9491 37.0655C87.6011 37.61 87.2059 38.123 86.7679 38.5984C85.5153 39.7572 83.6116 39.5901 81.9467 39.3531C82.6934 39.9925 83.4404 40.6319 84.1876 41.2712C83.2836 41.5071 82.3795 41.743 81.4754 41.9789C82.5304 42.6181 83.5853 43.2573 84.6401 43.8964C81.5776 45.7327 80.1856 49.7406 80.5533 53.3806C80.9012 56.8268 82.5667 59.9781 84.5577 62.7791C85.352 61.1048 85.1809 59.1014 85.1677 57.2156C85.1541 55.2231 85.5069 52.9606 87.1052 51.847C88.1834 51.0958 89.5697 51.0623 90.8698 51.0694C97.4278 51.1054 103.978 51.5139 110.49 52.293C111.374 52.3312 112.235 52.5808 113.002 53.0208C114.442 54.0022 114.723 56.0274 114.867 57.8041C115.628 54.8705 116 51.8498 115.975 48.8195C116.039 46.4966 115.613 44.1863 114.724 42.0388Z" fill="#2F2E41"/>
<path d="M119.813 233.016C134.023 233.016 145.542 221.509 145.542 207.315C145.542 193.12 134.023 181.613 119.813 181.613C105.604 181.613 94.085 193.12 94.085 207.315C94.085 221.509 105.604 233.016 119.813 233.016Z" fill="white"/>
<path d="M119.813 181.042C118.491 181.042 117.17 181.142 115.863 181.339C115.194 181.436 114.542 181.562 113.896 181.716C109.149 182.809 104.8 185.198 101.334 188.616C97.8672 192.034 95.4195 196.348 94.2638 201.074C93.1082 205.801 93.29 210.756 94.7889 215.386C96.2878 220.015 99.045 224.138 102.753 227.294C103.193 227.665 103.639 228.025 104.102 228.367C107.44 230.853 111.321 232.512 115.426 233.207C119.531 233.902 123.742 233.613 127.714 232.364C131.685 231.116 135.303 228.943 138.27 226.024C141.236 223.106 143.466 219.525 144.777 215.578C146.088 211.63 146.441 207.428 145.808 203.317C145.175 199.206 143.574 195.304 141.137 191.932C138.7 188.56 135.496 185.815 131.788 183.921C128.081 182.028 123.977 181.041 119.813 181.042V181.042ZM119.813 232.445C114.464 232.451 109.254 230.744 104.948 227.573C104.479 227.231 104.028 226.877 103.587 226.5C99.9751 223.456 97.2947 219.456 95.8538 214.96C94.4129 210.464 94.2698 205.653 95.4409 201.079C96.6119 196.505 99.0498 192.353 102.475 189.1C105.9 185.847 110.173 183.625 114.805 182.687C115.445 182.556 116.086 182.453 116.738 182.373C117.758 182.247 118.785 182.184 119.813 182.184C126.485 182.184 132.884 184.832 137.602 189.545C142.32 194.258 144.97 200.65 144.97 207.315C144.97 213.98 142.32 220.372 137.602 225.085C132.884 229.798 126.485 232.445 119.813 232.445Z" fill="#3F3D56"/>
<path d="M107.194 202.175H132.433C133.358 202.175 134.107 201.426 134.107 200.502V200.42C134.107 199.496 133.358 198.748 132.433 198.748H107.194C106.269 198.748 105.52 199.496 105.52 200.42V200.502C105.52 201.426 106.269 202.175 107.194 202.175Z" fill="white"/>
<path d="M107.194 209.028H132.433C133.358 209.028 134.107 208.28 134.107 207.356V207.274C134.107 206.35 133.358 205.601 132.433 205.601H107.194C106.269 205.601 105.52 206.35 105.52 207.274V207.356C105.52 208.28 106.269 209.028 107.194 209.028Z" fill="white"/>
<path d="M107.194 215.882H132.433C133.358 215.882 134.107 215.133 134.107 214.21V214.128C134.107 213.204 133.358 212.455 132.433 212.455H107.194C106.269 212.455 105.52 213.204 105.52 214.128V214.21C105.52 215.133 106.269 215.882 107.194 215.882Z" fill="white"/>
<path d="M407.659 321.341L400.309 321.34L396.812 293.02L407.66 293.021L407.659 321.341Z" fill="#9E616A"/>
<path d="M372.887 321.341L365.537 321.34L362.041 293.02L372.888 293.021L372.887 321.341Z" fill="#9E616A"/>
<path d="M373.146 329L350.544 328.999V328.714C350.545 326.383 351.471 324.148 353.121 322.5C354.771 320.852 357.008 319.926 359.341 319.926H359.342L363.471 316.797L371.173 319.926L373.146 319.926L373.146 329Z" fill="#2F2E41"/>
<path d="M408.86 329L386.259 328.999V328.714C386.259 326.383 387.186 324.148 388.836 322.5C390.485 320.852 392.723 319.926 395.056 319.926H395.057L399.185 316.797L406.888 319.926L408.861 319.926L408.86 329Z" fill="#2F2E41"/>
<path d="M365.677 153.734L354.507 221.679L357.547 231.804L353.558 238.975L359.416 301.951L357.038 307.181L363.682 311.274H377.201L377.919 254.261L381.258 245.891V241.277L388.056 206.512L389.308 255.198L391.285 263.582L389.624 269.551L391.795 273.733L397.56 312.516H412.719L411.547 303.493C412.867 302.826 413.928 301.738 414.562 300.402C415.197 299.067 415.369 297.558 415.052 296.114L414.182 292.159L416.161 280.466L419.763 215.231L418.747 162.594L401.014 149.047L365.677 153.734Z" fill="#2F2E41"/>
<path d="M391.285 66.4848C399.064 66.4848 405.37 60.1857 405.37 52.4153C405.37 44.645 399.064 38.3458 391.285 38.3458C383.507 38.3458 377.201 44.645 377.201 52.4153C377.201 60.1857 383.507 66.4848 391.285 66.4848Z" fill="#9E616A"/>
<path d="M360.513 180.697C361.126 180.064 361.592 179.305 361.88 178.473C362.167 177.641 362.269 176.755 362.177 175.88C362.085 175.004 361.801 174.159 361.347 173.405C360.893 172.651 360.279 172.005 359.548 171.513L365.024 150.823L354.473 154.369L350.889 173.473C350.144 174.754 349.895 176.265 350.19 177.717C350.485 179.17 351.303 180.464 352.489 181.355C353.675 182.245 355.147 182.67 356.626 182.549C358.105 182.428 359.488 181.769 360.513 180.697H360.513Z" fill="#9E616A"/>
<path d="M366.277 81.3612L364.012 80.8917L362.08 81.9601C362.08 81.9601 356.685 89.1467 356.685 95.7344C356.685 102.322 350.09 165.804 350.09 165.804L362.08 171.194L371.672 121.486L366.277 81.3612Z" fill="#E6E6E6"/>
<path d="M403.619 42.0998C403.619 42.0998 407.303 35.0651 399.199 34.4255C399.199 34.4255 392.29 28.1648 385.248 33.281C385.248 33.281 381.407 33.281 379.306 37.6232C379.306 37.6232 376.285 36.4786 375.621 39.5417C375.621 39.5417 373.411 45.937 375.621 51.6927C377.832 57.4484 378.566 58.0879 378.566 58.0879C378.566 58.0879 374.934 46.0207 383.775 45.3812C392.617 44.7417 402.511 39.222 403.248 46.2567C403.985 53.2915 405.094 55.0248 405.094 55.0248C405.094 55.0248 412.092 44.9777 403.619 42.0998Z" fill="#2F2E41"/>
<path d="M455.068 238.975C454.005 238.977 452.979 238.586 452.187 237.877L409.564 199.975C408.705 199.21 408.185 198.135 408.118 196.987C408.051 195.839 408.443 194.712 409.207 193.852L436.512 163.21C437.279 162.352 438.354 161.832 439.504 161.765C440.653 161.699 441.782 162.09 442.642 162.854L485.266 200.756C486.126 201.521 486.647 202.596 486.714 203.744C486.78 204.892 486.388 206.02 485.622 206.879L458.317 237.521C457.939 237.948 457.48 238.296 456.966 238.544C456.453 238.792 455.895 238.936 455.326 238.968C455.24 238.973 455.154 238.975 455.068 238.975Z" fill="white"/>
<path d="M455.068 239.254C453.936 239.256 452.844 238.84 452.002 238.086L409.378 200.184C408.464 199.369 407.911 198.225 407.84 197.003C407.769 195.781 408.186 194.581 408.999 193.666L436.304 163.024C437.12 162.111 438.265 161.559 439.488 161.488C440.71 161.417 441.912 161.833 442.828 162.645L485.452 200.548C486.367 201.362 486.921 202.506 486.992 203.728C487.063 204.95 486.645 206.15 485.831 207.065L458.525 237.707C458.123 238.161 457.635 238.531 457.088 238.795C456.542 239.059 455.948 239.213 455.342 239.246C455.25 239.251 455.159 239.254 455.068 239.254ZM439.757 162.594C439.263 162.593 438.773 162.697 438.322 162.899C437.87 163.101 437.466 163.396 437.138 163.766L409.833 194.408C409.216 195.102 408.899 196.012 408.953 196.939C409.007 197.865 409.427 198.733 410.12 199.351L452.744 237.253C453.087 237.559 453.488 237.794 453.923 237.945C454.358 238.096 454.818 238.16 455.277 238.133C455.737 238.106 456.187 237.99 456.601 237.789C457.015 237.589 457.386 237.309 457.692 236.965L484.997 206.323C485.615 205.63 485.932 204.719 485.878 203.793C485.824 202.866 485.404 201.998 484.709 201.381L442.086 163.478C441.445 162.907 440.616 162.592 439.757 162.594H439.757Z" fill="#3F3D56"/>
<path d="M470.524 209.955C470.064 209.956 469.62 209.787 469.276 209.481L435.818 179.729C435.633 179.566 435.482 179.367 435.374 179.145C435.266 178.923 435.202 178.682 435.188 178.435C435.173 178.189 435.207 177.942 435.288 177.708C435.369 177.475 435.495 177.26 435.66 177.076C435.824 176.891 436.023 176.741 436.246 176.633C436.469 176.526 436.71 176.464 436.957 176.45C437.204 176.436 437.451 176.471 437.684 176.552C437.918 176.634 438.133 176.761 438.317 176.926L471.775 206.678C472.059 206.931 472.26 207.264 472.351 207.634C472.441 208.003 472.417 208.392 472.281 208.747C472.146 209.103 471.905 209.409 471.591 209.625C471.277 209.84 470.905 209.956 470.524 209.955Z" fill="white"/>
<path d="M464.143 217.117C463.682 217.118 463.238 216.949 462.894 216.643L429.437 186.891C429.252 186.727 429.102 186.528 428.995 186.306C428.887 186.085 428.825 185.844 428.81 185.598C428.796 185.352 428.831 185.105 428.912 184.873C428.993 184.64 429.119 184.425 429.283 184.241C429.447 184.057 429.646 183.907 429.868 183.8C430.09 183.693 430.331 183.63 430.577 183.616C430.823 183.601 431.07 183.636 431.303 183.717C431.536 183.798 431.751 183.924 431.935 184.088L465.393 213.84C465.678 214.093 465.879 214.426 465.969 214.796C466.06 215.165 466.035 215.554 465.9 215.909C465.764 216.265 465.523 216.571 465.209 216.786C464.896 217.002 464.524 217.117 464.143 217.117H464.143Z" fill="white"/>
<path d="M457.761 224.279C457.3 224.28 456.856 224.111 456.512 223.805L423.054 194.053C422.87 193.889 422.719 193.691 422.612 193.469C422.504 193.247 422.441 193.006 422.426 192.76C422.412 192.514 422.446 192.267 422.527 192.034C422.608 191.801 422.735 191.586 422.899 191.402C423.063 191.218 423.262 191.068 423.484 190.96C423.707 190.853 423.948 190.79 424.194 190.776C424.441 190.762 424.688 190.797 424.921 190.878C425.154 190.959 425.369 191.085 425.553 191.25L459.011 221.002C459.295 221.255 459.496 221.588 459.587 221.958C459.677 222.327 459.653 222.716 459.518 223.071C459.382 223.427 459.141 223.733 458.828 223.949C458.514 224.164 458.142 224.28 457.761 224.279H457.761Z" fill="white"/>
<path d="M419.499 181.918C419.07 181.149 418.814 180.296 418.751 179.418C418.687 178.539 418.818 177.658 419.132 176.836C419.446 176.013 419.938 175.27 420.571 174.657C421.204 174.045 421.964 173.579 422.797 173.291L422.833 151.891L432.117 158.029L430.659 177.41C431.049 178.84 430.901 180.364 430.242 181.692C429.583 183.02 428.459 184.06 427.083 184.616C425.708 185.172 424.176 185.204 422.778 184.707C421.38 184.209 420.213 183.217 419.499 181.918H419.499Z" fill="#9E616A"/>
<path d="M420.357 87.2258L424.504 83.2324L427.551 85.4291C427.551 85.4291 430.549 89.0224 432.947 99.8023C435.345 110.582 432.947 169.872 432.947 169.872L419.758 168.075L421.556 136.933L416.16 110.582L420.357 87.2258Z" fill="#E6E6E6"/>
<path d="M426.481 84.2066L412.508 77.539L403.022 68.7491L385.722 68.6198L380.142 75.8667L365.41 80.8658L367.865 131.612L366.191 135.514C366.191 135.514 367.357 136.567 367.89 137.156C368.423 137.744 367.154 142.672 367.154 142.672L366.438 148.034L368.423 149.451L365.843 152.496L365.202 157.295C365.202 157.295 410.244 146.112 418.755 164.638C419.205 165.617 418.097 156.051 418.097 156.051L416.99 149.047L418.089 142.761L419.763 141.089L416.955 138.284L418.755 124.975L426.481 84.2066Z" fill="#3F3D56"/>
<path d="M109.604 196.707C109.951 195.828 110.101 194.883 110.042 193.939C109.984 192.996 109.719 192.077 109.267 191.246C108.814 190.416 108.185 189.695 107.424 189.134C106.662 188.573 105.787 188.185 104.859 187.999L101.755 165.23L92.7553 173.089L97.0826 193.505C96.8722 195.083 97.2484 196.683 98.14 198.002C99.0315 199.321 100.376 200.268 101.92 200.662C103.463 201.057 105.098 200.872 106.514 200.143C107.931 199.414 109.03 198.192 109.604 196.707V196.707Z" fill="#FFB8B8"/>
<path d="M74.3445 95.8425L71.9052 96.3093L70.4307 98.1637C70.4307 98.1637 68.0453 107.51 70.7626 114.042C73.48 120.574 93.1267 186.231 93.1267 186.231L107.238 186.64L96.2454 133.406L74.3445 95.8425Z" fill="#3F3D56"/>
<path d="M129.977 193.367C129.327 192.68 128.835 191.859 128.537 190.962C128.239 190.065 128.142 189.113 128.251 188.174C128.361 187.235 128.676 186.332 129.173 185.528C129.67 184.723 130.338 184.038 131.129 183.519L125.511 161.236L136.795 165.176L140.4 185.732C141.184 187.118 141.432 188.743 141.098 190.299C140.763 191.855 139.868 193.234 138.583 194.175C137.298 195.116 135.712 195.553 134.126 195.405C132.54 195.256 131.064 194.531 129.977 193.367Z" fill="#FFB8B8"/>
<path d="M125.046 86.643L127.484 86.1675L129.544 87.339C129.544 87.339 135.246 95.123 135.163 102.196C135.08 109.269 141.356 177.509 141.356 177.509L128.414 183.144L118.745 129.655L125.046 86.643Z" fill="#3F3D56"/>
</g>
<defs>
<clipPath id="clip0_171_1090">
<rect width="487" height="329" fill="white"/>
</clipPath>
</defs>
</svg>
