<svg width="393" height="411" viewBox="0 0 393 411" fill="none" xmlns="http://www.w3.org/2000/svg">
<path d="M274.129 50.1368L273.376 50.9266L325.039 100.047L325.792 99.2575L274.129 50.1368Z" fill="#E6E6E6"/>
<path d="M325.874 93.9312L324.784 93.997L325.113 99.3635L319.729 99.2989L319.717 100.39L326.274 100.467L325.874 93.9312Z" fill="#E6E6E6"/>
<path d="M279.451 49.7936L279.44 50.8844L274.056 50.8198L274.385 56.1863L273.294 56.2522L272.895 49.7153L279.451 49.7936Z" fill="#E6E6E6"/>
<path d="M299.584 81.0893C302.9 81.0893 305.589 78.4043 305.589 75.0921C305.589 71.7799 302.9 69.0948 299.584 69.0948C296.267 69.0948 293.578 71.7799 293.578 75.0921C293.578 78.4043 296.267 81.0893 299.584 81.0893Z" fill="#E6E6E6"/>
<path d="M119.963 50.1368L68.2999 99.2576L69.0529 100.047L120.716 50.9267L119.963 50.1368Z" fill="#E6E6E6"/>
<path d="M67.818 100.467L74.3754 100.39L74.363 99.2989L68.9795 99.3635L69.3087 93.997L68.2178 93.9312L67.818 100.467Z" fill="#E6E6E6"/>
<path d="M121.197 49.7153L120.798 56.2522L119.707 56.1863L120.036 50.8198L114.652 50.8844L114.64 49.7936L121.197 49.7153Z" fill="#E6E6E6"/>
<path d="M94.508 81.0893C97.8246 81.0893 100.513 78.4043 100.513 75.0921C100.513 71.7799 97.8246 69.0948 94.508 69.0948C91.1914 69.0948 88.5027 71.7799 88.5027 75.0921C88.5027 78.4043 91.1914 81.0893 94.508 81.0893Z" fill="#E6E6E6"/>
<path d="M241.813 124.307H151.187C149.885 124.305 148.636 123.788 147.715 122.868C146.793 121.948 146.275 120.701 146.274 119.4V4.90683C146.275 3.60591 146.793 2.35871 147.715 1.43882C148.636 0.51893 149.885 0.00148148 151.187 0H241.813C243.115 0.00148148 244.364 0.51893 245.285 1.43882C246.207 2.35871 246.725 3.60591 246.726 4.90683V119.4C246.725 120.701 246.207 121.948 245.285 122.868C244.364 123.788 243.115 124.305 241.813 124.307ZM151.187 1.09041C150.174 1.09155 149.203 1.494 148.486 2.20947C147.77 2.92494 147.367 3.895 147.366 4.90683V119.4C147.367 120.412 147.77 121.382 148.486 122.097C149.203 122.813 150.174 123.215 151.187 123.216H241.813C242.826 123.215 243.797 122.813 244.514 122.097C245.23 121.382 245.633 120.412 245.634 119.4V4.90683C245.633 3.895 245.23 2.92494 244.514 2.20947C243.797 1.494 242.826 1.09155 241.813 1.09041H151.187Z" fill="#3F3D56"/>
<path d="M188.961 55.0339H169.013C168.361 55.0332 167.737 54.7745 167.276 54.3145C166.816 53.8546 166.557 53.2309 166.556 52.5805V29.0715C166.557 28.421 166.816 27.7974 167.276 27.3374C167.737 26.8775 168.361 26.6188 169.013 26.618H188.961C189.613 26.6188 190.237 26.8775 190.698 27.3374C191.158 27.7974 191.417 28.421 191.418 29.0715V52.5805C191.417 53.2309 191.158 53.8546 190.698 54.3145C190.237 54.7745 189.613 55.0332 188.961 55.0339Z" fill="white"/>
<path d="M227.723 65.9379H207.774C207.123 65.9372 206.499 65.6785 206.038 65.2185C205.577 64.7586 205.318 64.135 205.318 63.4845V39.9755C205.318 39.325 205.577 38.7014 206.038 38.2415C206.499 37.7815 207.123 37.5228 207.774 37.5221H227.723C228.374 37.5228 228.999 37.7815 229.459 38.2415C229.92 38.7014 230.179 39.325 230.18 39.9755V63.4845C230.179 64.135 229.92 64.7586 229.459 65.2185C228.999 65.6785 228.374 65.9372 227.723 65.9379Z" fill="#CCCCCC"/>
<path d="M196.604 99.1954H176.656C176.005 99.1947 175.38 98.9359 174.92 98.476C174.459 98.0161 174.2 97.3924 174.199 96.742V73.233C174.2 72.5825 174.459 71.9589 174.92 71.4989C175.38 71.039 176.005 70.7803 176.656 70.7795H196.604C197.256 70.7803 197.88 71.039 198.341 71.4989C198.801 71.9589 199.06 72.5825 199.061 73.233V96.742C199.06 97.3924 198.801 98.0161 198.341 98.476C197.88 98.9359 197.256 99.1947 196.604 99.1954Z" fill="#FF6584"/>
<path d="M388.087 242.033H297.461C296.158 242.032 294.909 241.514 293.988 240.594C293.067 239.675 292.549 238.427 292.548 237.126V122.634C292.549 121.333 293.067 120.086 293.988 119.166C294.909 118.246 296.158 117.728 297.461 117.727H388.087C389.389 117.728 390.638 118.246 391.559 119.166C392.48 120.086 392.999 121.333 393 122.634V237.126C392.999 238.427 392.48 239.675 391.559 240.595C390.638 241.514 389.389 242.032 388.087 242.033ZM297.461 118.817C296.448 118.818 295.476 119.221 294.76 119.936C294.044 120.652 293.641 121.622 293.639 122.634V237.126C293.641 238.138 294.044 239.108 294.76 239.824C295.476 240.539 296.448 240.942 297.461 240.943H388.087C389.1 240.942 390.071 240.539 390.788 239.824C391.504 239.108 391.907 238.138 391.908 237.126V122.634C391.907 121.622 391.504 120.652 390.788 119.936C390.071 119.221 389.1 118.818 388.087 118.817H297.461Z" fill="#3F3D56"/>
<path d="M358.333 143.079H327.215C326.635 143.079 326.08 142.849 325.67 142.44C325.261 142.031 325.031 141.476 325.031 140.898C325.031 140.32 325.261 139.765 325.67 139.356C326.08 138.947 326.635 138.717 327.215 138.717H358.333C358.912 138.717 359.468 138.947 359.877 139.356C360.287 139.765 360.517 140.32 360.517 140.898C360.517 141.476 360.287 142.031 359.877 142.44C359.468 142.849 358.912 143.079 358.333 143.079Z" fill="white"/>
<path d="M373.619 163.797H311.928C311.641 163.797 311.357 163.741 311.092 163.632C310.826 163.522 310.585 163.362 310.382 163.159C310.179 162.957 310.017 162.716 309.907 162.451C309.797 162.186 309.741 161.902 309.741 161.616C309.741 161.329 309.797 161.045 309.907 160.78C310.017 160.515 310.179 160.275 310.382 160.072C310.585 159.87 310.826 159.709 311.092 159.6C311.357 159.49 311.641 159.434 311.928 159.435H373.619C373.906 159.434 374.191 159.49 374.456 159.6C374.721 159.709 374.963 159.87 375.166 160.072C375.369 160.275 375.53 160.515 375.64 160.78C375.75 161.045 375.807 161.329 375.807 161.616C375.807 161.902 375.75 162.186 375.64 162.451C375.53 162.716 375.369 162.957 375.166 163.159C374.963 163.362 374.721 163.522 374.456 163.632C374.191 163.741 373.906 163.797 373.619 163.797Z" fill="#CCCCCC"/>
<path d="M373.619 175.246H311.928C311.641 175.246 311.357 175.19 311.092 175.081C310.826 174.972 310.585 174.811 310.382 174.608C310.179 174.406 310.017 174.165 309.907 173.901C309.797 173.636 309.741 173.352 309.741 173.065C309.741 172.778 309.797 172.494 309.907 172.23C310.017 171.965 310.179 171.724 310.382 171.522C310.585 171.319 310.826 171.159 311.092 171.049C311.357 170.94 311.641 170.884 311.928 170.884H373.619C373.906 170.884 374.191 170.94 374.456 171.049C374.721 171.159 374.963 171.319 375.166 171.522C375.369 171.724 375.53 171.965 375.64 172.23C375.75 172.494 375.807 172.778 375.807 173.065C375.807 173.352 375.75 173.636 375.64 173.901C375.53 174.165 375.369 174.406 375.166 174.608C374.963 174.811 374.721 174.972 374.456 175.081C374.191 175.19 373.906 175.246 373.619 175.246Z" fill="#CCCCCC"/>
<path d="M373.619 186.695H311.928C311.641 186.696 311.357 186.64 311.092 186.53C310.826 186.421 310.585 186.26 310.382 186.058C310.179 185.855 310.017 185.615 309.907 185.35C309.797 185.085 309.741 184.801 309.741 184.514C309.741 184.228 309.797 183.944 309.907 183.679C310.017 183.414 310.179 183.173 310.382 182.971C310.585 182.768 310.826 182.608 311.092 182.498C311.357 182.389 311.641 182.333 311.928 182.333H373.619C373.906 182.333 374.191 182.389 374.456 182.498C374.721 182.608 374.963 182.768 375.166 182.971C375.369 183.173 375.53 183.414 375.64 183.679C375.75 183.944 375.807 184.228 375.807 184.514C375.807 184.801 375.75 185.085 375.64 185.35C375.53 185.615 375.369 185.855 375.166 186.058C374.963 186.26 374.721 186.421 374.456 186.53C374.191 186.64 373.906 186.696 373.619 186.695Z" fill="#CCCCCC"/>
<path d="M373.619 198.144H311.928C311.641 198.145 311.357 198.089 311.092 197.979C310.826 197.87 310.585 197.71 310.382 197.507C310.179 197.304 310.017 197.064 309.907 196.799C309.797 196.534 309.741 196.25 309.741 195.964C309.741 195.677 309.797 195.393 309.907 195.128C310.017 194.863 310.179 194.623 310.382 194.42C310.585 194.218 310.826 194.057 311.092 193.948C311.357 193.838 311.641 193.782 311.928 193.783H373.619C373.906 193.782 374.191 193.838 374.456 193.948C374.721 194.057 374.963 194.218 375.166 194.42C375.369 194.623 375.53 194.863 375.64 195.128C375.75 195.393 375.807 195.677 375.807 195.964C375.807 196.25 375.75 196.534 375.64 196.799C375.53 197.064 375.369 197.304 375.166 197.507C374.963 197.71 374.721 197.87 374.456 197.979C374.191 198.089 373.906 198.145 373.619 198.144Z" fill="#CCCCCC"/>
<path d="M373.619 209.594H311.928C311.641 209.594 311.357 209.538 311.092 209.429C310.826 209.319 310.585 209.159 310.382 208.956C310.179 208.754 310.017 208.513 309.907 208.248C309.797 207.983 309.741 207.7 309.741 207.413C309.741 207.126 309.797 206.842 309.907 206.577C310.017 206.313 310.179 206.072 310.382 205.869C310.585 205.667 310.826 205.506 311.092 205.397C311.357 205.288 311.641 205.232 311.928 205.232H373.619C373.906 205.232 374.191 205.288 374.456 205.397C374.721 205.506 374.963 205.667 375.166 205.869C375.369 206.072 375.53 206.313 375.64 206.577C375.75 206.842 375.807 207.126 375.807 207.413C375.807 207.7 375.75 207.983 375.64 208.248C375.53 208.513 375.369 208.754 375.166 208.956C374.963 209.159 374.721 209.319 374.456 209.429C374.191 209.538 373.906 209.594 373.619 209.594Z" fill="#CCCCCC"/>
<path d="M373.619 221.043H311.928C311.641 221.044 311.357 220.987 311.092 220.878C310.826 220.769 310.585 220.608 310.382 220.406C310.179 220.203 310.017 219.962 309.907 219.698C309.797 219.433 309.741 219.149 309.741 218.862C309.741 218.576 309.797 218.292 309.907 218.027C310.017 217.762 310.179 217.521 310.382 217.319C310.585 217.116 310.826 216.956 311.092 216.846C311.357 216.737 311.641 216.681 311.928 216.681H373.619C373.906 216.681 374.191 216.737 374.456 216.846C374.721 216.956 374.963 217.116 375.166 217.319C375.369 217.521 375.53 217.762 375.64 218.027C375.75 218.292 375.807 218.576 375.807 218.862C375.807 219.149 375.75 219.433 375.64 219.698C375.53 219.962 375.369 220.203 375.166 220.406C374.963 220.608 374.721 220.769 374.456 220.878C374.191 220.987 373.906 221.044 373.619 221.043Z" fill="#CCCCCC"/>
<path d="M95.539 242.033H4.91343C3.61076 242.032 2.36187 241.514 1.44074 240.595C0.519617 239.675 0.00148174 238.427 0 237.126V122.634C0.00148174 121.333 0.519617 120.086 1.44074 119.166C2.36187 118.246 3.61076 117.728 4.91343 117.727H95.539C96.8416 117.728 98.0905 118.246 99.0116 119.166C99.9328 120.086 100.451 121.333 100.452 122.634V237.126C100.451 238.427 99.9328 239.675 99.0116 240.594C98.0905 241.514 96.8416 242.032 95.539 242.033ZM4.91343 118.817C3.90024 118.818 2.92888 119.221 2.21244 119.936C1.49601 120.652 1.093 121.622 1.09187 122.634V237.126C1.093 238.138 1.49601 239.108 2.21244 239.824C2.92888 240.539 3.90024 240.942 4.91343 240.943H95.539C96.5522 240.942 97.5235 240.539 98.24 239.824C98.9564 239.108 99.3594 238.138 99.3605 237.126V122.634C99.3594 121.622 98.9564 120.652 98.24 119.936C97.5235 119.221 96.5522 118.818 95.539 118.817H4.91343Z" fill="#3F3D56"/>
<path d="M81.1662 144.759H53.8694C53.2902 144.759 52.7347 144.529 52.3252 144.12C51.9157 143.711 51.6856 143.156 51.6856 142.578C51.6856 141.999 51.9157 141.445 52.3252 141.036C52.7347 140.627 53.2902 140.397 53.8694 140.397H81.1662C81.7454 140.397 82.3008 140.627 82.7104 141.036C83.1199 141.445 83.35 141.999 83.35 142.578C83.35 143.156 83.1199 143.711 82.7104 144.12C82.3008 144.529 81.7454 144.759 81.1662 144.759Z" fill="#3F3D56"/>
<path d="M81.1662 156.208H53.8694C53.2902 156.208 52.7347 155.978 52.3252 155.569C51.9157 155.16 51.6856 154.606 51.6856 154.027C51.6856 153.449 51.9157 152.894 52.3252 152.485C52.7347 152.076 53.2902 151.846 53.8694 151.846H81.1662C81.7454 151.846 82.3008 152.076 82.7104 152.485C83.1199 152.894 83.35 153.449 83.35 154.027C83.35 154.606 83.1199 155.16 82.7104 155.569C82.3008 155.978 81.7454 156.208 81.1662 156.208Z" fill="#3F3D56"/>
<path d="M39.8633 162.727H19.9147C19.2634 162.726 18.6389 162.468 18.1784 162.008C17.7178 161.548 17.4587 160.924 17.458 160.274V136.765C17.4587 136.114 17.7178 135.491 18.1784 135.031C18.6389 134.571 19.2634 134.312 19.9147 134.311H39.8633C40.5146 134.312 41.1391 134.571 41.5996 135.031C42.0602 135.491 42.3193 136.114 42.32 136.765V160.274C42.3193 160.924 42.0602 161.548 41.5996 162.008C41.1391 162.468 40.5146 162.726 39.8633 162.727Z" fill="white"/>
<path d="M80.9771 179.652H19.2862C18.9991 179.652 18.7147 179.596 18.4494 179.487C18.184 179.377 17.9428 179.217 17.7396 179.014C17.5365 178.812 17.3753 178.571 17.2653 178.306C17.1553 178.041 17.0987 177.758 17.0987 177.471C17.0987 177.184 17.1553 176.9 17.2653 176.635C17.3753 176.371 17.5365 176.13 17.7396 175.927C17.9428 175.725 18.184 175.564 18.4494 175.455C18.7147 175.346 18.9991 175.29 19.2862 175.29H80.9771C81.2642 175.29 81.5486 175.346 81.8139 175.455C82.0793 175.564 82.3205 175.725 82.5237 175.927C82.7269 176.13 82.8881 176.371 82.9981 176.635C83.108 176.9 83.1646 177.184 83.1646 177.471C83.1646 177.758 83.108 178.041 82.9981 178.306C82.8881 178.571 82.7269 178.812 82.5237 179.014C82.3205 179.217 82.0793 179.377 81.8139 179.487C81.5486 179.596 81.2642 179.652 80.9771 179.652Z" fill="#CCCCCC"/>
<path d="M80.9771 191.101H19.2862C18.9991 191.101 18.7147 191.045 18.4494 190.936C18.184 190.827 17.9428 190.666 17.7396 190.464C17.5365 190.261 17.3753 190.02 17.2653 189.756C17.1553 189.491 17.0987 189.207 17.0987 188.92C17.0987 188.633 17.1553 188.35 17.2653 188.085C17.3753 187.82 17.5365 187.579 17.7396 187.377C17.9428 187.174 18.184 187.014 18.4494 186.904C18.7147 186.795 18.9991 186.739 19.2862 186.739H80.9771C81.2642 186.739 81.5486 186.795 81.8139 186.904C82.0793 187.014 82.3205 187.174 82.5237 187.377C82.7269 187.579 82.8881 187.82 82.9981 188.085C83.108 188.35 83.1646 188.633 83.1646 188.92C83.1646 189.207 83.108 189.491 82.9981 189.756C82.8881 190.02 82.7269 190.261 82.5237 190.464C82.3205 190.666 82.0793 190.827 81.8139 190.936C81.5486 191.045 81.2642 191.101 80.9771 191.101Z" fill="#CCCCCC"/>
<path d="M80.9771 202.55H19.2862C18.9991 202.551 18.7147 202.495 18.4494 202.385C18.184 202.276 17.9428 202.115 17.7396 201.913C17.5365 201.71 17.3753 201.47 17.2653 201.205C17.1553 200.94 17.0987 200.656 17.0987 200.369C17.0987 200.083 17.1553 199.799 17.2653 199.534C17.3753 199.269 17.5365 199.029 17.7396 198.826C17.9428 198.623 18.184 198.463 18.4494 198.354C18.7147 198.244 18.9991 198.188 19.2862 198.189H80.9771C81.2642 198.188 81.5486 198.244 81.8139 198.354C82.0793 198.463 82.3205 198.623 82.5237 198.826C82.7269 199.029 82.8881 199.269 82.9981 199.534C83.108 199.799 83.1646 200.083 83.1646 200.369C83.1646 200.656 83.108 200.94 82.9981 201.205C82.8881 201.47 82.7269 201.71 82.5237 201.913C82.3205 202.115 82.0793 202.276 81.8139 202.385C81.5486 202.495 81.2642 202.551 80.9771 202.55Z" fill="#CCCCCC"/>
<path d="M80.9771 214H19.2862C18.9991 214 18.7147 213.944 18.4494 213.835C18.184 213.725 17.9428 213.565 17.7396 213.362C17.5365 213.16 17.3753 212.919 17.2653 212.654C17.1553 212.389 17.0987 212.105 17.0987 211.819C17.0987 211.532 17.1553 211.248 17.2653 210.983C17.3753 210.718 17.5365 210.478 17.7396 210.275C17.9428 210.073 18.184 209.912 18.4494 209.803C18.7147 209.693 18.9991 209.637 19.2862 209.638H80.9771C81.2642 209.637 81.5486 209.693 81.8139 209.803C82.0793 209.912 82.3205 210.073 82.5237 210.275C82.7269 210.478 82.8881 210.718 82.9981 210.983C83.108 211.248 83.1646 211.532 83.1646 211.819C83.1646 212.105 83.108 212.389 82.9981 212.654C82.8881 212.919 82.7269 213.16 82.5237 213.362C82.3205 213.565 82.0793 213.725 81.8139 213.835C81.5486 213.944 81.2642 214 80.9771 214Z" fill="#CCCCCC"/>
<path d="M80.9771 225.449H19.2862C18.9991 225.449 18.7147 225.393 18.4494 225.284C18.184 225.175 17.9428 225.014 17.7396 224.811C17.5365 224.609 17.3753 224.368 17.2653 224.103C17.1553 223.839 17.0987 223.555 17.0987 223.268C17.0987 222.981 17.1553 222.697 17.2653 222.433C17.3753 222.168 17.5365 221.927 17.7396 221.725C17.9428 221.522 18.184 221.361 18.4494 221.252C18.7147 221.143 18.9991 221.087 19.2862 221.087H80.9771C81.2642 221.087 81.5486 221.143 81.8139 221.252C82.0793 221.361 82.3205 221.522 82.5237 221.725C82.7269 221.927 82.8881 222.168 82.9981 222.433C83.108 222.697 83.1646 222.981 83.1646 223.268C83.1646 223.555 83.108 223.839 82.9981 224.103C82.8881 224.368 82.7269 224.609 82.5237 224.811C82.3205 225.014 82.0793 225.175 81.8139 225.284C81.5486 225.393 81.2642 225.449 80.9771 225.449Z" fill="#CCCCCC"/>
<path d="M129.799 308.393V284.884C129.8 284.233 130.059 283.61 130.52 283.15C130.98 282.69 131.605 282.431 132.256 282.43H152.204C152.856 282.431 153.48 282.69 153.941 283.15C154.401 283.61 154.66 284.233 154.661 284.884V308.393C154.66 309.043 154.401 309.667 153.941 310.127C153.48 310.587 152.856 310.845 152.204 310.846H132.256C131.605 310.845 130.98 310.587 130.52 310.127C130.059 309.667 129.8 309.043 129.799 308.393Z" fill="#E6E6E6"/>
<path d="M136.985 300.564V277.055C136.986 276.405 137.245 275.781 137.705 275.321C138.166 274.861 138.79 274.602 139.442 274.602H159.39C160.042 274.602 160.666 274.861 161.127 275.321C161.587 275.781 161.846 276.405 161.847 277.055V300.564C161.846 301.215 161.587 301.838 161.127 302.298C160.666 302.758 160.042 303.017 159.39 303.018H139.442C138.79 303.017 138.166 302.758 137.705 302.298C137.245 301.838 136.986 301.215 136.985 300.564Z" fill="white"/>
<path d="M226.409 293.042C225.658 292.609 225.012 292.017 224.515 291.307C224.019 290.597 223.684 289.788 223.535 288.935C223.385 288.082 223.425 287.207 223.651 286.371C223.877 285.535 224.283 284.759 224.842 284.097L218.659 238.96L231.539 239.591L233.562 283.618C234.613 284.629 235.256 285.99 235.37 287.443C235.483 288.897 235.059 290.341 234.177 291.503C233.295 292.664 232.018 293.463 230.586 293.746C229.154 294.03 227.668 293.78 226.409 293.042V293.042Z" fill="#A0616A"/>
<path d="M233.307 240.193C233.043 240.503 232.705 240.742 232.324 240.887L220.749 245.299C220.167 245.521 219.523 245.511 218.948 245.273C218.374 245.035 217.912 244.585 217.659 244.017L207.406 221.005C206.421 218.87 206.253 216.449 206.934 214.199C207.438 212.594 208.366 211.153 209.62 210.03C210.875 208.907 212.409 208.143 214.062 207.818C215.334 207.556 216.647 207.575 217.91 207.872C219.424 208.209 220.83 208.918 222.001 209.934C223.171 210.95 224.07 212.242 224.615 213.692L233.731 237.758C233.885 238.165 233.926 238.605 233.852 239.033C233.777 239.461 233.589 239.862 233.307 240.193Z" fill="#CCCCCC"/>
<path d="M172.987 403.211H164.978L162.075 372.215L172.989 372.361L172.987 403.211Z" fill="#A0616A"/>
<path d="M159.258 400.925H174.703V410.637H149.533C149.533 409.362 149.785 408.099 150.273 406.92C150.762 405.742 151.478 404.671 152.381 403.77C153.284 402.868 154.356 402.152 155.536 401.664C156.716 401.176 157.981 400.925 159.258 400.925Z" fill="#2F2E41"/>
<path d="M210.223 403.211H202.214L198.404 372.361L210.224 372.362L210.223 403.211Z" fill="#A0616A"/>
<path d="M196.494 400.925H211.939V410.637H186.769C186.769 409.362 187.02 408.099 187.509 406.92C187.998 405.742 188.714 404.671 189.617 403.77C190.52 402.868 191.592 402.152 192.772 401.664C193.952 401.176 195.217 400.925 196.494 400.925Z" fill="#2F2E41"/>
<path d="M211.23 392.235L198.652 391.304C197.936 391.251 197.265 390.938 196.765 390.425C196.264 389.912 195.968 389.234 195.933 388.518L193.128 330.632C193.101 330.077 192.872 329.55 192.484 329.151C192.096 328.753 191.575 328.509 191.02 328.466C190.464 328.424 189.913 328.585 189.468 328.919C189.023 329.254 188.716 329.74 188.604 330.285L176.904 387.307C176.759 388.009 176.362 388.633 175.789 389.064C175.216 389.494 174.505 389.7 173.789 389.644L162.419 388.736C162.029 388.705 161.65 388.596 161.303 388.417C160.955 388.237 160.647 387.991 160.397 387.691C160.146 387.391 159.958 387.045 159.843 386.672C159.729 386.298 159.689 385.906 159.728 385.518L170.277 280.174C170.318 279.762 170.446 279.363 170.652 279.004C170.859 278.646 171.138 278.334 171.474 278.091C171.809 277.848 172.192 277.678 172.597 277.593C173.003 277.508 173.422 277.509 173.826 277.597L213.94 286.306C214.605 286.451 215.198 286.822 215.62 287.355C216.042 287.888 216.266 288.55 216.255 289.229L214.387 389.362C214.372 390.13 214.057 390.861 213.509 391.4C212.961 391.938 212.223 392.241 211.454 392.243C211.38 392.243 211.305 392.24 211.23 392.235Z" fill="#2F2E41"/>
<path d="M200.226 192.093C209.087 192.093 216.271 184.919 216.271 176.07C216.271 167.22 209.087 160.046 200.226 160.046C191.365 160.046 184.181 167.22 184.181 176.07C184.181 184.919 191.365 192.093 200.226 192.093Z" fill="#A0616A"/>
<path d="M175.331 288.297C173.789 286.915 172.564 285.217 171.741 283.317C170.919 281.418 170.518 279.363 170.567 277.294C170.567 254.264 190.528 202.813 191.153 201.207C191.214 200.821 191.741 200.654 194.504 198.79C197.269 196.924 201.256 196.637 206.354 197.938C206.872 198.07 207.344 198.342 207.718 198.724C208.093 199.106 208.355 199.582 208.477 200.103L209.425 201.471C209.508 201.818 209.671 202.141 209.901 202.414C210.131 202.686 210.422 202.901 210.751 203.041C214.862 204.771 227.93 212.747 223.477 242.765C219.341 270.65 217.662 287.05 217.132 292.806C217.07 293.489 216.77 294.129 216.284 294.614C215.798 295.098 215.157 295.397 214.473 295.459C212.457 295.639 208.997 295.878 204.877 295.878C195.325 295.878 182.224 294.592 175.331 288.297Z" fill="#CCCCCC"/>
<path d="M156.16 279.765C155.778 278.988 155.572 278.136 155.555 277.271C155.539 276.405 155.713 275.546 156.065 274.755C156.416 273.964 156.938 273.259 157.592 272.691C158.246 272.123 159.016 271.704 159.85 271.466L179.9 230.545L190.244 238.237L167.357 275.92C167.666 277.345 167.441 278.833 166.724 280.103C166.007 281.373 164.849 282.336 163.469 282.81C162.088 283.284 160.582 283.236 159.235 282.675C157.888 282.113 156.794 281.078 156.16 279.765L156.16 279.765Z" fill="#A0616A"/>
<path d="M191.376 239.72C190.984 239.831 190.57 239.841 190.172 239.749L178.099 236.972C177.492 236.832 176.962 236.466 176.618 235.948C176.274 235.43 176.142 234.8 176.249 234.188L180.575 209.373C180.948 207.053 182.16 204.949 183.981 203.46C185.295 202.407 186.869 201.728 188.537 201.493C190.206 201.259 191.906 201.478 193.46 202.128C194.662 202.618 195.742 203.364 196.625 204.314C197.694 205.436 198.466 206.807 198.871 208.302C199.276 209.798 199.301 211.37 198.945 212.878L193.087 237.935C192.987 238.358 192.776 238.746 192.475 239.06C192.174 239.374 191.795 239.602 191.376 239.72Z" fill="#CCCCCC"/>
<path d="M196.469 190.547C195.688 189.751 195.112 188.779 194.789 187.712C194.466 186.646 194.406 185.517 194.615 184.423C195.174 181.501 195.503 179.589 195.565 178.893C195.778 176.513 193.369 174.587 190.985 174.28C190.893 174.268 190.816 174.26 190.751 174.255C190.812 174.315 190.877 174.376 190.934 174.429C191.387 174.854 191.951 175.383 191.817 175.928C191.736 176.257 191.435 176.49 190.898 176.64C187.17 177.682 184.299 176.725 181.863 173.628C181.178 172.748 180.707 171.721 180.488 170.629C179.615 166.352 181.94 162.707 184.045 160.402C185.781 158.502 188.594 156.195 192.142 155.997C194.901 155.844 198.181 157.429 199.164 160.286C199.627 159.601 200.243 159.032 200.965 158.626C201.686 158.22 202.492 157.988 203.319 157.947C205.203 157.906 207.056 158.421 208.649 159.427C216.428 163.878 219.772 174.479 215.95 182.579C213.546 187.673 208.337 191.466 202.356 192.477C201.981 192.54 201.602 192.572 201.222 192.572C200.334 192.571 199.456 192.391 198.639 192.043C197.823 191.695 197.085 191.186 196.469 190.547Z" fill="#2F2E41"/>
<path d="M121.231 411H248.616C248.789 411 248.955 410.931 249.078 410.809C249.201 410.687 249.269 410.521 249.269 410.348C249.269 410.175 249.201 410.009 249.078 409.886C248.955 409.764 248.789 409.695 248.616 409.695H121.231C121.058 409.695 120.891 409.764 120.769 409.886C120.646 410.009 120.578 410.175 120.578 410.348C120.578 410.521 120.646 410.687 120.769 410.809C120.891 410.931 121.058 411 121.231 411Z" fill="#3F3D56"/>
</svg>
